%TF.GenerationSoftware,KiCad,Pcbnew,(6.0.6)*%
%TF.CreationDate,2023-01-10T19:01:41-05:00*%
%TF.ProjectId,STM32F4_REV1,53544d33-3246-4345-9f52-4556312e6b69,rev?*%
%TF.SameCoordinates,Original*%
%TF.FileFunction,Legend,Top*%
%TF.FilePolarity,Positive*%
%FSLAX46Y46*%
G04 Gerber Fmt 4.6, Leading zero omitted, Abs format (unit mm)*
G04 Created by KiCad (PCBNEW (6.0.6)) date 2023-01-10 19:01:41*
%MOMM*%
%LPD*%
G01*
G04 APERTURE LIST*
%ADD10C,0.150000*%
%ADD11C,1.345157*%
%ADD12C,0.300000*%
%ADD13C,0.125000*%
%ADD14C,0.120000*%
G04 APERTURE END LIST*
D10*
X129842857Y-101137142D02*
X129842857Y-101780000D01*
X129800000Y-101908571D01*
X129714285Y-101994285D01*
X129585714Y-102037142D01*
X129500000Y-102037142D01*
X130700000Y-102037142D02*
X130271428Y-102037142D01*
X130271428Y-101137142D01*
X131514285Y-101951428D02*
X131471428Y-101994285D01*
X131342857Y-102037142D01*
X131257142Y-102037142D01*
X131128571Y-101994285D01*
X131042857Y-101908571D01*
X131000000Y-101822857D01*
X130957142Y-101651428D01*
X130957142Y-101522857D01*
X131000000Y-101351428D01*
X131042857Y-101265714D01*
X131128571Y-101180000D01*
X131257142Y-101137142D01*
X131342857Y-101137142D01*
X131471428Y-101180000D01*
X131514285Y-101222857D01*
X132157142Y-101137142D02*
X132157142Y-101780000D01*
X132114285Y-101908571D01*
X132028571Y-101994285D01*
X131900000Y-102037142D01*
X131814285Y-102037142D01*
X133014285Y-102037142D02*
X132585714Y-102037142D01*
X132585714Y-101137142D01*
X133828571Y-101951428D02*
X133785714Y-101994285D01*
X133657142Y-102037142D01*
X133571428Y-102037142D01*
X133442857Y-101994285D01*
X133357142Y-101908571D01*
X133314285Y-101822857D01*
X133271428Y-101651428D01*
X133271428Y-101522857D01*
X133314285Y-101351428D01*
X133357142Y-101265714D01*
X133442857Y-101180000D01*
X133571428Y-101137142D01*
X133657142Y-101137142D01*
X133785714Y-101180000D01*
X133828571Y-101222857D01*
X134471428Y-101137142D02*
X134471428Y-101780000D01*
X134428571Y-101908571D01*
X134342857Y-101994285D01*
X134214285Y-102037142D01*
X134128571Y-102037142D01*
X135328571Y-102037142D02*
X134900000Y-102037142D01*
X134900000Y-101137142D01*
X136142857Y-101951428D02*
X136100000Y-101994285D01*
X135971428Y-102037142D01*
X135885714Y-102037142D01*
X135757142Y-101994285D01*
X135671428Y-101908571D01*
X135628571Y-101822857D01*
X135585714Y-101651428D01*
X135585714Y-101522857D01*
X135628571Y-101351428D01*
X135671428Y-101265714D01*
X135757142Y-101180000D01*
X135885714Y-101137142D01*
X135971428Y-101137142D01*
X136100000Y-101180000D01*
X136142857Y-101222857D01*
X136785714Y-101137142D02*
X136785714Y-101780000D01*
X136742857Y-101908571D01*
X136657142Y-101994285D01*
X136528571Y-102037142D01*
X136442857Y-102037142D01*
X137642857Y-102037142D02*
X137214285Y-102037142D01*
X137214285Y-101137142D01*
X138457142Y-101951428D02*
X138414285Y-101994285D01*
X138285714Y-102037142D01*
X138200000Y-102037142D01*
X138071428Y-101994285D01*
X137985714Y-101908571D01*
X137942857Y-101822857D01*
X137900000Y-101651428D01*
X137900000Y-101522857D01*
X137942857Y-101351428D01*
X137985714Y-101265714D01*
X138071428Y-101180000D01*
X138200000Y-101137142D01*
X138285714Y-101137142D01*
X138414285Y-101180000D01*
X138457142Y-101222857D01*
X128610000Y-111970000D02*
X139710000Y-111970000D01*
X139710000Y-111970000D02*
X139710000Y-115130000D01*
X139710000Y-115130000D02*
X128610000Y-115130000D01*
X128610000Y-115130000D02*
X128610000Y-111970000D01*
D11*
X134722578Y-113570000D02*
G75*
G03*
X134722578Y-113570000I-672578J0D01*
G01*
D12*
X130117619Y-114474761D02*
X129450952Y-113522380D01*
X128974761Y-114474761D02*
X128974761Y-112474761D01*
X129736666Y-112474761D01*
X129927142Y-112570000D01*
X130022380Y-112665238D01*
X130117619Y-112855714D01*
X130117619Y-113141428D01*
X130022380Y-113331904D01*
X129927142Y-113427142D01*
X129736666Y-113522380D01*
X128974761Y-113522380D01*
X131641428Y-113427142D02*
X131927142Y-113522380D01*
X132022380Y-113617619D01*
X132117619Y-113808095D01*
X132117619Y-114093809D01*
X132022380Y-114284285D01*
X131927142Y-114379523D01*
X131736666Y-114474761D01*
X130974761Y-114474761D01*
X130974761Y-112474761D01*
X131641428Y-112474761D01*
X131831904Y-112570000D01*
X131927142Y-112665238D01*
X132022380Y-112855714D01*
X132022380Y-113046190D01*
X131927142Y-113236666D01*
X131831904Y-113331904D01*
X131641428Y-113427142D01*
X130974761Y-113427142D01*
X136403333Y-112474761D02*
X136784285Y-112474761D01*
X136974761Y-112570000D01*
X137165238Y-112760476D01*
X137260476Y-113141428D01*
X137260476Y-113808095D01*
X137165238Y-114189047D01*
X136974761Y-114379523D01*
X136784285Y-114474761D01*
X136403333Y-114474761D01*
X136212857Y-114379523D01*
X136022380Y-114189047D01*
X135927142Y-113808095D01*
X135927142Y-113141428D01*
X136022380Y-112760476D01*
X136212857Y-112570000D01*
X136403333Y-112474761D01*
X139260476Y-114284285D02*
X139165238Y-114379523D01*
X138879523Y-114474761D01*
X138689047Y-114474761D01*
X138403333Y-114379523D01*
X138212857Y-114189047D01*
X138117619Y-113998571D01*
X138022380Y-113617619D01*
X138022380Y-113331904D01*
X138117619Y-112950952D01*
X138212857Y-112760476D01*
X138403333Y-112570000D01*
X138689047Y-112474761D01*
X138879523Y-112474761D01*
X139165238Y-112570000D01*
X139260476Y-112665238D01*
D13*
X142327619Y-128602380D02*
X142399047Y-128626190D01*
X142518095Y-128626190D01*
X142565714Y-128602380D01*
X142589523Y-128578571D01*
X142613333Y-128530952D01*
X142613333Y-128483333D01*
X142589523Y-128435714D01*
X142565714Y-128411904D01*
X142518095Y-128388095D01*
X142422857Y-128364285D01*
X142375238Y-128340476D01*
X142351428Y-128316666D01*
X142327619Y-128269047D01*
X142327619Y-128221428D01*
X142351428Y-128173809D01*
X142375238Y-128150000D01*
X142422857Y-128126190D01*
X142541904Y-128126190D01*
X142613333Y-128150000D01*
X142756190Y-128126190D02*
X143041904Y-128126190D01*
X142899047Y-128626190D02*
X142899047Y-128126190D01*
X143208571Y-128626190D02*
X143208571Y-128126190D01*
X143375238Y-128483333D01*
X143541904Y-128126190D01*
X143541904Y-128626190D01*
X143732380Y-128126190D02*
X144041904Y-128126190D01*
X143875238Y-128316666D01*
X143946666Y-128316666D01*
X143994285Y-128340476D01*
X144018095Y-128364285D01*
X144041904Y-128411904D01*
X144041904Y-128530952D01*
X144018095Y-128578571D01*
X143994285Y-128602380D01*
X143946666Y-128626190D01*
X143803809Y-128626190D01*
X143756190Y-128602380D01*
X143732380Y-128578571D01*
X144232380Y-128173809D02*
X144256190Y-128150000D01*
X144303809Y-128126190D01*
X144422857Y-128126190D01*
X144470476Y-128150000D01*
X144494285Y-128173809D01*
X144518095Y-128221428D01*
X144518095Y-128269047D01*
X144494285Y-128340476D01*
X144208571Y-128626190D01*
X144518095Y-128626190D01*
X144899047Y-128364285D02*
X144732380Y-128364285D01*
X144732380Y-128626190D02*
X144732380Y-128126190D01*
X144970476Y-128126190D01*
X145375238Y-128292857D02*
X145375238Y-128626190D01*
X145256190Y-128102380D02*
X145137142Y-128459523D01*
X145446666Y-128459523D01*
X146184761Y-128364285D02*
X146256190Y-128388095D01*
X146280000Y-128411904D01*
X146303809Y-128459523D01*
X146303809Y-128530952D01*
X146280000Y-128578571D01*
X146256190Y-128602380D01*
X146208571Y-128626190D01*
X146018095Y-128626190D01*
X146018095Y-128126190D01*
X146184761Y-128126190D01*
X146232380Y-128150000D01*
X146256190Y-128173809D01*
X146280000Y-128221428D01*
X146280000Y-128269047D01*
X146256190Y-128316666D01*
X146232380Y-128340476D01*
X146184761Y-128364285D01*
X146018095Y-128364285D01*
X146613333Y-128126190D02*
X146708571Y-128126190D01*
X146756190Y-128150000D01*
X146803809Y-128197619D01*
X146827619Y-128292857D01*
X146827619Y-128459523D01*
X146803809Y-128554761D01*
X146756190Y-128602380D01*
X146708571Y-128626190D01*
X146613333Y-128626190D01*
X146565714Y-128602380D01*
X146518095Y-128554761D01*
X146494285Y-128459523D01*
X146494285Y-128292857D01*
X146518095Y-128197619D01*
X146565714Y-128150000D01*
X146613333Y-128126190D01*
X147018095Y-128483333D02*
X147256190Y-128483333D01*
X146970476Y-128626190D02*
X147137142Y-128126190D01*
X147303809Y-128626190D01*
X147756190Y-128626190D02*
X147589523Y-128388095D01*
X147470476Y-128626190D02*
X147470476Y-128126190D01*
X147660952Y-128126190D01*
X147708571Y-128150000D01*
X147732380Y-128173809D01*
X147756190Y-128221428D01*
X147756190Y-128292857D01*
X147732380Y-128340476D01*
X147708571Y-128364285D01*
X147660952Y-128388095D01*
X147470476Y-128388095D01*
X147970476Y-128626190D02*
X147970476Y-128126190D01*
X148089523Y-128126190D01*
X148160952Y-128150000D01*
X148208571Y-128197619D01*
X148232380Y-128245238D01*
X148256190Y-128340476D01*
X148256190Y-128411904D01*
X148232380Y-128507142D01*
X148208571Y-128554761D01*
X148160952Y-128602380D01*
X148089523Y-128626190D01*
X147970476Y-128626190D01*
X148970476Y-128792857D02*
X148970476Y-128078571D01*
X149994285Y-128626190D02*
X149827619Y-128388095D01*
X149708571Y-128626190D02*
X149708571Y-128126190D01*
X149899047Y-128126190D01*
X149946666Y-128150000D01*
X149970476Y-128173809D01*
X149994285Y-128221428D01*
X149994285Y-128292857D01*
X149970476Y-128340476D01*
X149946666Y-128364285D01*
X149899047Y-128388095D01*
X149708571Y-128388095D01*
X150208571Y-128364285D02*
X150375238Y-128364285D01*
X150446666Y-128626190D02*
X150208571Y-128626190D01*
X150208571Y-128126190D01*
X150446666Y-128126190D01*
X150589523Y-128126190D02*
X150756190Y-128626190D01*
X150922857Y-128126190D01*
X151732380Y-128626190D02*
X151446666Y-128626190D01*
X151589523Y-128626190D02*
X151589523Y-128126190D01*
X151541904Y-128197619D01*
X151494285Y-128245238D01*
X151446666Y-128269047D01*
D10*
X125822857Y-110918571D02*
X125965714Y-110966190D01*
X126013333Y-111013809D01*
X126060952Y-111109047D01*
X126060952Y-111251904D01*
X126013333Y-111347142D01*
X125965714Y-111394761D01*
X125870476Y-111442380D01*
X125489523Y-111442380D01*
X125489523Y-110442380D01*
X125822857Y-110442380D01*
X125918095Y-110490000D01*
X125965714Y-110537619D01*
X126013333Y-110632857D01*
X126013333Y-110728095D01*
X125965714Y-110823333D01*
X125918095Y-110870952D01*
X125822857Y-110918571D01*
X125489523Y-110918571D01*
X126680000Y-110442380D02*
X126870476Y-110442380D01*
X126965714Y-110490000D01*
X127060952Y-110585238D01*
X127108571Y-110775714D01*
X127108571Y-111109047D01*
X127060952Y-111299523D01*
X126965714Y-111394761D01*
X126870476Y-111442380D01*
X126680000Y-111442380D01*
X126584761Y-111394761D01*
X126489523Y-111299523D01*
X126441904Y-111109047D01*
X126441904Y-110775714D01*
X126489523Y-110585238D01*
X126584761Y-110490000D01*
X126680000Y-110442380D01*
X127727619Y-110442380D02*
X127918095Y-110442380D01*
X128013333Y-110490000D01*
X128108571Y-110585238D01*
X128156190Y-110775714D01*
X128156190Y-111109047D01*
X128108571Y-111299523D01*
X128013333Y-111394761D01*
X127918095Y-111442380D01*
X127727619Y-111442380D01*
X127632380Y-111394761D01*
X127537142Y-111299523D01*
X127489523Y-111109047D01*
X127489523Y-110775714D01*
X127537142Y-110585238D01*
X127632380Y-110490000D01*
X127727619Y-110442380D01*
X128441904Y-110442380D02*
X129013333Y-110442380D01*
X128727619Y-111442380D02*
X128727619Y-110442380D01*
X159968571Y-108837142D02*
X161111428Y-108837142D01*
X160540000Y-109408571D02*
X160540000Y-108265714D01*
X126155238Y-105407142D02*
X126764761Y-105407142D01*
X126460000Y-105711904D02*
X126460000Y-105102380D01*
X152075238Y-119477142D02*
X152684761Y-119477142D01*
X152380000Y-119781904D02*
X152380000Y-119172380D01*
X146605238Y-117587142D02*
X147214761Y-117587142D01*
X146910000Y-117891904D02*
X146910000Y-117282380D01*
X148425238Y-101537142D02*
X149034761Y-101537142D01*
X148730000Y-101841904D02*
X148730000Y-101232380D01*
G36*
X150500000Y-84490000D02*
G01*
X151010000Y-84490000D01*
X151010000Y-84700000D01*
X150500000Y-84700000D01*
X150500000Y-84800000D01*
X150190000Y-84610000D01*
X150200000Y-84600000D01*
X150500000Y-84390000D01*
X150500000Y-84490000D01*
G37*
X150500000Y-84490000D02*
X151010000Y-84490000D01*
X151010000Y-84700000D01*
X150500000Y-84700000D01*
X150500000Y-84800000D01*
X150190000Y-84610000D01*
X150200000Y-84600000D01*
X150500000Y-84390000D01*
X150500000Y-84490000D01*
X156218310Y-99890000D02*
G75*
G03*
X156218310Y-99890000I-58310J0D01*
G01*
X157860711Y-104370000D02*
G75*
G03*
X157860711Y-104370000I-70711J0D01*
G01*
X154607082Y-114930000D02*
G75*
G03*
X154607082Y-114930000I-67082J0D01*
G01*
X121148310Y-99240000D02*
G75*
G03*
X121148310Y-99240000I-58310J0D01*
G01*
X127108310Y-97240000D02*
G75*
G03*
X127108310Y-97240000I-58310J0D01*
G01*
X138372380Y-88066190D02*
X137372380Y-88066190D01*
X137467619Y-87637619D02*
X137420000Y-87590000D01*
X137372380Y-87494761D01*
X137372380Y-87256666D01*
X137420000Y-87161428D01*
X137467619Y-87113809D01*
X137562857Y-87066190D01*
X137658095Y-87066190D01*
X137800952Y-87113809D01*
X138372380Y-87685238D01*
X138372380Y-87066190D01*
X138277142Y-86066190D02*
X138324761Y-86113809D01*
X138372380Y-86256666D01*
X138372380Y-86351904D01*
X138324761Y-86494761D01*
X138229523Y-86590000D01*
X138134285Y-86637619D01*
X137943809Y-86685238D01*
X137800952Y-86685238D01*
X137610476Y-86637619D01*
X137515238Y-86590000D01*
X137420000Y-86494761D01*
X137372380Y-86351904D01*
X137372380Y-86256666D01*
X137420000Y-86113809D01*
X137467619Y-86066190D01*
X159088095Y-93082380D02*
X159088095Y-93891904D01*
X159135714Y-93987142D01*
X159183333Y-94034761D01*
X159278571Y-94082380D01*
X159469047Y-94082380D01*
X159564285Y-94034761D01*
X159611904Y-93987142D01*
X159659523Y-93891904D01*
X159659523Y-93082380D01*
X160088095Y-94034761D02*
X160230952Y-94082380D01*
X160469047Y-94082380D01*
X160564285Y-94034761D01*
X160611904Y-93987142D01*
X160659523Y-93891904D01*
X160659523Y-93796666D01*
X160611904Y-93701428D01*
X160564285Y-93653809D01*
X160469047Y-93606190D01*
X160278571Y-93558571D01*
X160183333Y-93510952D01*
X160135714Y-93463333D01*
X160088095Y-93368095D01*
X160088095Y-93272857D01*
X160135714Y-93177619D01*
X160183333Y-93130000D01*
X160278571Y-93082380D01*
X160516666Y-93082380D01*
X160659523Y-93130000D01*
X161421428Y-93558571D02*
X161564285Y-93606190D01*
X161611904Y-93653809D01*
X161659523Y-93749047D01*
X161659523Y-93891904D01*
X161611904Y-93987142D01*
X161564285Y-94034761D01*
X161469047Y-94082380D01*
X161088095Y-94082380D01*
X161088095Y-93082380D01*
X161421428Y-93082380D01*
X161516666Y-93130000D01*
X161564285Y-93177619D01*
X161611904Y-93272857D01*
X161611904Y-93368095D01*
X161564285Y-93463333D01*
X161516666Y-93510952D01*
X161421428Y-93558571D01*
X161088095Y-93558571D01*
X150974761Y-88667142D02*
X151022380Y-88524285D01*
X151022380Y-88286190D01*
X150974761Y-88190952D01*
X150927142Y-88143333D01*
X150831904Y-88095714D01*
X150736666Y-88095714D01*
X150641428Y-88143333D01*
X150593809Y-88190952D01*
X150546190Y-88286190D01*
X150498571Y-88476666D01*
X150450952Y-88571904D01*
X150403333Y-88619523D01*
X150308095Y-88667142D01*
X150212857Y-88667142D01*
X150117619Y-88619523D01*
X150070000Y-88571904D01*
X150022380Y-88476666D01*
X150022380Y-88238571D01*
X150070000Y-88095714D01*
X150022380Y-87762380D02*
X151022380Y-87524285D01*
X150308095Y-87333809D01*
X151022380Y-87143333D01*
X150022380Y-86905238D01*
X151022380Y-86524285D02*
X150022380Y-86524285D01*
X150022380Y-86286190D01*
X150070000Y-86143333D01*
X150165238Y-86048095D01*
X150260476Y-86000476D01*
X150450952Y-85952857D01*
X150593809Y-85952857D01*
X150784285Y-86000476D01*
X150879523Y-86048095D01*
X150974761Y-86143333D01*
X151022380Y-86286190D01*
X151022380Y-86524285D01*
D13*
X146026190Y-118703809D02*
X145526190Y-118703809D01*
X145526190Y-118513333D01*
X145550000Y-118465714D01*
X145573809Y-118441904D01*
X145621428Y-118418095D01*
X145692857Y-118418095D01*
X145740476Y-118441904D01*
X145764285Y-118465714D01*
X145788095Y-118513333D01*
X145788095Y-118703809D01*
X145526190Y-118108571D02*
X145526190Y-118013333D01*
X145550000Y-117965714D01*
X145597619Y-117918095D01*
X145692857Y-117894285D01*
X145859523Y-117894285D01*
X145954761Y-117918095D01*
X146002380Y-117965714D01*
X146026190Y-118013333D01*
X146026190Y-118108571D01*
X146002380Y-118156190D01*
X145954761Y-118203809D01*
X145859523Y-118227619D01*
X145692857Y-118227619D01*
X145597619Y-118203809D01*
X145550000Y-118156190D01*
X145526190Y-118108571D01*
X145526190Y-117727619D02*
X146026190Y-117608571D01*
X145669047Y-117513333D01*
X146026190Y-117418095D01*
X145526190Y-117299047D01*
X145764285Y-117108571D02*
X145764285Y-116941904D01*
X146026190Y-116870476D02*
X146026190Y-117108571D01*
X145526190Y-117108571D01*
X145526190Y-116870476D01*
X146026190Y-116370476D02*
X145788095Y-116537142D01*
X146026190Y-116656190D02*
X145526190Y-116656190D01*
X145526190Y-116465714D01*
X145550000Y-116418095D01*
X145573809Y-116394285D01*
X145621428Y-116370476D01*
X145692857Y-116370476D01*
X145740476Y-116394285D01*
X145764285Y-116418095D01*
X145788095Y-116465714D01*
X145788095Y-116656190D01*
X146026190Y-115537142D02*
X146026190Y-115775238D01*
X145526190Y-115775238D01*
X145764285Y-115370476D02*
X145764285Y-115203809D01*
X146026190Y-115132380D02*
X146026190Y-115370476D01*
X145526190Y-115370476D01*
X145526190Y-115132380D01*
X146026190Y-114918095D02*
X145526190Y-114918095D01*
X145526190Y-114799047D01*
X145550000Y-114727619D01*
X145597619Y-114680000D01*
X145645238Y-114656190D01*
X145740476Y-114632380D01*
X145811904Y-114632380D01*
X145907142Y-114656190D01*
X145954761Y-114680000D01*
X146002380Y-114727619D01*
X146026190Y-114799047D01*
X146026190Y-114918095D01*
D10*
X123293809Y-109014761D02*
X123436666Y-109062380D01*
X123674761Y-109062380D01*
X123770000Y-109014761D01*
X123817619Y-108967142D01*
X123865238Y-108871904D01*
X123865238Y-108776666D01*
X123817619Y-108681428D01*
X123770000Y-108633809D01*
X123674761Y-108586190D01*
X123484285Y-108538571D01*
X123389047Y-108490952D01*
X123341428Y-108443333D01*
X123293809Y-108348095D01*
X123293809Y-108252857D01*
X123341428Y-108157619D01*
X123389047Y-108110000D01*
X123484285Y-108062380D01*
X123722380Y-108062380D01*
X123865238Y-108110000D01*
X124150952Y-108062380D02*
X124722380Y-108062380D01*
X124436666Y-109062380D02*
X124436666Y-108062380D01*
X125008095Y-108776666D02*
X125484285Y-108776666D01*
X124912857Y-109062380D02*
X125246190Y-108062380D01*
X125579523Y-109062380D01*
X125770000Y-108062380D02*
X126341428Y-108062380D01*
X126055714Y-109062380D02*
X126055714Y-108062380D01*
X126674761Y-108062380D02*
X126674761Y-108871904D01*
X126722380Y-108967142D01*
X126770000Y-109014761D01*
X126865238Y-109062380D01*
X127055714Y-109062380D01*
X127150952Y-109014761D01*
X127198571Y-108967142D01*
X127246190Y-108871904D01*
X127246190Y-108062380D01*
X127674761Y-109014761D02*
X127817619Y-109062380D01*
X128055714Y-109062380D01*
X128150952Y-109014761D01*
X128198571Y-108967142D01*
X128246190Y-108871904D01*
X128246190Y-108776666D01*
X128198571Y-108681428D01*
X128150952Y-108633809D01*
X128055714Y-108586190D01*
X127865238Y-108538571D01*
X127770000Y-108490952D01*
X127722380Y-108443333D01*
X127674761Y-108348095D01*
X127674761Y-108252857D01*
X127722380Y-108157619D01*
X127770000Y-108110000D01*
X127865238Y-108062380D01*
X128103333Y-108062380D01*
X128246190Y-108110000D01*
X156360476Y-118782380D02*
X156360476Y-117782380D01*
X156741428Y-117782380D01*
X156836666Y-117830000D01*
X156884285Y-117877619D01*
X156931904Y-117972857D01*
X156931904Y-118115714D01*
X156884285Y-118210952D01*
X156836666Y-118258571D01*
X156741428Y-118306190D01*
X156360476Y-118306190D01*
X157550952Y-117782380D02*
X157741428Y-117782380D01*
X157836666Y-117830000D01*
X157931904Y-117925238D01*
X157979523Y-118115714D01*
X157979523Y-118449047D01*
X157931904Y-118639523D01*
X157836666Y-118734761D01*
X157741428Y-118782380D01*
X157550952Y-118782380D01*
X157455714Y-118734761D01*
X157360476Y-118639523D01*
X157312857Y-118449047D01*
X157312857Y-118115714D01*
X157360476Y-117925238D01*
X157455714Y-117830000D01*
X157550952Y-117782380D01*
X158312857Y-117782380D02*
X158550952Y-118782380D01*
X158741428Y-118068095D01*
X158931904Y-118782380D01*
X159170000Y-117782380D01*
X159550952Y-118258571D02*
X159884285Y-118258571D01*
X160027142Y-118782380D02*
X159550952Y-118782380D01*
X159550952Y-117782380D01*
X160027142Y-117782380D01*
X161027142Y-118782380D02*
X160693809Y-118306190D01*
X160455714Y-118782380D02*
X160455714Y-117782380D01*
X160836666Y-117782380D01*
X160931904Y-117830000D01*
X160979523Y-117877619D01*
X161027142Y-117972857D01*
X161027142Y-118115714D01*
X160979523Y-118210952D01*
X160931904Y-118258571D01*
X160836666Y-118306190D01*
X160455714Y-118306190D01*
X138202380Y-126705238D02*
X139011904Y-126705238D01*
X139107142Y-126657619D01*
X139154761Y-126610000D01*
X139202380Y-126514761D01*
X139202380Y-126324285D01*
X139154761Y-126229047D01*
X139107142Y-126181428D01*
X139011904Y-126133809D01*
X138202380Y-126133809D01*
X138916666Y-125705238D02*
X138916666Y-125229047D01*
X139202380Y-125800476D02*
X138202380Y-125467142D01*
X139202380Y-125133809D01*
X139202380Y-124229047D02*
X138726190Y-124562380D01*
X139202380Y-124800476D02*
X138202380Y-124800476D01*
X138202380Y-124419523D01*
X138250000Y-124324285D01*
X138297619Y-124276666D01*
X138392857Y-124229047D01*
X138535714Y-124229047D01*
X138630952Y-124276666D01*
X138678571Y-124324285D01*
X138726190Y-124419523D01*
X138726190Y-124800476D01*
X138202380Y-123943333D02*
X138202380Y-123371904D01*
X139202380Y-123657619D02*
X138202380Y-123657619D01*
X126211904Y-116752380D02*
X125878571Y-116276190D01*
X125640476Y-116752380D02*
X125640476Y-115752380D01*
X126021428Y-115752380D01*
X126116666Y-115800000D01*
X126164285Y-115847619D01*
X126211904Y-115942857D01*
X126211904Y-116085714D01*
X126164285Y-116180952D01*
X126116666Y-116228571D01*
X126021428Y-116276190D01*
X125640476Y-116276190D01*
X126640476Y-115752380D02*
X126640476Y-116561904D01*
X126688095Y-116657142D01*
X126735714Y-116704761D01*
X126830952Y-116752380D01*
X127021428Y-116752380D01*
X127116666Y-116704761D01*
X127164285Y-116657142D01*
X127211904Y-116561904D01*
X127211904Y-115752380D01*
X127688095Y-116752380D02*
X127688095Y-115752380D01*
X128259523Y-116752380D01*
X128259523Y-115752380D01*
D14*
%TO.C,F1*%
X153410000Y-105647936D02*
X153410000Y-106852064D01*
X151590000Y-105647936D02*
X151590000Y-106852064D01*
%TO.C,C14*%
X141515000Y-97011252D02*
X141515000Y-96488748D01*
X142985000Y-97011252D02*
X142985000Y-96488748D01*
%TO.C,U3*%
X154000000Y-97440000D02*
X153200000Y-97440000D01*
X154000000Y-100560000D02*
X155800000Y-100560000D01*
X154000000Y-97440000D02*
X154800000Y-97440000D01*
X154000000Y-100560000D02*
X153200000Y-100560000D01*
%TO.C,J3*%
X134000000Y-122440000D02*
X131585000Y-122440000D01*
X130515000Y-127860000D02*
X134000000Y-127860000D01*
X134000000Y-122440000D02*
X136415000Y-122440000D01*
X131585000Y-122440000D02*
X131585000Y-122140000D01*
X136415000Y-122440000D02*
X136415000Y-122140000D01*
X130515000Y-122140000D02*
X130515000Y-127860000D01*
X131585000Y-122140000D02*
X130515000Y-122140000D01*
X131875000Y-121850000D02*
X131375000Y-121850000D01*
X137485000Y-127860000D02*
X134000000Y-127860000D01*
X136415000Y-122140000D02*
X137485000Y-122140000D01*
X137485000Y-122140000D02*
X137485000Y-127860000D01*
X131875000Y-122150000D02*
X131875000Y-121850000D01*
%TO.C,J4*%
X135665000Y-89560000D02*
X135665000Y-89860000D01*
X135665000Y-89860000D02*
X136735000Y-89860000D01*
X129765000Y-84140000D02*
X133250000Y-84140000D01*
X130835000Y-89560000D02*
X130835000Y-89860000D01*
X129765000Y-89860000D02*
X129765000Y-84140000D01*
X133250000Y-89560000D02*
X135665000Y-89560000D01*
X136735000Y-89860000D02*
X136735000Y-84140000D01*
X135375000Y-89850000D02*
X135375000Y-90150000D01*
X133250000Y-89560000D02*
X130835000Y-89560000D01*
X135375000Y-90150000D02*
X135875000Y-90150000D01*
X130835000Y-89860000D02*
X129765000Y-89860000D01*
X136735000Y-84140000D02*
X133250000Y-84140000D01*
%TO.C,Y1*%
X123650000Y-97500000D02*
X120350000Y-97500000D01*
X120350000Y-97500000D02*
X120350000Y-101500000D01*
%TO.C,U2*%
X129840000Y-106110000D02*
X128890000Y-106110000D01*
X128890000Y-96840000D02*
X127550000Y-96840000D01*
X138160000Y-106110000D02*
X139110000Y-106110000D01*
X138160000Y-95890000D02*
X139110000Y-95890000D01*
X139110000Y-106110000D02*
X139110000Y-105160000D01*
X128890000Y-95890000D02*
X128890000Y-96840000D01*
X129840000Y-95890000D02*
X128890000Y-95890000D01*
X139110000Y-95890000D02*
X139110000Y-96840000D01*
X128890000Y-106110000D02*
X128890000Y-105160000D01*
%TO.C,C8*%
X139392164Y-107360000D02*
X139607836Y-107360000D01*
X139392164Y-106640000D02*
X139607836Y-106640000D01*
%TO.C,R10*%
X146550000Y-92266359D02*
X146550000Y-92573641D01*
X147310000Y-92266359D02*
X147310000Y-92573641D01*
%TO.C,R6*%
X148737258Y-115272500D02*
X148262742Y-115272500D01*
X148737258Y-114227500D02*
X148262742Y-114227500D01*
%TO.C,C4*%
X145226248Y-107340000D02*
X146648752Y-107340000D01*
X145226248Y-109160000D02*
X146648752Y-109160000D01*
%TO.C,C15*%
X121892164Y-96140000D02*
X122107836Y-96140000D01*
X121892164Y-96860000D02*
X122107836Y-96860000D01*
%TO.C,R16*%
X134653641Y-92380000D02*
X134346359Y-92380000D01*
X134653641Y-91620000D02*
X134346359Y-91620000D01*
%TO.C,R11*%
X139620000Y-91846359D02*
X139620000Y-92153641D01*
X140380000Y-91846359D02*
X140380000Y-92153641D01*
%TO.C,R2*%
X152487258Y-111772500D02*
X152012742Y-111772500D01*
X152487258Y-110727500D02*
X152012742Y-110727500D01*
%TO.C,C5*%
X125015000Y-96511252D02*
X125015000Y-95988748D01*
X126485000Y-96511252D02*
X126485000Y-95988748D01*
%TO.C,R8*%
X141120000Y-92153641D02*
X141120000Y-91846359D01*
X141880000Y-92153641D02*
X141880000Y-91846359D01*
%TO.C,J2*%
X142765000Y-85235000D02*
X142765000Y-88765000D01*
X142830000Y-85235000D02*
X142765000Y-85235000D01*
X149235000Y-88765000D02*
X149170000Y-88765000D01*
X149235000Y-85235000D02*
X149235000Y-88765000D01*
X149170000Y-83910000D02*
X149170000Y-85235000D01*
X142830000Y-88765000D02*
X142765000Y-88765000D01*
X149235000Y-85235000D02*
X149170000Y-85235000D01*
%TO.C,C9*%
X139890000Y-95607836D02*
X139890000Y-95392164D01*
X140610000Y-95607836D02*
X140610000Y-95392164D01*
%TO.C,R9*%
X137380000Y-92153641D02*
X137380000Y-91846359D01*
X136620000Y-92153641D02*
X136620000Y-91846359D01*
%TO.C,C10*%
X129892164Y-93860000D02*
X130107836Y-93860000D01*
X129892164Y-93140000D02*
X130107836Y-93140000D01*
%TO.C,J1*%
X157005000Y-110630000D02*
X157099000Y-110724000D01*
X157211000Y-110425000D02*
X157339000Y-110554000D01*
X155120000Y-117010000D02*
X162840000Y-117010000D01*
X162380000Y-117010000D02*
X162380000Y-109890000D01*
X162440000Y-117250000D02*
X163080000Y-117250000D01*
X161280000Y-117010000D02*
X161280000Y-109890000D01*
X155120000Y-117010000D02*
X155120000Y-109890000D01*
X162840000Y-117010000D02*
X162840000Y-109890000D01*
X163080000Y-117250000D02*
X163080000Y-116850000D01*
X159221000Y-112845000D02*
X159349000Y-112974000D01*
X159461000Y-112675000D02*
X159554000Y-112769000D01*
X155120000Y-109890000D02*
X162840000Y-109890000D01*
X159171000Y-113775000D02*
G75*
G03*
X157389807Y-113774496I-891000J-1425003D01*
G01*
X157414000Y-116640001D02*
G75*
G03*
X159169894Y-116625358I866000J1439999D01*
G01*
X159720000Y-116066000D02*
G75*
G03*
X159960099Y-115171326I-1440014J866003D01*
G01*
X156839999Y-114334000D02*
G75*
G03*
X156854642Y-116089894I1439999J-866000D01*
G01*
X159960000Y-115200000D02*
G75*
G03*
X159704721Y-114309736I-1679990J3D01*
G01*
X159960000Y-111700000D02*
G75*
G03*
X159960000Y-111700000I-1680000J0D01*
G01*
%TO.C,R13*%
X142660000Y-92276359D02*
X142660000Y-92583641D01*
X143420000Y-92276359D02*
X143420000Y-92583641D01*
%TO.C,SW1*%
X116700000Y-115500000D02*
X116700000Y-115000000D01*
X118300000Y-113100000D02*
X118600000Y-113100000D01*
X116700000Y-113100000D02*
X116700000Y-113100000D01*
X118600000Y-116400000D02*
X118300000Y-116400000D01*
X118600000Y-108900000D02*
X122400000Y-108900000D01*
X118600000Y-110600000D02*
X118600000Y-108900000D01*
X118600000Y-108900000D02*
X118600000Y-108900000D01*
X122400000Y-114200000D02*
X122400000Y-114200000D01*
X122400000Y-118100000D02*
X118600000Y-118100000D01*
X122400000Y-115300000D02*
X122400000Y-114200000D01*
X116700000Y-112300000D02*
X116700000Y-112800000D01*
X116700000Y-114700000D02*
X116700000Y-114200000D01*
X116700000Y-115500000D02*
X117200000Y-115500000D01*
X118600000Y-113900000D02*
X118300000Y-113900000D01*
X116700000Y-111500000D02*
X117200000Y-111500000D01*
X118300000Y-115600000D02*
X118600000Y-115600000D01*
X118300000Y-110600000D02*
X118600000Y-110600000D01*
X122400000Y-111700000D02*
X122400000Y-111700000D01*
X117500000Y-111500000D02*
X118000000Y-111500000D01*
X116700000Y-115000000D02*
X116700000Y-115000000D01*
X122400000Y-116700000D02*
X122400000Y-118100000D01*
X116700000Y-114200000D02*
X116700000Y-114200000D01*
X118300000Y-116400000D02*
X118300000Y-115600000D01*
X118000000Y-115500000D02*
X118000000Y-115500000D01*
X118000000Y-111500000D02*
X118000000Y-111500000D01*
X118600000Y-113100000D02*
X118600000Y-111400000D01*
X117200000Y-115500000D02*
X117200000Y-115500000D01*
X116700000Y-111500000D02*
X116700000Y-112000000D01*
X116700000Y-112000000D02*
X116700000Y-112000000D01*
X116700000Y-113900000D02*
X116700000Y-113100000D01*
X118300000Y-111400000D02*
X118300000Y-110600000D01*
X117500000Y-115500000D02*
X118000000Y-115500000D01*
X122400000Y-112800000D02*
X122400000Y-111700000D01*
X118600000Y-118100000D02*
X118600000Y-116400000D01*
X116700000Y-112800000D02*
X116700000Y-112800000D01*
X118600000Y-111400000D02*
X118300000Y-111400000D01*
X118300000Y-113900000D02*
X118300000Y-113100000D01*
X122400000Y-108900000D02*
X122400000Y-110300000D01*
X118600000Y-115600000D02*
X118600000Y-113900000D01*
X117200000Y-111500000D02*
X117200000Y-111500000D01*
%TO.C,C16*%
X121357836Y-102860000D02*
X121142164Y-102860000D01*
X121357836Y-102140000D02*
X121142164Y-102140000D01*
%TO.C,R15*%
X125903641Y-100380000D02*
X125596359Y-100380000D01*
X125903641Y-99620000D02*
X125596359Y-99620000D01*
%TO.C,L1*%
X151800000Y-126700000D02*
X151800000Y-125550000D01*
X151800000Y-121300000D02*
X146200000Y-121300000D01*
X151800000Y-126700000D02*
X146200000Y-126700000D01*
X146200000Y-126700000D02*
X146200000Y-125550000D01*
X151800000Y-121300000D02*
X151800000Y-122450000D01*
X146200000Y-121300000D02*
X146200000Y-122450000D01*
%TO.C,C11*%
X124640000Y-102892164D02*
X124640000Y-103107836D01*
X125360000Y-102892164D02*
X125360000Y-103107836D01*
%TO.C,R4*%
X149772500Y-111762742D02*
X149772500Y-112237258D01*
X148727500Y-111762742D02*
X148727500Y-112237258D01*
%TO.C,C12*%
X126860000Y-102892164D02*
X126860000Y-103107836D01*
X126140000Y-102892164D02*
X126140000Y-103107836D01*
%TO.C,R18*%
X122727500Y-106487258D02*
X122727500Y-106012742D01*
X123772500Y-106487258D02*
X123772500Y-106012742D01*
%TO.C,C6*%
X128360000Y-95627836D02*
X128360000Y-95412164D01*
X127640000Y-95627836D02*
X127640000Y-95412164D01*
%TO.C,C7*%
X131107836Y-109110000D02*
X130892164Y-109110000D01*
X131107836Y-108390000D02*
X130892164Y-108390000D01*
%TO.C,C1*%
X152109420Y-116240000D02*
X152390580Y-116240000D01*
X152109420Y-117260000D02*
X152390580Y-117260000D01*
%TO.C,R12*%
X138880000Y-91846359D02*
X138880000Y-92153641D01*
X138120000Y-91846359D02*
X138120000Y-92153641D01*
%TO.C,J5*%
X160195000Y-102695000D02*
X160195000Y-102395000D01*
X160195000Y-94395000D02*
X158645000Y-94395000D01*
X156945000Y-99445000D02*
X157395000Y-99845000D01*
X160195000Y-102695000D02*
X158645000Y-102695000D01*
X162995000Y-94695000D02*
X160195000Y-94695000D01*
X160195000Y-94695000D02*
X160195000Y-94395000D01*
X156945000Y-100245000D02*
X156945000Y-99445000D01*
X162995000Y-102395000D02*
X160195000Y-102395000D01*
X157395000Y-99845000D02*
X156945000Y-100245000D01*
%TO.C,Q1*%
X158000000Y-104690000D02*
X156325000Y-104690000D01*
X158000000Y-104690000D02*
X158650000Y-104690000D01*
X158000000Y-107810000D02*
X157350000Y-107810000D01*
X158000000Y-107810000D02*
X158650000Y-107810000D01*
%TO.C,R5*%
X143012742Y-111522500D02*
X143487258Y-111522500D01*
X143012742Y-110477500D02*
X143487258Y-110477500D01*
%TO.C,C13*%
X138488748Y-108515000D02*
X139011252Y-108515000D01*
X138488748Y-109985000D02*
X139011252Y-109985000D01*
%TO.C,D1*%
X143687500Y-101250000D02*
X147587500Y-101250000D01*
X143687500Y-103250000D02*
X147587500Y-103250000D01*
X143687500Y-101250000D02*
X143687500Y-103250000D01*
%TO.C,D3*%
X149985000Y-117485000D02*
X149985000Y-116015000D01*
X147700000Y-117485000D02*
X149985000Y-117485000D01*
X149985000Y-116015000D02*
X147700000Y-116015000D01*
%TO.C,C2*%
X143211252Y-118410000D02*
X141788748Y-118410000D01*
X143211252Y-116590000D02*
X141788748Y-116590000D01*
%TO.C,U1*%
X152500000Y-115560000D02*
X154300000Y-115560000D01*
X152500000Y-112440000D02*
X153300000Y-112440000D01*
X152500000Y-115560000D02*
X151700000Y-115560000D01*
X152500000Y-112440000D02*
X151700000Y-112440000D01*
%TO.C,R17*%
X132096359Y-91620000D02*
X132403641Y-91620000D01*
X132096359Y-92380000D02*
X132403641Y-92380000D01*
%TO.C,C3*%
X143211252Y-121160000D02*
X141788748Y-121160000D01*
X143211252Y-119340000D02*
X141788748Y-119340000D01*
%TO.C,D4*%
X124515000Y-107735000D02*
X125985000Y-107735000D01*
X125985000Y-107735000D02*
X125985000Y-105450000D01*
X124515000Y-105450000D02*
X124515000Y-107735000D01*
%TO.C,R7*%
X144300000Y-92573641D02*
X144300000Y-92266359D01*
X145060000Y-92573641D02*
X145060000Y-92266359D01*
%TO.C,D2*%
X151750000Y-118500000D02*
X147850000Y-118500000D01*
X151750000Y-120500000D02*
X147850000Y-120500000D01*
X151750000Y-120500000D02*
X151750000Y-118500000D01*
%TO.C,R14*%
X130153641Y-92380000D02*
X129846359Y-92380000D01*
X130153641Y-91620000D02*
X129846359Y-91620000D01*
%TO.C,FB1*%
X146337122Y-105190000D02*
X145537878Y-105190000D01*
X146337122Y-106310000D02*
X145537878Y-106310000D01*
%TO.C,R3*%
X143487258Y-113522500D02*
X143012742Y-113522500D01*
X143487258Y-112477500D02*
X143012742Y-112477500D01*
%TO.C,R1*%
X143012742Y-114477500D02*
X143487258Y-114477500D01*
X143012742Y-115522500D02*
X143487258Y-115522500D01*
%TD*%
M02*
