%TF.GenerationSoftware,KiCad,Pcbnew,(6.0.6)*%
%TF.CreationDate,2023-01-10T19:01:40-05:00*%
%TF.ProjectId,STM32F4_REV1,53544d33-3246-4345-9f52-4556312e6b69,rev?*%
%TF.SameCoordinates,Original*%
%TF.FileFunction,Copper,L2,Inr*%
%TF.FilePolarity,Positive*%
%FSLAX46Y46*%
G04 Gerber Fmt 4.6, Leading zero omitted, Abs format (unit mm)*
G04 Created by KiCad (PCBNEW (6.0.6)) date 2023-01-10 19:01:40*
%MOMM*%
%LPD*%
G01*
G04 APERTURE LIST*
G04 Aperture macros list*
%AMRoundRect*
0 Rectangle with rounded corners*
0 $1 Rounding radius*
0 $2 $3 $4 $5 $6 $7 $8 $9 X,Y pos of 4 corners*
0 Add a 4 corners polygon primitive as box body*
4,1,4,$2,$3,$4,$5,$6,$7,$8,$9,$2,$3,0*
0 Add four circle primitives for the rounded corners*
1,1,$1+$1,$2,$3*
1,1,$1+$1,$4,$5*
1,1,$1+$1,$6,$7*
1,1,$1+$1,$8,$9*
0 Add four rect primitives between the rounded corners*
20,1,$1+$1,$2,$3,$4,$5,0*
20,1,$1+$1,$4,$5,$6,$7,0*
20,1,$1+$1,$6,$7,$8,$9,0*
20,1,$1+$1,$8,$9,$2,$3,0*%
G04 Aperture macros list end*
%TA.AperFunction,ComponentPad*%
%ADD10RoundRect,0.200000X-0.200000X-0.450000X0.200000X-0.450000X0.200000X0.450000X-0.200000X0.450000X0*%
%TD*%
%TA.AperFunction,ComponentPad*%
%ADD11O,0.800000X1.300000*%
%TD*%
%TA.AperFunction,ComponentPad*%
%ADD12RoundRect,0.200000X0.200000X0.450000X-0.200000X0.450000X-0.200000X-0.450000X0.200000X-0.450000X0*%
%TD*%
%TA.AperFunction,ComponentPad*%
%ADD13C,0.900000*%
%TD*%
%TA.AperFunction,ComponentPad*%
%ADD14C,8.600000*%
%TD*%
%TA.AperFunction,ComponentPad*%
%ADD15R,2.400000X2.400000*%
%TD*%
%TA.AperFunction,ComponentPad*%
%ADD16C,2.400000*%
%TD*%
%TA.AperFunction,ComponentPad*%
%ADD17O,1.700000X1.350000*%
%TD*%
%TA.AperFunction,ComponentPad*%
%ADD18O,1.500000X1.100000*%
%TD*%
%TA.AperFunction,ViaPad*%
%ADD19C,0.800000*%
%TD*%
G04 APERTURE END LIST*
D10*
%TO.N,+3V3*%
%TO.C,J3*%
X132125000Y-123300000D03*
D11*
%TO.N,USART3_TX*%
X133375000Y-123300000D03*
%TO.N,USART3_RX*%
X134625000Y-123300000D03*
%TO.N,GND*%
X135875000Y-123300000D03*
%TD*%
D12*
%TO.N,+3V3*%
%TO.C,J4*%
X135125000Y-88700000D03*
D11*
%TO.N,I2C1_SCL*%
X133875000Y-88700000D03*
%TO.N,I2C1_SDA*%
X132625000Y-88700000D03*
%TO.N,GND*%
X131375000Y-88700000D03*
%TD*%
D13*
%TO.N,GND*%
%TO.C,H3*%
X120719581Y-121969581D03*
X120719581Y-126530419D03*
X125280419Y-121969581D03*
X125280419Y-126530419D03*
D14*
X123000000Y-124250000D03*
D13*
X126225000Y-124250000D03*
X123000000Y-127475000D03*
X119775000Y-124250000D03*
X123000000Y-121025000D03*
%TD*%
%TO.N,GND*%
%TO.C,H4*%
X123000000Y-85025000D03*
X125280419Y-85969581D03*
X125280419Y-90530419D03*
X126225000Y-88250000D03*
X119775000Y-88250000D03*
X123000000Y-91475000D03*
X120719581Y-90530419D03*
X120719581Y-85969581D03*
D14*
X123000000Y-88250000D03*
%TD*%
D15*
%TO.N,GND*%
%TO.C,J1*%
X158280000Y-115200000D03*
D16*
%TO.N,+12V*%
X158280000Y-111700000D03*
%TD*%
D17*
%TO.N,unconnected-(J5-Pad6)*%
%TO.C,J5*%
X161375000Y-101275000D03*
X161375000Y-95815000D03*
D18*
X158375000Y-96125000D03*
X158375000Y-100965000D03*
%TD*%
D14*
%TO.N,GND*%
%TO.C,H1*%
X157750000Y-88250000D03*
D13*
X154525000Y-88250000D03*
X155469581Y-85969581D03*
X160975000Y-88250000D03*
X155469581Y-90530419D03*
X157750000Y-91475000D03*
X160030419Y-85969581D03*
X160030419Y-90530419D03*
X157750000Y-85025000D03*
%TD*%
%TO.N,GND*%
%TO.C,H2*%
X160975000Y-124250000D03*
X155469581Y-121969581D03*
D14*
X157750000Y-124250000D03*
D13*
X160030419Y-121969581D03*
X155469581Y-126530419D03*
X154525000Y-124250000D03*
X160030419Y-126530419D03*
X157750000Y-121025000D03*
X157750000Y-127475000D03*
%TD*%
D19*
%TO.N,GND*%
X143400000Y-95800000D03*
X143017341Y-91028381D03*
X144890000Y-111060000D03*
X157220000Y-97230000D03*
X147280000Y-86650000D03*
X123170000Y-96510000D03*
X143940000Y-116180000D03*
X130520000Y-109470000D03*
X157050000Y-104570000D03*
X153960000Y-96510000D03*
X155410000Y-96520000D03*
X142680000Y-85050000D03*
X130740000Y-96720000D03*
X135890000Y-121920000D03*
X140650000Y-109270000D03*
X154730000Y-114040000D03*
X124620000Y-95310000D03*
X146870000Y-114740000D03*
X122370000Y-105430000D03*
X124900000Y-115970000D03*
X148400000Y-108590000D03*
X156490000Y-96520000D03*
X124280000Y-102530000D03*
X128300000Y-94360000D03*
X143970000Y-121560000D03*
X147820000Y-120510000D03*
X120780000Y-103220000D03*
%TO.N,+3V3*%
X140930000Y-96340000D03*
X145420000Y-91910000D03*
X132030000Y-109280000D03*
X123530000Y-112040000D03*
X124620000Y-97240000D03*
X145590000Y-122980000D03*
X140040000Y-120230000D03*
X148320000Y-124970000D03*
X137010000Y-90790000D03*
X141500000Y-90800000D03*
X121000000Y-105200000D03*
X148310000Y-123030000D03*
X149330000Y-85030000D03*
X132080000Y-121920000D03*
X129520000Y-94220000D03*
X131730000Y-91270000D03*
X141610000Y-114970000D03*
X145590000Y-124980000D03*
X128840000Y-95640000D03*
X135000000Y-91270000D03*
X146860000Y-116750000D03*
X138940000Y-106270000D03*
X140030000Y-117460000D03*
X123530000Y-109960000D03*
%TO.N,Net-(J2-Pad6)*%
X140020000Y-88110000D03*
X140010000Y-90520000D03*
%TO.N,BUCK_FB*%
X155250000Y-113000000D03*
X145500000Y-113000000D03*
%TO.N,NRST*%
X136000000Y-92500000D03*
X134000000Y-100250000D03*
%TD*%
%TA.AperFunction,Conductor*%
%TO.N,GND*%
G36*
X156998272Y-83278502D02*
G01*
X157044765Y-83332158D01*
X157054869Y-83402432D01*
X157025375Y-83467012D01*
X156965649Y-83505396D01*
X156950838Y-83508790D01*
X156752128Y-83541864D01*
X156746631Y-83543032D01*
X156337547Y-83649209D01*
X156332181Y-83650861D01*
X155934153Y-83792983D01*
X155928965Y-83795100D01*
X155545133Y-83972050D01*
X155540164Y-83974614D01*
X155173581Y-84184984D01*
X155168848Y-84187987D01*
X154822420Y-84430109D01*
X154817979Y-84433517D01*
X154494443Y-84705477D01*
X154490325Y-84709263D01*
X154474544Y-84725127D01*
X154412321Y-84759315D01*
X154341492Y-84754435D01*
X154284545Y-84712037D01*
X154263949Y-84670471D01*
X154246805Y-84609685D01*
X154233746Y-84583202D01*
X154161205Y-84436104D01*
X154158650Y-84430923D01*
X154039393Y-84271219D01*
X153893030Y-84135922D01*
X153888147Y-84132841D01*
X153888143Y-84132838D01*
X153729346Y-84032645D01*
X153729341Y-84032643D01*
X153724462Y-84029564D01*
X153539334Y-83955705D01*
X153343847Y-83916820D01*
X153338072Y-83916744D01*
X153338068Y-83916744D01*
X153238588Y-83915442D01*
X153144547Y-83914211D01*
X153138850Y-83915190D01*
X153138849Y-83915190D01*
X153122805Y-83917947D01*
X152948108Y-83947966D01*
X152761111Y-84016953D01*
X152756149Y-84019905D01*
X152645184Y-84085922D01*
X152589816Y-84118862D01*
X152439961Y-84250281D01*
X152316565Y-84406809D01*
X152223760Y-84583202D01*
X152202174Y-84652721D01*
X152170591Y-84754435D01*
X152164654Y-84773554D01*
X152141227Y-84971489D01*
X152143096Y-85000000D01*
X152154263Y-85170380D01*
X152155684Y-85175976D01*
X152155685Y-85175981D01*
X152190627Y-85313564D01*
X152203326Y-85363564D01*
X152205743Y-85368807D01*
X152240345Y-85443865D01*
X152286772Y-85544573D01*
X152290105Y-85549289D01*
X152366471Y-85657344D01*
X152401807Y-85707344D01*
X152405949Y-85711379D01*
X152466272Y-85770143D01*
X152544578Y-85846425D01*
X152710304Y-85957160D01*
X152715607Y-85959438D01*
X152715610Y-85959440D01*
X152876476Y-86028553D01*
X152893435Y-86035839D01*
X152965516Y-86052149D01*
X153082201Y-86078553D01*
X153082207Y-86078554D01*
X153087838Y-86079828D01*
X153093609Y-86080055D01*
X153093611Y-86080055D01*
X153261180Y-86086639D01*
X153328463Y-86109300D01*
X153372813Y-86164740D01*
X153380150Y-86235356D01*
X153370934Y-86264693D01*
X153285629Y-86452312D01*
X153283538Y-86457511D01*
X153143498Y-86856290D01*
X153141877Y-86861659D01*
X153037840Y-87271303D01*
X153036706Y-87276776D01*
X152969496Y-87694054D01*
X152968851Y-87699632D01*
X152939002Y-88121204D01*
X152938855Y-88126825D01*
X152946600Y-88549410D01*
X152946950Y-88554976D01*
X152992231Y-88975208D01*
X152993078Y-88980746D01*
X153075535Y-89395286D01*
X153076864Y-89400698D01*
X153195852Y-89806289D01*
X153197658Y-89811564D01*
X153352219Y-90204948D01*
X153354501Y-90210072D01*
X153543416Y-90588150D01*
X153546140Y-90593043D01*
X153767917Y-90952833D01*
X153771068Y-90957469D01*
X154023955Y-91296127D01*
X154027488Y-91300444D01*
X154082371Y-91361719D01*
X154095866Y-91370082D01*
X154105277Y-91364393D01*
X157660905Y-87808765D01*
X157723217Y-87774739D01*
X157794032Y-87779804D01*
X157839095Y-87808765D01*
X161392094Y-91361764D01*
X161405855Y-91369278D01*
X161415215Y-91362820D01*
X161504244Y-91261303D01*
X161507744Y-91256935D01*
X161757073Y-90915645D01*
X161760168Y-90910987D01*
X161978160Y-90548903D01*
X161980841Y-90543964D01*
X162165779Y-90163946D01*
X162168014Y-90158780D01*
X162318442Y-89763815D01*
X162320201Y-89758496D01*
X162434920Y-89351730D01*
X162436204Y-89346259D01*
X162491670Y-89051301D01*
X162523917Y-88988050D01*
X162585241Y-88952274D01*
X162656172Y-88955332D01*
X162714189Y-88996252D01*
X162740874Y-89062043D01*
X162741500Y-89074587D01*
X162741500Y-95045955D01*
X162721498Y-95114076D01*
X162667842Y-95160569D01*
X162597568Y-95170673D01*
X162532988Y-95141179D01*
X162514060Y-95120557D01*
X162511573Y-95116376D01*
X162368158Y-94952842D01*
X162299690Y-94898866D01*
X162201876Y-94821755D01*
X162201874Y-94821753D01*
X162197342Y-94818181D01*
X162004846Y-94716905D01*
X161956406Y-94701864D01*
X161802639Y-94654117D01*
X161802636Y-94654116D01*
X161797118Y-94652403D01*
X161782833Y-94650712D01*
X161624197Y-94631936D01*
X161624190Y-94631936D01*
X161620510Y-94631500D01*
X161144824Y-94631500D01*
X160983400Y-94646333D01*
X160977838Y-94647902D01*
X160977836Y-94647902D01*
X160878728Y-94675853D01*
X160774055Y-94705374D01*
X160578974Y-94801577D01*
X160574348Y-94805031D01*
X160574347Y-94805032D01*
X160448688Y-94898866D01*
X160404691Y-94931720D01*
X160400777Y-94935954D01*
X160400775Y-94935956D01*
X160261976Y-95086109D01*
X160257044Y-95091444D01*
X160140976Y-95275401D01*
X160060376Y-95477428D01*
X160017941Y-95690761D01*
X160015094Y-95908254D01*
X160016073Y-95913951D01*
X160016073Y-95913952D01*
X160026517Y-95974729D01*
X160051930Y-96122625D01*
X160127214Y-96326693D01*
X160238427Y-96513624D01*
X160381842Y-96677158D01*
X160386373Y-96680730D01*
X160441918Y-96724518D01*
X160552658Y-96811819D01*
X160745154Y-96913095D01*
X160787342Y-96926195D01*
X160947361Y-96975883D01*
X160947364Y-96975884D01*
X160952882Y-96977597D01*
X160958619Y-96978276D01*
X161125803Y-96998064D01*
X161125810Y-96998064D01*
X161129490Y-96998500D01*
X161605176Y-96998500D01*
X161766600Y-96983667D01*
X161772162Y-96982098D01*
X161772164Y-96982098D01*
X161871272Y-96954147D01*
X161975945Y-96924626D01*
X162171026Y-96828423D01*
X162326667Y-96712201D01*
X162340685Y-96701733D01*
X162340686Y-96701732D01*
X162345309Y-96698280D01*
X162454220Y-96580461D01*
X162489037Y-96542796D01*
X162489039Y-96542793D01*
X162492956Y-96538556D01*
X162508938Y-96513226D01*
X162562205Y-96466287D01*
X162632392Y-96455598D01*
X162697216Y-96484552D01*
X162736096Y-96543957D01*
X162741500Y-96580461D01*
X162741500Y-100505955D01*
X162721498Y-100574076D01*
X162667842Y-100620569D01*
X162597568Y-100630673D01*
X162532988Y-100601179D01*
X162514060Y-100580557D01*
X162511573Y-100576376D01*
X162368158Y-100412842D01*
X162314105Y-100370230D01*
X162201876Y-100281755D01*
X162201874Y-100281753D01*
X162197342Y-100278181D01*
X162004846Y-100176905D01*
X161956406Y-100161864D01*
X161802639Y-100114117D01*
X161802636Y-100114116D01*
X161797118Y-100112403D01*
X161782833Y-100110712D01*
X161624197Y-100091936D01*
X161624190Y-100091936D01*
X161620510Y-100091500D01*
X161144824Y-100091500D01*
X160983400Y-100106333D01*
X160977838Y-100107902D01*
X160977836Y-100107902D01*
X160878728Y-100135853D01*
X160774055Y-100165374D01*
X160578974Y-100261577D01*
X160574348Y-100265031D01*
X160574347Y-100265032D01*
X160416904Y-100382600D01*
X160404691Y-100391720D01*
X160400777Y-100395954D01*
X160400775Y-100395956D01*
X160299094Y-100505955D01*
X160257044Y-100551444D01*
X160140976Y-100735401D01*
X160060376Y-100937428D01*
X160017941Y-101150761D01*
X160017865Y-101156536D01*
X160017865Y-101156540D01*
X160017686Y-101170213D01*
X160015094Y-101368254D01*
X160016073Y-101373951D01*
X160016073Y-101373952D01*
X160048819Y-101564518D01*
X160051930Y-101582625D01*
X160127214Y-101786693D01*
X160160481Y-101842609D01*
X160224463Y-101950152D01*
X160238427Y-101973624D01*
X160381842Y-102137158D01*
X160552658Y-102271819D01*
X160745154Y-102373095D01*
X160787342Y-102386195D01*
X160947361Y-102435883D01*
X160947364Y-102435884D01*
X160952882Y-102437597D01*
X160958619Y-102438276D01*
X161125803Y-102458064D01*
X161125810Y-102458064D01*
X161129490Y-102458500D01*
X161605176Y-102458500D01*
X161766600Y-102443667D01*
X161772162Y-102442098D01*
X161772164Y-102442098D01*
X161871273Y-102414146D01*
X161975945Y-102384626D01*
X162171026Y-102288423D01*
X162345309Y-102158280D01*
X162469898Y-102023500D01*
X162489037Y-102002796D01*
X162489039Y-102002793D01*
X162492956Y-101998556D01*
X162508938Y-101973226D01*
X162562205Y-101926287D01*
X162632392Y-101915598D01*
X162697216Y-101944552D01*
X162736096Y-102003957D01*
X162741500Y-102040461D01*
X162741500Y-123409527D01*
X162721498Y-123477648D01*
X162667842Y-123524141D01*
X162597568Y-123534245D01*
X162532988Y-123504751D01*
X162494604Y-123445025D01*
X162490621Y-123426300D01*
X162487155Y-123400498D01*
X162486162Y-123394976D01*
X162392883Y-122982748D01*
X162391410Y-122977361D01*
X162261847Y-122575025D01*
X162259910Y-122569815D01*
X162095098Y-122180599D01*
X162092683Y-122175536D01*
X161893936Y-121802535D01*
X161891085Y-121797713D01*
X161659974Y-121443865D01*
X161656692Y-121439297D01*
X161418554Y-121137220D01*
X161406629Y-121128749D01*
X161395095Y-121135235D01*
X154635209Y-127895121D01*
X154627595Y-127909065D01*
X154627644Y-127909755D01*
X154631209Y-127915100D01*
X154959802Y-128171363D01*
X154964359Y-128174602D01*
X155319448Y-128403880D01*
X155324250Y-128406686D01*
X155698316Y-128603491D01*
X155703374Y-128605871D01*
X156093435Y-128768638D01*
X156098690Y-128770561D01*
X156501676Y-128898008D01*
X156507075Y-128899455D01*
X156919799Y-128990576D01*
X156924390Y-128991377D01*
X156988057Y-129022794D01*
X157024631Y-129083645D01*
X157022501Y-129154610D01*
X156982342Y-129213157D01*
X156916905Y-129240699D01*
X156902724Y-129241500D01*
X123833941Y-129241500D01*
X123765820Y-129221498D01*
X123719327Y-129167842D01*
X123709223Y-129097568D01*
X123738717Y-129032988D01*
X123798443Y-128994604D01*
X123816514Y-128990711D01*
X123874305Y-128982640D01*
X123879792Y-128981623D01*
X124291543Y-128886185D01*
X124296929Y-128884681D01*
X124698567Y-128753018D01*
X124703784Y-128751046D01*
X125092126Y-128584202D01*
X125097169Y-128581764D01*
X125469131Y-128381063D01*
X125473935Y-128378188D01*
X125826563Y-128145231D01*
X125831126Y-128141916D01*
X126112173Y-127917961D01*
X126120643Y-127905904D01*
X126114216Y-127894546D01*
X122470802Y-124251132D01*
X123535528Y-124251132D01*
X123535659Y-124252965D01*
X123539910Y-124259580D01*
X126642094Y-127361764D01*
X126655855Y-127369278D01*
X126665215Y-127362820D01*
X126754244Y-127261303D01*
X126757744Y-127256935D01*
X127007073Y-126915645D01*
X127010168Y-126910987D01*
X127228160Y-126548903D01*
X127230841Y-126543964D01*
X127415779Y-126163946D01*
X127418014Y-126158780D01*
X127568442Y-125763815D01*
X127570201Y-125758496D01*
X127589099Y-125691489D01*
X141331227Y-125691489D01*
X141333096Y-125720000D01*
X141344263Y-125890380D01*
X141393326Y-126083564D01*
X141395743Y-126088807D01*
X141472388Y-126255063D01*
X141476772Y-126264573D01*
X141591807Y-126427344D01*
X141734578Y-126566425D01*
X141900304Y-126677160D01*
X141905607Y-126679438D01*
X141905610Y-126679440D01*
X142078128Y-126753559D01*
X142083435Y-126755839D01*
X142155516Y-126772149D01*
X142272201Y-126798553D01*
X142272207Y-126798554D01*
X142277838Y-126799828D01*
X142283609Y-126800055D01*
X142283611Y-126800055D01*
X142344556Y-126802449D01*
X142477001Y-126807653D01*
X142576959Y-126793160D01*
X142668535Y-126779883D01*
X142668540Y-126779882D01*
X142674256Y-126779053D01*
X142679728Y-126777195D01*
X142679730Y-126777195D01*
X142857532Y-126716839D01*
X142857534Y-126716838D01*
X142862996Y-126714984D01*
X143036899Y-126617594D01*
X143190143Y-126490143D01*
X143317594Y-126336899D01*
X143414984Y-126162996D01*
X143430709Y-126116674D01*
X143477195Y-125979730D01*
X143477195Y-125979728D01*
X143479053Y-125974256D01*
X143479882Y-125968540D01*
X143479883Y-125968535D01*
X143502642Y-125811564D01*
X143507653Y-125777001D01*
X143509146Y-125720000D01*
X143490908Y-125521519D01*
X143486798Y-125506944D01*
X143438373Y-125335244D01*
X143438372Y-125335242D01*
X143436805Y-125329685D01*
X143423746Y-125303202D01*
X143351205Y-125156104D01*
X143348650Y-125150923D01*
X143229393Y-124991219D01*
X143217256Y-124980000D01*
X144676496Y-124980000D01*
X144677186Y-124986565D01*
X144694461Y-125150923D01*
X144696458Y-125169928D01*
X144755473Y-125351556D01*
X144850960Y-125516944D01*
X144855378Y-125521851D01*
X144855379Y-125521852D01*
X144974131Y-125653739D01*
X144978747Y-125658866D01*
X145077843Y-125730864D01*
X145114143Y-125757237D01*
X145133248Y-125771118D01*
X145139276Y-125773802D01*
X145139278Y-125773803D01*
X145288333Y-125840166D01*
X145307712Y-125848794D01*
X145401113Y-125868647D01*
X145488056Y-125887128D01*
X145488061Y-125887128D01*
X145494513Y-125888500D01*
X145685487Y-125888500D01*
X145691939Y-125887128D01*
X145691944Y-125887128D01*
X145778887Y-125868647D01*
X145872288Y-125848794D01*
X145891667Y-125840166D01*
X146040722Y-125773803D01*
X146040724Y-125773802D01*
X146046752Y-125771118D01*
X146065858Y-125757237D01*
X146102157Y-125730864D01*
X146201253Y-125658866D01*
X146205869Y-125653739D01*
X146324621Y-125521852D01*
X146324622Y-125521851D01*
X146329040Y-125516944D01*
X146424527Y-125351556D01*
X146483542Y-125169928D01*
X146485540Y-125150923D01*
X146502814Y-124986565D01*
X146503504Y-124980000D01*
X146497760Y-124925346D01*
X146484232Y-124796635D01*
X146484232Y-124796633D01*
X146483542Y-124790072D01*
X146424527Y-124608444D01*
X146418754Y-124598444D01*
X146361723Y-124499665D01*
X146329040Y-124443056D01*
X146307195Y-124418794D01*
X146205675Y-124306045D01*
X146205674Y-124306044D01*
X146201253Y-124301134D01*
X146046752Y-124188882D01*
X146040724Y-124186198D01*
X146040722Y-124186197D01*
X145878319Y-124113891D01*
X145878318Y-124113891D01*
X145872288Y-124111206D01*
X145834844Y-124103247D01*
X145772371Y-124069518D01*
X145738049Y-124007369D01*
X145742777Y-123936530D01*
X145785053Y-123879492D01*
X145834844Y-123856753D01*
X145872288Y-123848794D01*
X145878319Y-123846109D01*
X146040722Y-123773803D01*
X146040724Y-123773802D01*
X146046752Y-123771118D01*
X146081184Y-123746102D01*
X146124718Y-123714472D01*
X146201253Y-123658866D01*
X146256408Y-123597610D01*
X146324621Y-123521852D01*
X146324622Y-123521851D01*
X146329040Y-123516944D01*
X146424527Y-123351556D01*
X146483542Y-123169928D01*
X146498249Y-123030000D01*
X147396496Y-123030000D01*
X147416458Y-123219928D01*
X147475473Y-123401556D01*
X147478776Y-123407278D01*
X147478777Y-123407279D01*
X147489759Y-123426300D01*
X147570960Y-123566944D01*
X147575378Y-123571851D01*
X147575379Y-123571852D01*
X147684475Y-123693015D01*
X147698747Y-123708866D01*
X147784429Y-123771118D01*
X147837259Y-123809501D01*
X147853248Y-123821118D01*
X147859274Y-123823801D01*
X147859281Y-123823805D01*
X148001489Y-123887119D01*
X148055585Y-123933099D01*
X148076235Y-124001026D01*
X148056883Y-124069334D01*
X148001490Y-124117333D01*
X147869278Y-124176197D01*
X147869276Y-124176198D01*
X147863248Y-124178882D01*
X147857907Y-124182762D01*
X147857906Y-124182763D01*
X147824478Y-124207050D01*
X147708747Y-124291134D01*
X147704326Y-124296044D01*
X147704325Y-124296045D01*
X147593802Y-124418794D01*
X147580960Y-124433056D01*
X147485473Y-124598444D01*
X147426458Y-124780072D01*
X147425768Y-124786633D01*
X147425768Y-124786635D01*
X147411189Y-124925346D01*
X147406496Y-124970000D01*
X147407186Y-124976565D01*
X147425512Y-125150923D01*
X147426458Y-125159928D01*
X147485473Y-125341556D01*
X147488776Y-125347278D01*
X147488777Y-125347279D01*
X147491347Y-125351730D01*
X147580960Y-125506944D01*
X147708747Y-125648866D01*
X147863248Y-125761118D01*
X147869276Y-125763802D01*
X147869278Y-125763803D01*
X147922503Y-125787500D01*
X148037712Y-125838794D01*
X148131113Y-125858647D01*
X148218056Y-125877128D01*
X148218061Y-125877128D01*
X148224513Y-125878500D01*
X148415487Y-125878500D01*
X148421939Y-125877128D01*
X148421944Y-125877128D01*
X148508887Y-125858647D01*
X148602288Y-125838794D01*
X148717497Y-125787500D01*
X148770722Y-125763803D01*
X148770724Y-125763802D01*
X148776752Y-125761118D01*
X148931253Y-125648866D01*
X149059040Y-125506944D01*
X149148653Y-125351730D01*
X149151223Y-125347279D01*
X149151224Y-125347278D01*
X149154527Y-125341556D01*
X149213542Y-125159928D01*
X149214489Y-125150923D01*
X149232814Y-124976565D01*
X149233504Y-124970000D01*
X149228811Y-124925346D01*
X149214232Y-124786635D01*
X149214232Y-124786633D01*
X149213542Y-124780072D01*
X149154527Y-124598444D01*
X149059040Y-124433056D01*
X149046199Y-124418794D01*
X148935675Y-124296045D01*
X148935674Y-124296044D01*
X148931253Y-124291134D01*
X148815522Y-124207050D01*
X148782094Y-124182763D01*
X148782093Y-124182762D01*
X148776752Y-124178882D01*
X148770726Y-124176199D01*
X148770719Y-124176195D01*
X148659830Y-124126825D01*
X152938855Y-124126825D01*
X152946600Y-124549410D01*
X152946950Y-124554976D01*
X152992231Y-124975208D01*
X152993078Y-124980746D01*
X153075535Y-125395286D01*
X153076864Y-125400698D01*
X153195852Y-125806289D01*
X153197658Y-125811564D01*
X153352219Y-126204948D01*
X153354501Y-126210072D01*
X153543416Y-126588150D01*
X153546140Y-126593043D01*
X153767917Y-126952833D01*
X153771068Y-126957469D01*
X154023955Y-127296127D01*
X154027488Y-127300444D01*
X154082371Y-127361719D01*
X154095866Y-127370082D01*
X154105277Y-127364393D01*
X157206858Y-124262812D01*
X157214472Y-124248868D01*
X157214341Y-124247035D01*
X157210090Y-124240420D01*
X154107863Y-121138193D01*
X154094555Y-121130926D01*
X154084516Y-121138048D01*
X153918223Y-121337994D01*
X153914828Y-121342467D01*
X153674528Y-121690152D01*
X153671549Y-121694902D01*
X153463106Y-122062575D01*
X153460562Y-122067568D01*
X153285629Y-122452312D01*
X153283538Y-122457511D01*
X153143498Y-122856290D01*
X153141877Y-122861659D01*
X153037840Y-123271303D01*
X153036706Y-123276776D01*
X152969496Y-123694054D01*
X152968851Y-123699632D01*
X152939002Y-124121204D01*
X152938855Y-124126825D01*
X148659830Y-124126825D01*
X148628511Y-124112881D01*
X148574415Y-124066901D01*
X148553765Y-123998974D01*
X148573117Y-123930666D01*
X148628510Y-123882667D01*
X148760722Y-123823803D01*
X148760724Y-123823802D01*
X148766752Y-123821118D01*
X148782742Y-123809501D01*
X148835571Y-123771118D01*
X148921253Y-123708866D01*
X148935525Y-123693015D01*
X149044621Y-123571852D01*
X149044622Y-123571851D01*
X149049040Y-123566944D01*
X149130241Y-123426300D01*
X149141223Y-123407279D01*
X149141224Y-123407278D01*
X149144527Y-123401556D01*
X149203542Y-123219928D01*
X149223504Y-123030000D01*
X149218249Y-122980000D01*
X149204232Y-122846635D01*
X149204232Y-122846633D01*
X149203542Y-122840072D01*
X149144527Y-122658444D01*
X149049040Y-122493056D01*
X149009169Y-122448774D01*
X148925675Y-122356045D01*
X148925674Y-122356044D01*
X148921253Y-122351134D01*
X148766752Y-122238882D01*
X148760724Y-122236198D01*
X148760722Y-122236197D01*
X148598319Y-122163891D01*
X148598318Y-122163891D01*
X148592288Y-122161206D01*
X148498888Y-122141353D01*
X148411944Y-122122872D01*
X148411939Y-122122872D01*
X148405487Y-122121500D01*
X148214513Y-122121500D01*
X148208061Y-122122872D01*
X148208056Y-122122872D01*
X148121112Y-122141353D01*
X148027712Y-122161206D01*
X148021682Y-122163891D01*
X148021681Y-122163891D01*
X147859278Y-122236197D01*
X147859276Y-122236198D01*
X147853248Y-122238882D01*
X147698747Y-122351134D01*
X147694326Y-122356044D01*
X147694325Y-122356045D01*
X147610832Y-122448774D01*
X147570960Y-122493056D01*
X147475473Y-122658444D01*
X147416458Y-122840072D01*
X147415768Y-122846633D01*
X147415768Y-122846635D01*
X147401751Y-122980000D01*
X147396496Y-123030000D01*
X146498249Y-123030000D01*
X146503504Y-122980000D01*
X146490250Y-122853898D01*
X146484232Y-122796635D01*
X146484232Y-122796633D01*
X146483542Y-122790072D01*
X146424527Y-122608444D01*
X146405233Y-122575025D01*
X146387314Y-122543990D01*
X146329040Y-122443056D01*
X146246308Y-122351172D01*
X146205675Y-122306045D01*
X146205674Y-122306044D01*
X146201253Y-122301134D01*
X146046752Y-122188882D01*
X146040724Y-122186198D01*
X146040722Y-122186197D01*
X145878319Y-122113891D01*
X145878318Y-122113891D01*
X145872288Y-122111206D01*
X145778888Y-122091353D01*
X145691944Y-122072872D01*
X145691939Y-122072872D01*
X145685487Y-122071500D01*
X145494513Y-122071500D01*
X145488061Y-122072872D01*
X145488056Y-122072872D01*
X145401112Y-122091353D01*
X145307712Y-122111206D01*
X145301682Y-122113891D01*
X145301681Y-122113891D01*
X145139278Y-122186197D01*
X145139276Y-122186198D01*
X145133248Y-122188882D01*
X144978747Y-122301134D01*
X144974326Y-122306044D01*
X144974325Y-122306045D01*
X144933693Y-122351172D01*
X144850960Y-122443056D01*
X144792686Y-122543990D01*
X144774768Y-122575025D01*
X144755473Y-122608444D01*
X144696458Y-122790072D01*
X144695768Y-122796633D01*
X144695768Y-122796635D01*
X144689750Y-122853898D01*
X144676496Y-122980000D01*
X144696458Y-123169928D01*
X144755473Y-123351556D01*
X144850960Y-123516944D01*
X144855378Y-123521851D01*
X144855379Y-123521852D01*
X144923592Y-123597610D01*
X144978747Y-123658866D01*
X145055282Y-123714472D01*
X145098817Y-123746102D01*
X145133248Y-123771118D01*
X145139276Y-123773802D01*
X145139278Y-123773803D01*
X145301681Y-123846109D01*
X145307712Y-123848794D01*
X145345156Y-123856753D01*
X145407629Y-123890482D01*
X145441951Y-123952631D01*
X145437223Y-124023470D01*
X145394947Y-124080508D01*
X145345156Y-124103247D01*
X145307712Y-124111206D01*
X145301682Y-124113891D01*
X145301681Y-124113891D01*
X145139278Y-124186197D01*
X145139276Y-124186198D01*
X145133248Y-124188882D01*
X144978747Y-124301134D01*
X144974326Y-124306044D01*
X144974325Y-124306045D01*
X144872806Y-124418794D01*
X144850960Y-124443056D01*
X144818277Y-124499665D01*
X144761247Y-124598444D01*
X144755473Y-124608444D01*
X144696458Y-124790072D01*
X144695768Y-124796633D01*
X144695768Y-124796635D01*
X144682240Y-124925346D01*
X144676496Y-124980000D01*
X143217256Y-124980000D01*
X143083030Y-124855922D01*
X143078147Y-124852841D01*
X143078143Y-124852838D01*
X142919346Y-124752645D01*
X142919341Y-124752643D01*
X142914462Y-124749564D01*
X142729334Y-124675705D01*
X142533847Y-124636820D01*
X142528072Y-124636744D01*
X142528068Y-124636744D01*
X142428588Y-124635442D01*
X142334547Y-124634211D01*
X142328850Y-124635190D01*
X142328849Y-124635190D01*
X142169685Y-124662540D01*
X142138108Y-124667966D01*
X141951111Y-124736953D01*
X141779816Y-124838862D01*
X141629961Y-124970281D01*
X141506565Y-125126809D01*
X141413760Y-125303202D01*
X141354654Y-125493554D01*
X141331227Y-125691489D01*
X127589099Y-125691489D01*
X127684920Y-125351730D01*
X127686204Y-125346259D01*
X127764315Y-124930883D01*
X127765102Y-124925346D01*
X127806035Y-124504102D01*
X127806308Y-124499665D01*
X127812788Y-124252233D01*
X127812746Y-124247762D01*
X127793917Y-123824973D01*
X127793419Y-123819386D01*
X127737155Y-123400499D01*
X127736162Y-123394976D01*
X127642883Y-122982748D01*
X127641410Y-122977361D01*
X127511847Y-122575025D01*
X127509910Y-122569815D01*
X127345098Y-122180599D01*
X127342683Y-122175536D01*
X127206525Y-121920000D01*
X131166496Y-121920000D01*
X131186458Y-122109928D01*
X131245473Y-122291556D01*
X131248776Y-122297278D01*
X131248777Y-122297279D01*
X131300647Y-122387120D01*
X131317385Y-122456115D01*
X131299304Y-122515390D01*
X131274528Y-122556301D01*
X131223247Y-122719938D01*
X131216500Y-122793365D01*
X131216501Y-123806634D01*
X131216764Y-123809492D01*
X131216764Y-123809501D01*
X131218186Y-123824973D01*
X131223247Y-123880062D01*
X131225246Y-123886440D01*
X131225246Y-123886441D01*
X131268189Y-124023470D01*
X131274528Y-124043699D01*
X131363361Y-124190381D01*
X131484619Y-124311639D01*
X131631301Y-124400472D01*
X131638548Y-124402743D01*
X131638550Y-124402744D01*
X131681198Y-124416109D01*
X131794938Y-124451753D01*
X131868365Y-124458500D01*
X131871263Y-124458500D01*
X132125665Y-124458499D01*
X132381634Y-124458499D01*
X132384492Y-124458236D01*
X132384501Y-124458236D01*
X132420004Y-124454974D01*
X132455062Y-124451753D01*
X132496478Y-124438774D01*
X132611450Y-124402744D01*
X132611452Y-124402743D01*
X132618699Y-124400472D01*
X132755018Y-124317915D01*
X132823648Y-124299736D01*
X132894350Y-124323755D01*
X132912308Y-124336802D01*
X132918248Y-124341118D01*
X132924276Y-124343802D01*
X132924278Y-124343803D01*
X133056663Y-124402744D01*
X133092712Y-124418794D01*
X133183765Y-124438148D01*
X133273056Y-124457128D01*
X133273061Y-124457128D01*
X133279513Y-124458500D01*
X133470487Y-124458500D01*
X133476939Y-124457128D01*
X133476944Y-124457128D01*
X133566235Y-124438148D01*
X133657288Y-124418794D01*
X133693337Y-124402744D01*
X133825722Y-124343803D01*
X133825724Y-124343802D01*
X133831752Y-124341118D01*
X133837693Y-124336802D01*
X133925939Y-124272687D01*
X133992807Y-124248828D01*
X134061958Y-124264909D01*
X134074061Y-124272687D01*
X134162308Y-124336802D01*
X134168248Y-124341118D01*
X134174276Y-124343802D01*
X134174278Y-124343803D01*
X134306663Y-124402744D01*
X134342712Y-124418794D01*
X134433765Y-124438148D01*
X134523056Y-124457128D01*
X134523061Y-124457128D01*
X134529513Y-124458500D01*
X134720487Y-124458500D01*
X134726939Y-124457128D01*
X134726944Y-124457128D01*
X134816235Y-124438148D01*
X134907288Y-124418794D01*
X134943337Y-124402744D01*
X135075722Y-124343803D01*
X135075724Y-124343802D01*
X135081752Y-124341118D01*
X135176366Y-124272377D01*
X135243230Y-124248520D01*
X135312382Y-124264600D01*
X135324485Y-124272378D01*
X135413157Y-124336802D01*
X135424529Y-124343368D01*
X135483450Y-124369601D01*
X135497427Y-124371475D01*
X135500000Y-124367387D01*
X135500000Y-124358855D01*
X136250000Y-124358855D01*
X136253973Y-124372386D01*
X136258753Y-124373073D01*
X136325471Y-124343368D01*
X136336843Y-124336802D01*
X136480574Y-124232376D01*
X136490337Y-124223585D01*
X136609214Y-124091558D01*
X136616938Y-124080927D01*
X136705765Y-123927074D01*
X136711111Y-123915066D01*
X136766011Y-123746102D01*
X136768741Y-123733261D01*
X136772971Y-123693015D01*
X136770291Y-123678364D01*
X136757971Y-123675000D01*
X136268115Y-123675000D01*
X136252876Y-123679475D01*
X136251671Y-123680865D01*
X136250000Y-123688548D01*
X136250000Y-124358855D01*
X135500000Y-124358855D01*
X135500000Y-123816950D01*
X135506167Y-123778014D01*
X135516502Y-123746206D01*
X135518542Y-123739928D01*
X135521218Y-123714472D01*
X135533156Y-123600880D01*
X135533500Y-123597610D01*
X135533500Y-123002390D01*
X135523462Y-122906885D01*
X136250000Y-122906885D01*
X136254475Y-122922124D01*
X136255865Y-122923329D01*
X136263548Y-122925000D01*
X136756749Y-122925000D01*
X136771041Y-122920803D01*
X136773099Y-122908202D01*
X136768741Y-122866739D01*
X136766011Y-122853898D01*
X136711111Y-122684934D01*
X136705765Y-122672926D01*
X136616938Y-122519073D01*
X136609214Y-122508442D01*
X136490337Y-122376415D01*
X136480574Y-122367624D01*
X136336843Y-122263198D01*
X136325471Y-122256632D01*
X136266550Y-122230399D01*
X136252573Y-122228525D01*
X136250000Y-122232613D01*
X136250000Y-122906885D01*
X135523462Y-122906885D01*
X135518542Y-122860072D01*
X135506167Y-122821986D01*
X135500000Y-122783050D01*
X135500000Y-122241145D01*
X135496027Y-122227614D01*
X135491247Y-122226927D01*
X135424529Y-122256632D01*
X135413157Y-122263198D01*
X135324485Y-122327622D01*
X135257617Y-122351481D01*
X135188466Y-122335400D01*
X135176380Y-122327634D01*
X135081752Y-122258882D01*
X135075724Y-122256198D01*
X135075722Y-122256197D01*
X134913319Y-122183891D01*
X134913318Y-122183891D01*
X134907288Y-122181206D01*
X134806741Y-122159834D01*
X134726944Y-122142872D01*
X134726939Y-122142872D01*
X134720487Y-122141500D01*
X134529513Y-122141500D01*
X134523061Y-122142872D01*
X134523056Y-122142872D01*
X134443259Y-122159834D01*
X134342712Y-122181206D01*
X134336682Y-122183891D01*
X134336681Y-122183891D01*
X134174278Y-122256197D01*
X134174276Y-122256198D01*
X134168248Y-122258882D01*
X134162907Y-122262762D01*
X134162906Y-122262763D01*
X134074061Y-122327313D01*
X134007193Y-122351172D01*
X133938042Y-122335091D01*
X133925939Y-122327313D01*
X133837094Y-122262763D01*
X133837093Y-122262762D01*
X133831752Y-122258882D01*
X133825724Y-122256198D01*
X133825722Y-122256197D01*
X133663319Y-122183891D01*
X133663318Y-122183891D01*
X133657288Y-122181206D01*
X133556741Y-122159834D01*
X133476944Y-122142872D01*
X133476939Y-122142872D01*
X133470487Y-122141500D01*
X133279513Y-122141500D01*
X133273061Y-122142872D01*
X133273056Y-122142872D01*
X133132791Y-122172687D01*
X133062000Y-122167285D01*
X133005368Y-122124468D01*
X132980874Y-122057831D01*
X132981284Y-122036270D01*
X132992814Y-121926565D01*
X132993504Y-121920000D01*
X132973542Y-121730072D01*
X132914527Y-121548444D01*
X132819040Y-121383056D01*
X132691253Y-121241134D01*
X132549990Y-121138500D01*
X132542094Y-121132763D01*
X132542093Y-121132762D01*
X132536752Y-121128882D01*
X132530724Y-121126198D01*
X132530722Y-121126197D01*
X132368319Y-121053891D01*
X132368318Y-121053891D01*
X132362288Y-121051206D01*
X132268888Y-121031353D01*
X132181944Y-121012872D01*
X132181939Y-121012872D01*
X132175487Y-121011500D01*
X131984513Y-121011500D01*
X131978061Y-121012872D01*
X131978056Y-121012872D01*
X131891112Y-121031353D01*
X131797712Y-121051206D01*
X131791682Y-121053891D01*
X131791681Y-121053891D01*
X131629278Y-121126197D01*
X131629276Y-121126198D01*
X131623248Y-121128882D01*
X131617907Y-121132762D01*
X131617906Y-121132763D01*
X131610010Y-121138500D01*
X131468747Y-121241134D01*
X131340960Y-121383056D01*
X131245473Y-121548444D01*
X131186458Y-121730072D01*
X131166496Y-121920000D01*
X127206525Y-121920000D01*
X127143936Y-121802535D01*
X127141085Y-121797713D01*
X126909974Y-121443865D01*
X126906692Y-121439297D01*
X126668554Y-121137220D01*
X126656629Y-121128749D01*
X126645095Y-121135235D01*
X123543142Y-124237188D01*
X123535528Y-124251132D01*
X122470802Y-124251132D01*
X119357863Y-121138193D01*
X119344555Y-121130926D01*
X119334516Y-121138048D01*
X119168223Y-121337994D01*
X119164828Y-121342467D01*
X118924528Y-121690152D01*
X118921549Y-121694902D01*
X118713106Y-122062575D01*
X118710562Y-122067568D01*
X118535629Y-122452312D01*
X118533538Y-122457511D01*
X118393498Y-122856290D01*
X118391877Y-122861659D01*
X118287840Y-123271303D01*
X118286707Y-123276773D01*
X118264435Y-123415048D01*
X118233854Y-123479121D01*
X118173488Y-123516490D01*
X118102502Y-123515290D01*
X118043433Y-123475902D01*
X118015035Y-123410833D01*
X118014038Y-123395031D01*
X118014033Y-123357279D01*
X118013598Y-120596306D01*
X119881001Y-120596306D01*
X119887108Y-120606778D01*
X122987188Y-123706858D01*
X123001132Y-123714472D01*
X123002965Y-123714341D01*
X123009580Y-123710090D01*
X126112036Y-120607634D01*
X126119599Y-120593784D01*
X126113272Y-120584562D01*
X126030922Y-120511577D01*
X126026560Y-120508045D01*
X125686600Y-120256948D01*
X125681947Y-120253821D01*
X125320995Y-120033926D01*
X125316094Y-120031232D01*
X124937027Y-119844297D01*
X124931904Y-119842048D01*
X124537707Y-119689545D01*
X124532417Y-119687765D01*
X124126218Y-119570904D01*
X124120794Y-119569602D01*
X123705822Y-119489316D01*
X123700293Y-119488500D01*
X123279828Y-119445420D01*
X123274247Y-119445098D01*
X122851635Y-119439566D01*
X122846024Y-119439742D01*
X122424593Y-119471800D01*
X122419036Y-119472472D01*
X122002128Y-119541864D01*
X121996631Y-119543032D01*
X121587547Y-119649209D01*
X121582181Y-119650861D01*
X121184153Y-119792983D01*
X121178965Y-119795100D01*
X120795133Y-119972050D01*
X120790164Y-119974614D01*
X120423581Y-120184984D01*
X120418848Y-120187987D01*
X120072420Y-120430109D01*
X120067979Y-120433517D01*
X119889445Y-120583589D01*
X119881001Y-120596306D01*
X118013598Y-120596306D01*
X118013414Y-119431489D01*
X127631227Y-119431489D01*
X127631605Y-119437255D01*
X127633096Y-119459999D01*
X127633096Y-119460000D01*
X127640280Y-119569602D01*
X127644263Y-119630380D01*
X127645684Y-119635976D01*
X127645685Y-119635981D01*
X127661633Y-119698774D01*
X127693326Y-119823564D01*
X127695743Y-119828807D01*
X127732265Y-119908029D01*
X127776772Y-120004573D01*
X127891807Y-120167344D01*
X127895949Y-120171379D01*
X127980578Y-120253821D01*
X128034578Y-120306425D01*
X128200304Y-120417160D01*
X128205607Y-120419438D01*
X128205610Y-120419440D01*
X128378128Y-120493559D01*
X128383435Y-120495839D01*
X128437378Y-120508045D01*
X128572201Y-120538553D01*
X128572207Y-120538554D01*
X128577838Y-120539828D01*
X128583609Y-120540055D01*
X128583611Y-120540055D01*
X128644556Y-120542449D01*
X128777001Y-120547653D01*
X128876959Y-120533160D01*
X128968535Y-120519883D01*
X128968540Y-120519882D01*
X128974256Y-120519053D01*
X128979728Y-120517195D01*
X128979730Y-120517195D01*
X129157532Y-120456839D01*
X129157534Y-120456838D01*
X129162996Y-120454984D01*
X129336899Y-120357594D01*
X129490143Y-120230143D01*
X129490262Y-120230000D01*
X139126496Y-120230000D01*
X139127186Y-120236565D01*
X139139907Y-120357594D01*
X139146458Y-120419928D01*
X139205473Y-120601556D01*
X139300960Y-120766944D01*
X139428747Y-120908866D01*
X139583248Y-121021118D01*
X139589276Y-121023802D01*
X139589278Y-121023803D01*
X139751681Y-121096109D01*
X139757712Y-121098794D01*
X139851112Y-121118647D01*
X139938056Y-121137128D01*
X139938061Y-121137128D01*
X139944513Y-121138500D01*
X140135487Y-121138500D01*
X140141939Y-121137128D01*
X140141944Y-121137128D01*
X140228888Y-121118647D01*
X140322288Y-121098794D01*
X140328319Y-121096109D01*
X140490722Y-121023803D01*
X140490724Y-121023802D01*
X140496752Y-121021118D01*
X140651253Y-120908866D01*
X140779040Y-120766944D01*
X140874527Y-120601556D01*
X140876233Y-120596306D01*
X154631001Y-120596306D01*
X154637108Y-120606778D01*
X157737188Y-123706858D01*
X157751132Y-123714472D01*
X157752965Y-123714341D01*
X157759580Y-123710090D01*
X160862036Y-120607634D01*
X160869599Y-120593784D01*
X160863272Y-120584562D01*
X160780922Y-120511577D01*
X160776560Y-120508045D01*
X160436600Y-120256948D01*
X160431947Y-120253821D01*
X160070995Y-120033926D01*
X160066094Y-120031232D01*
X159687027Y-119844297D01*
X159681904Y-119842048D01*
X159287707Y-119689545D01*
X159282417Y-119687765D01*
X158876218Y-119570904D01*
X158870794Y-119569602D01*
X158455822Y-119489316D01*
X158450293Y-119488500D01*
X158029828Y-119445420D01*
X158024247Y-119445098D01*
X157601635Y-119439566D01*
X157596024Y-119439742D01*
X157174593Y-119471800D01*
X157169036Y-119472472D01*
X156752128Y-119541864D01*
X156746631Y-119543032D01*
X156337547Y-119649209D01*
X156332181Y-119650861D01*
X155934153Y-119792983D01*
X155928965Y-119795100D01*
X155545133Y-119972050D01*
X155540164Y-119974614D01*
X155173581Y-120184984D01*
X155168848Y-120187987D01*
X154822420Y-120430109D01*
X154817979Y-120433517D01*
X154639445Y-120583589D01*
X154631001Y-120596306D01*
X140876233Y-120596306D01*
X140933542Y-120419928D01*
X140940094Y-120357594D01*
X140952814Y-120236565D01*
X140953504Y-120230000D01*
X140933542Y-120040072D01*
X140874527Y-119858444D01*
X140779040Y-119693056D01*
X140741048Y-119650861D01*
X140655675Y-119556045D01*
X140655674Y-119556044D01*
X140651253Y-119551134D01*
X140552157Y-119479136D01*
X140502094Y-119442763D01*
X140502093Y-119442762D01*
X140496752Y-119438882D01*
X140490724Y-119436198D01*
X140490722Y-119436197D01*
X140328319Y-119363891D01*
X140328318Y-119363891D01*
X140322288Y-119361206D01*
X140228887Y-119341353D01*
X140141944Y-119322872D01*
X140141939Y-119322872D01*
X140135487Y-119321500D01*
X139944513Y-119321500D01*
X139938061Y-119322872D01*
X139938056Y-119322872D01*
X139851113Y-119341353D01*
X139757712Y-119361206D01*
X139751682Y-119363891D01*
X139751681Y-119363891D01*
X139589278Y-119436197D01*
X139589276Y-119436198D01*
X139583248Y-119438882D01*
X139577907Y-119442762D01*
X139577906Y-119442763D01*
X139527843Y-119479136D01*
X139428747Y-119551134D01*
X139424326Y-119556044D01*
X139424325Y-119556045D01*
X139338953Y-119650861D01*
X139300960Y-119693056D01*
X139205473Y-119858444D01*
X139146458Y-120040072D01*
X139126496Y-120230000D01*
X129490262Y-120230000D01*
X129617594Y-120076899D01*
X129714984Y-119902996D01*
X129730108Y-119858444D01*
X129777195Y-119719730D01*
X129777195Y-119719728D01*
X129779053Y-119714256D01*
X129779882Y-119708540D01*
X129779883Y-119708535D01*
X129804048Y-119541864D01*
X129807653Y-119517001D01*
X129809146Y-119460000D01*
X129790908Y-119261519D01*
X129736805Y-119069685D01*
X129723746Y-119043202D01*
X129651205Y-118896104D01*
X129648650Y-118890923D01*
X129529393Y-118731219D01*
X129383030Y-118595922D01*
X129378147Y-118592841D01*
X129378143Y-118592838D01*
X129219346Y-118492645D01*
X129219341Y-118492643D01*
X129214462Y-118489564D01*
X129029334Y-118415705D01*
X128833847Y-118376820D01*
X128828072Y-118376744D01*
X128828068Y-118376744D01*
X128728588Y-118375442D01*
X128634547Y-118374211D01*
X128628850Y-118375190D01*
X128628849Y-118375190D01*
X128612805Y-118377947D01*
X128438108Y-118407966D01*
X128251111Y-118476953D01*
X128079816Y-118578862D01*
X127929961Y-118710281D01*
X127806565Y-118866809D01*
X127713760Y-119043202D01*
X127654654Y-119233554D01*
X127631227Y-119431489D01*
X118013414Y-119431489D01*
X118013023Y-116947064D01*
X119537707Y-116947064D01*
X119566825Y-117139599D01*
X119569028Y-117145585D01*
X119569029Y-117145591D01*
X119631860Y-117316360D01*
X119631862Y-117316365D01*
X119634063Y-117322346D01*
X119736674Y-117487840D01*
X119870466Y-117629322D01*
X119875696Y-117632984D01*
X119875697Y-117632985D01*
X119952808Y-117686978D01*
X120029975Y-117741011D01*
X120035838Y-117743548D01*
X120202825Y-117815810D01*
X120202829Y-117815811D01*
X120208684Y-117818345D01*
X120214931Y-117819650D01*
X120214934Y-117819651D01*
X120394557Y-117857176D01*
X120394562Y-117857177D01*
X120399293Y-117858165D01*
X120405685Y-117858500D01*
X120548663Y-117858500D01*
X120617951Y-117851462D01*
X120687378Y-117844410D01*
X120687379Y-117844410D01*
X120693727Y-117843765D01*
X120774843Y-117818345D01*
X120873451Y-117787444D01*
X120873456Y-117787442D01*
X120879541Y-117785535D01*
X120966475Y-117737346D01*
X121044271Y-117694223D01*
X121044274Y-117694221D01*
X121049850Y-117691130D01*
X121054691Y-117686981D01*
X121054695Y-117686978D01*
X121192855Y-117568560D01*
X121197698Y-117564409D01*
X121215765Y-117541118D01*
X121278686Y-117460000D01*
X139116496Y-117460000D01*
X139117186Y-117466565D01*
X139132904Y-117616109D01*
X139136458Y-117649928D01*
X139195473Y-117831556D01*
X139290960Y-117996944D01*
X139418747Y-118138866D01*
X139573248Y-118251118D01*
X139579276Y-118253802D01*
X139579278Y-118253803D01*
X139741681Y-118326109D01*
X139747712Y-118328794D01*
X139841112Y-118348647D01*
X139928056Y-118367128D01*
X139928061Y-118367128D01*
X139934513Y-118368500D01*
X140125487Y-118368500D01*
X140131939Y-118367128D01*
X140131944Y-118367128D01*
X140218888Y-118348647D01*
X140312288Y-118328794D01*
X140318319Y-118326109D01*
X140480722Y-118253803D01*
X140480724Y-118253802D01*
X140486752Y-118251118D01*
X140641253Y-118138866D01*
X140769040Y-117996944D01*
X140864527Y-117831556D01*
X140923542Y-117649928D01*
X140927097Y-117616109D01*
X140942814Y-117466565D01*
X140943504Y-117460000D01*
X140925315Y-117286944D01*
X140924232Y-117276635D01*
X140924232Y-117276633D01*
X140923542Y-117270072D01*
X140864527Y-117088444D01*
X140769040Y-116923056D01*
X140755150Y-116907629D01*
X140645675Y-116786045D01*
X140645674Y-116786044D01*
X140641253Y-116781134D01*
X140598401Y-116750000D01*
X145946496Y-116750000D01*
X145947186Y-116756565D01*
X145965286Y-116928774D01*
X145966458Y-116939928D01*
X146025473Y-117121556D01*
X146120960Y-117286944D01*
X146125378Y-117291851D01*
X146125379Y-117291852D01*
X146236797Y-117415594D01*
X146248747Y-117428866D01*
X146403248Y-117541118D01*
X146409276Y-117543802D01*
X146409278Y-117543803D01*
X146571681Y-117616109D01*
X146577712Y-117618794D01*
X146671112Y-117638647D01*
X146758056Y-117657128D01*
X146758061Y-117657128D01*
X146764513Y-117658500D01*
X146955487Y-117658500D01*
X146961939Y-117657128D01*
X146961944Y-117657128D01*
X147048888Y-117638647D01*
X147142288Y-117618794D01*
X147148319Y-117616109D01*
X147310722Y-117543803D01*
X147310724Y-117543802D01*
X147316752Y-117541118D01*
X147471253Y-117428866D01*
X147483203Y-117415594D01*
X147594621Y-117291852D01*
X147594622Y-117291851D01*
X147599040Y-117286944D01*
X147694527Y-117121556D01*
X147753542Y-116939928D01*
X147754715Y-116928774D01*
X147772814Y-116756565D01*
X147773504Y-116750000D01*
X147764978Y-116668882D01*
X147754232Y-116566635D01*
X147754232Y-116566633D01*
X147753542Y-116560072D01*
X147716045Y-116444669D01*
X156572001Y-116444669D01*
X156572371Y-116451490D01*
X156577895Y-116502352D01*
X156581521Y-116517604D01*
X156626676Y-116638054D01*
X156635214Y-116653649D01*
X156711715Y-116755724D01*
X156724276Y-116768285D01*
X156826351Y-116844786D01*
X156841946Y-116853324D01*
X156962394Y-116898478D01*
X156977649Y-116902105D01*
X157028514Y-116907631D01*
X157035328Y-116908000D01*
X157886885Y-116908000D01*
X157902124Y-116903525D01*
X157903329Y-116902135D01*
X157905000Y-116894452D01*
X157905000Y-116889884D01*
X158655000Y-116889884D01*
X158659475Y-116905123D01*
X158660865Y-116906328D01*
X158668548Y-116907999D01*
X159524669Y-116907999D01*
X159531490Y-116907629D01*
X159582352Y-116902105D01*
X159597604Y-116898479D01*
X159718054Y-116853324D01*
X159733649Y-116844786D01*
X159835724Y-116768285D01*
X159848285Y-116755724D01*
X159924786Y-116653649D01*
X159933324Y-116638054D01*
X159978478Y-116517606D01*
X159982105Y-116502351D01*
X159987631Y-116451486D01*
X159988000Y-116444672D01*
X159988000Y-115593115D01*
X159983525Y-115577876D01*
X159982135Y-115576671D01*
X159974452Y-115575000D01*
X158673115Y-115575000D01*
X158657876Y-115579475D01*
X158656671Y-115580865D01*
X158655000Y-115588548D01*
X158655000Y-116889884D01*
X157905000Y-116889884D01*
X157905000Y-115593115D01*
X157900525Y-115577876D01*
X157899135Y-115576671D01*
X157891452Y-115575000D01*
X156590116Y-115575000D01*
X156574877Y-115579475D01*
X156573672Y-115580865D01*
X156572001Y-115588548D01*
X156572001Y-116444669D01*
X147716045Y-116444669D01*
X147694527Y-116378444D01*
X147599040Y-116213056D01*
X147471253Y-116071134D01*
X147316752Y-115958882D01*
X147310724Y-115956198D01*
X147310722Y-115956197D01*
X147148319Y-115883891D01*
X147148318Y-115883891D01*
X147142288Y-115881206D01*
X147048887Y-115861353D01*
X146961944Y-115842872D01*
X146961939Y-115842872D01*
X146955487Y-115841500D01*
X146764513Y-115841500D01*
X146758061Y-115842872D01*
X146758056Y-115842872D01*
X146671113Y-115861353D01*
X146577712Y-115881206D01*
X146571682Y-115883891D01*
X146571681Y-115883891D01*
X146409278Y-115956197D01*
X146409276Y-115956198D01*
X146403248Y-115958882D01*
X146248747Y-116071134D01*
X146120960Y-116213056D01*
X146025473Y-116378444D01*
X145966458Y-116560072D01*
X145965768Y-116566633D01*
X145965768Y-116566635D01*
X145955022Y-116668882D01*
X145946496Y-116750000D01*
X140598401Y-116750000D01*
X140486752Y-116668882D01*
X140480724Y-116666198D01*
X140480722Y-116666197D01*
X140318319Y-116593891D01*
X140318318Y-116593891D01*
X140312288Y-116591206D01*
X140218887Y-116571353D01*
X140131944Y-116552872D01*
X140131939Y-116552872D01*
X140125487Y-116551500D01*
X139934513Y-116551500D01*
X139928061Y-116552872D01*
X139928056Y-116552872D01*
X139841113Y-116571353D01*
X139747712Y-116591206D01*
X139741682Y-116593891D01*
X139741681Y-116593891D01*
X139579278Y-116666197D01*
X139579276Y-116666198D01*
X139573248Y-116668882D01*
X139418747Y-116781134D01*
X139414326Y-116786044D01*
X139414325Y-116786045D01*
X139304851Y-116907629D01*
X139290960Y-116923056D01*
X139195473Y-117088444D01*
X139136458Y-117270072D01*
X139135768Y-117276633D01*
X139135768Y-117276635D01*
X139134685Y-117286944D01*
X139116496Y-117460000D01*
X121278686Y-117460000D01*
X121313131Y-117415594D01*
X121317046Y-117410547D01*
X121357779Y-117327768D01*
X121400200Y-117241556D01*
X121403018Y-117235829D01*
X121404628Y-117229649D01*
X121450492Y-117053575D01*
X121450492Y-117053572D01*
X121452102Y-117047393D01*
X121458618Y-116923056D01*
X121461959Y-116859317D01*
X121461959Y-116859313D01*
X121462293Y-116852936D01*
X121433175Y-116660401D01*
X121430972Y-116654415D01*
X121430971Y-116654409D01*
X121368140Y-116483640D01*
X121368138Y-116483635D01*
X121365937Y-116477654D01*
X121263326Y-116312160D01*
X121129534Y-116170678D01*
X120970025Y-116058989D01*
X120922013Y-116038212D01*
X120797175Y-115984190D01*
X120797171Y-115984189D01*
X120791316Y-115981655D01*
X120785069Y-115980350D01*
X120785066Y-115980349D01*
X120605443Y-115942824D01*
X120605438Y-115942823D01*
X120600707Y-115941835D01*
X120594315Y-115941500D01*
X120451337Y-115941500D01*
X120382049Y-115948538D01*
X120312622Y-115955590D01*
X120312621Y-115955590D01*
X120306273Y-115956235D01*
X120285442Y-115962763D01*
X120126549Y-116012556D01*
X120126544Y-116012558D01*
X120120459Y-116014465D01*
X120044713Y-116056452D01*
X119955729Y-116105777D01*
X119955726Y-116105779D01*
X119950150Y-116108870D01*
X119945309Y-116113019D01*
X119945305Y-116113022D01*
X119882311Y-116167015D01*
X119802302Y-116235591D01*
X119682954Y-116389453D01*
X119680138Y-116395176D01*
X119680136Y-116395179D01*
X119636608Y-116483640D01*
X119596982Y-116564171D01*
X119595373Y-116570349D01*
X119595372Y-116570351D01*
X119573477Y-116654409D01*
X119547898Y-116752607D01*
X119546403Y-116781134D01*
X119538666Y-116928774D01*
X119537707Y-116947064D01*
X118013023Y-116947064D01*
X118012711Y-114970000D01*
X140696496Y-114970000D01*
X140716458Y-115159928D01*
X140775473Y-115341556D01*
X140870960Y-115506944D01*
X140875378Y-115511851D01*
X140875379Y-115511852D01*
X140994325Y-115643955D01*
X140998747Y-115648866D01*
X141153248Y-115761118D01*
X141159276Y-115763802D01*
X141159278Y-115763803D01*
X141321681Y-115836109D01*
X141327712Y-115838794D01*
X141421113Y-115858647D01*
X141508056Y-115877128D01*
X141508061Y-115877128D01*
X141514513Y-115878500D01*
X141705487Y-115878500D01*
X141711939Y-115877128D01*
X141711944Y-115877128D01*
X141798887Y-115858647D01*
X141892288Y-115838794D01*
X141898319Y-115836109D01*
X142060722Y-115763803D01*
X142060724Y-115763802D01*
X142066752Y-115761118D01*
X142221253Y-115648866D01*
X142225675Y-115643955D01*
X142344621Y-115511852D01*
X142344622Y-115511851D01*
X142349040Y-115506944D01*
X142444527Y-115341556D01*
X142503542Y-115159928D01*
X142523504Y-114970000D01*
X142508264Y-114825000D01*
X142504232Y-114786635D01*
X142504232Y-114786633D01*
X142503542Y-114780072D01*
X142444527Y-114598444D01*
X142349040Y-114433056D01*
X142221253Y-114291134D01*
X142066752Y-114178882D01*
X142060724Y-114176198D01*
X142060722Y-114176197D01*
X141898319Y-114103891D01*
X141898318Y-114103891D01*
X141892288Y-114101206D01*
X141798888Y-114081353D01*
X141711944Y-114062872D01*
X141711939Y-114062872D01*
X141705487Y-114061500D01*
X141514513Y-114061500D01*
X141508061Y-114062872D01*
X141508056Y-114062872D01*
X141421112Y-114081353D01*
X141327712Y-114101206D01*
X141321682Y-114103891D01*
X141321681Y-114103891D01*
X141159278Y-114176197D01*
X141159276Y-114176198D01*
X141153248Y-114178882D01*
X140998747Y-114291134D01*
X140870960Y-114433056D01*
X140775473Y-114598444D01*
X140716458Y-114780072D01*
X140715768Y-114786633D01*
X140715768Y-114786635D01*
X140711736Y-114825000D01*
X140696496Y-114970000D01*
X118012711Y-114970000D01*
X118012400Y-113000000D01*
X144586496Y-113000000D01*
X144587186Y-113006565D01*
X144595803Y-113088547D01*
X144606458Y-113189928D01*
X144665473Y-113371556D01*
X144760960Y-113536944D01*
X144888747Y-113678866D01*
X145043248Y-113791118D01*
X145049276Y-113793802D01*
X145049278Y-113793803D01*
X145211681Y-113866109D01*
X145217712Y-113868794D01*
X145311112Y-113888647D01*
X145398056Y-113907128D01*
X145398061Y-113907128D01*
X145404513Y-113908500D01*
X145595487Y-113908500D01*
X145601939Y-113907128D01*
X145601944Y-113907128D01*
X145688888Y-113888647D01*
X145782288Y-113868794D01*
X145788319Y-113866109D01*
X145950722Y-113793803D01*
X145950724Y-113793802D01*
X145956752Y-113791118D01*
X146111253Y-113678866D01*
X146239040Y-113536944D01*
X146334527Y-113371556D01*
X146393542Y-113189928D01*
X146404198Y-113088547D01*
X146412814Y-113006565D01*
X146413504Y-113000000D01*
X154336496Y-113000000D01*
X154337186Y-113006565D01*
X154345803Y-113088547D01*
X154356458Y-113189928D01*
X154415473Y-113371556D01*
X154510960Y-113536944D01*
X154638747Y-113678866D01*
X154793248Y-113791118D01*
X154799276Y-113793802D01*
X154799278Y-113793803D01*
X154961681Y-113866109D01*
X154967712Y-113868794D01*
X155061112Y-113888647D01*
X155148056Y-113907128D01*
X155148061Y-113907128D01*
X155154513Y-113908500D01*
X155345487Y-113908500D01*
X155351939Y-113907128D01*
X155351944Y-113907128D01*
X155438888Y-113888647D01*
X155532288Y-113868794D01*
X155538319Y-113866109D01*
X155700722Y-113793803D01*
X155700724Y-113793802D01*
X155706752Y-113791118D01*
X155861253Y-113678866D01*
X155989040Y-113536944D01*
X156084527Y-113371556D01*
X156143542Y-113189928D01*
X156154198Y-113088547D01*
X156162814Y-113006565D01*
X156163504Y-113000000D01*
X156145754Y-112831118D01*
X156144232Y-112816635D01*
X156144232Y-112816633D01*
X156143542Y-112810072D01*
X156084527Y-112628444D01*
X155989040Y-112463056D01*
X155861253Y-112321134D01*
X155706752Y-112208882D01*
X155700724Y-112206198D01*
X155700722Y-112206197D01*
X155538319Y-112133891D01*
X155538318Y-112133891D01*
X155532288Y-112131206D01*
X155438888Y-112111353D01*
X155351944Y-112092872D01*
X155351939Y-112092872D01*
X155345487Y-112091500D01*
X155154513Y-112091500D01*
X155148061Y-112092872D01*
X155148056Y-112092872D01*
X155061113Y-112111353D01*
X154967712Y-112131206D01*
X154961682Y-112133891D01*
X154961681Y-112133891D01*
X154799278Y-112206197D01*
X154799276Y-112206198D01*
X154793248Y-112208882D01*
X154638747Y-112321134D01*
X154510960Y-112463056D01*
X154415473Y-112628444D01*
X154356458Y-112810072D01*
X154355768Y-112816633D01*
X154355768Y-112816635D01*
X154354246Y-112831118D01*
X154336496Y-113000000D01*
X146413504Y-113000000D01*
X146395754Y-112831118D01*
X146394232Y-112816635D01*
X146394232Y-112816633D01*
X146393542Y-112810072D01*
X146334527Y-112628444D01*
X146239040Y-112463056D01*
X146111253Y-112321134D01*
X145956752Y-112208882D01*
X145950724Y-112206198D01*
X145950722Y-112206197D01*
X145788319Y-112133891D01*
X145788318Y-112133891D01*
X145782288Y-112131206D01*
X145688888Y-112111353D01*
X145601944Y-112092872D01*
X145601939Y-112092872D01*
X145595487Y-112091500D01*
X145404513Y-112091500D01*
X145398061Y-112092872D01*
X145398056Y-112092872D01*
X145311113Y-112111353D01*
X145217712Y-112131206D01*
X145211682Y-112133891D01*
X145211681Y-112133891D01*
X145049278Y-112206197D01*
X145049276Y-112206198D01*
X145043248Y-112208882D01*
X144888747Y-112321134D01*
X144760960Y-112463056D01*
X144665473Y-112628444D01*
X144606458Y-112810072D01*
X144605768Y-112816633D01*
X144605768Y-112816635D01*
X144604246Y-112831118D01*
X144586496Y-113000000D01*
X118012400Y-113000000D01*
X118012249Y-112040000D01*
X122616496Y-112040000D01*
X122636458Y-112229928D01*
X122695473Y-112411556D01*
X122790960Y-112576944D01*
X122918747Y-112718866D01*
X122935564Y-112731084D01*
X123058334Y-112820282D01*
X123073248Y-112831118D01*
X123079276Y-112833802D01*
X123079278Y-112833803D01*
X123241681Y-112906109D01*
X123247712Y-112908794D01*
X123324101Y-112925031D01*
X123428056Y-112947128D01*
X123428061Y-112947128D01*
X123434513Y-112948500D01*
X123625487Y-112948500D01*
X123631939Y-112947128D01*
X123631944Y-112947128D01*
X123735899Y-112925031D01*
X123812288Y-112908794D01*
X123818319Y-112906109D01*
X123980722Y-112833803D01*
X123980724Y-112833802D01*
X123986752Y-112831118D01*
X124001667Y-112820282D01*
X124124436Y-112731084D01*
X124141253Y-112718866D01*
X124269040Y-112576944D01*
X124364527Y-112411556D01*
X124423542Y-112229928D01*
X124443504Y-112040000D01*
X124442814Y-112033435D01*
X124424232Y-111856635D01*
X124424232Y-111856633D01*
X124423542Y-111850072D01*
X124364527Y-111668444D01*
X124356852Y-111655151D01*
X156567296Y-111655151D01*
X156567520Y-111659817D01*
X156567520Y-111659822D01*
X156568236Y-111674729D01*
X156579480Y-111908798D01*
X156580393Y-111913386D01*
X156623720Y-112131206D01*
X156629021Y-112157857D01*
X156630600Y-112162255D01*
X156630602Y-112162262D01*
X156713248Y-112392449D01*
X156714831Y-112396858D01*
X156835025Y-112620551D01*
X156837820Y-112624294D01*
X156837822Y-112624297D01*
X156984171Y-112820282D01*
X156984176Y-112820288D01*
X156986963Y-112824020D01*
X156990272Y-112827300D01*
X156990277Y-112827306D01*
X157088859Y-112925031D01*
X157167307Y-113002797D01*
X157171069Y-113005555D01*
X157171072Y-113005558D01*
X157276764Y-113083054D01*
X157372094Y-113152953D01*
X157376229Y-113155129D01*
X157376233Y-113155131D01*
X157565089Y-113254493D01*
X157616061Y-113303912D01*
X157632224Y-113373045D01*
X157608445Y-113439941D01*
X157552274Y-113483361D01*
X157506421Y-113492001D01*
X157035331Y-113492001D01*
X157028510Y-113492371D01*
X156977648Y-113497895D01*
X156962396Y-113501521D01*
X156841946Y-113546676D01*
X156826351Y-113555214D01*
X156724276Y-113631715D01*
X156711715Y-113644276D01*
X156635214Y-113746351D01*
X156626676Y-113761946D01*
X156581522Y-113882394D01*
X156577895Y-113897649D01*
X156572369Y-113948514D01*
X156572000Y-113955328D01*
X156572000Y-114806885D01*
X156576475Y-114822124D01*
X156577865Y-114823329D01*
X156585548Y-114825000D01*
X159969884Y-114825000D01*
X159985123Y-114820525D01*
X159986328Y-114819135D01*
X159987999Y-114811452D01*
X159987999Y-113955331D01*
X159987629Y-113948510D01*
X159982105Y-113897648D01*
X159978479Y-113882396D01*
X159933324Y-113761946D01*
X159924786Y-113746351D01*
X159848285Y-113644276D01*
X159835724Y-113631715D01*
X159733649Y-113555214D01*
X159718054Y-113546676D01*
X159597606Y-113501522D01*
X159582351Y-113497895D01*
X159531486Y-113492369D01*
X159524672Y-113492000D01*
X159049799Y-113492000D01*
X158981678Y-113471998D01*
X158935185Y-113418342D01*
X158925081Y-113348068D01*
X158954575Y-113283488D01*
X159000061Y-113250233D01*
X159071110Y-113219708D01*
X159075090Y-113217245D01*
X159075094Y-113217243D01*
X159283064Y-113088547D01*
X159283066Y-113088545D01*
X159287047Y-113086082D01*
X159385428Y-113002797D01*
X159477289Y-112925031D01*
X159477291Y-112925029D01*
X159480862Y-112922006D01*
X159648295Y-112731084D01*
X159653657Y-112722749D01*
X159783141Y-112521442D01*
X159785669Y-112517512D01*
X159889967Y-112285980D01*
X159958896Y-112041575D01*
X159982424Y-111856635D01*
X159990545Y-111792798D01*
X159990545Y-111792792D01*
X159990943Y-111789667D01*
X159993291Y-111700000D01*
X159989612Y-111650497D01*
X159974818Y-111451411D01*
X159974817Y-111451407D01*
X159974472Y-111446759D01*
X159954219Y-111357251D01*
X159919459Y-111203639D01*
X159918428Y-111199082D01*
X159900138Y-111152050D01*
X159828084Y-110966762D01*
X159828083Y-110966760D01*
X159826391Y-110962409D01*
X159814161Y-110941011D01*
X159702702Y-110745997D01*
X159702700Y-110745995D01*
X159700383Y-110741940D01*
X159543171Y-110542517D01*
X159358209Y-110368523D01*
X159183601Y-110247393D01*
X159153393Y-110226437D01*
X159153390Y-110226435D01*
X159149561Y-110223779D01*
X159145384Y-110221719D01*
X159145377Y-110221715D01*
X158925996Y-110113528D01*
X158925992Y-110113527D01*
X158921810Y-110111464D01*
X158679960Y-110034047D01*
X158675355Y-110033297D01*
X158433935Y-109993980D01*
X158433934Y-109993980D01*
X158429323Y-109993229D01*
X158302364Y-109991567D01*
X158180083Y-109989966D01*
X158180080Y-109989966D01*
X158175406Y-109989905D01*
X157923787Y-110024149D01*
X157679993Y-110095208D01*
X157449380Y-110201522D01*
X157445471Y-110204085D01*
X157240928Y-110338189D01*
X157240923Y-110338193D01*
X157237015Y-110340755D01*
X157142288Y-110425302D01*
X157056521Y-110501852D01*
X157047562Y-110509848D01*
X156885183Y-110705087D01*
X156753447Y-110922182D01*
X156751638Y-110926496D01*
X156751637Y-110926498D01*
X156665673Y-111131500D01*
X156655246Y-111156365D01*
X156654095Y-111160897D01*
X156654094Y-111160900D01*
X156631750Y-111248882D01*
X156592738Y-111402490D01*
X156567296Y-111655151D01*
X124356852Y-111655151D01*
X124269040Y-111503056D01*
X124141253Y-111361134D01*
X123986752Y-111248882D01*
X123980724Y-111246198D01*
X123980722Y-111246197D01*
X123818319Y-111173891D01*
X123818318Y-111173891D01*
X123812288Y-111171206D01*
X123718888Y-111151353D01*
X123631944Y-111132872D01*
X123631939Y-111132872D01*
X123625487Y-111131500D01*
X123434513Y-111131500D01*
X123428061Y-111132872D01*
X123428056Y-111132872D01*
X123341112Y-111151353D01*
X123247712Y-111171206D01*
X123241682Y-111173891D01*
X123241681Y-111173891D01*
X123079278Y-111246197D01*
X123079276Y-111246198D01*
X123073248Y-111248882D01*
X122918747Y-111361134D01*
X122790960Y-111503056D01*
X122695473Y-111668444D01*
X122636458Y-111850072D01*
X122635768Y-111856633D01*
X122635768Y-111856635D01*
X122617186Y-112033435D01*
X122616496Y-112040000D01*
X118012249Y-112040000D01*
X118011951Y-110147064D01*
X119537707Y-110147064D01*
X119566825Y-110339599D01*
X119569028Y-110345585D01*
X119569029Y-110345591D01*
X119631860Y-110516360D01*
X119631862Y-110516365D01*
X119634063Y-110522346D01*
X119736674Y-110687840D01*
X119741055Y-110692473D01*
X119741056Y-110692474D01*
X119796513Y-110751118D01*
X119870466Y-110829322D01*
X120029975Y-110941011D01*
X120035838Y-110943548D01*
X120202825Y-111015810D01*
X120202829Y-111015811D01*
X120208684Y-111018345D01*
X120214931Y-111019650D01*
X120214934Y-111019651D01*
X120394557Y-111057176D01*
X120394562Y-111057177D01*
X120399293Y-111058165D01*
X120405685Y-111058500D01*
X120548663Y-111058500D01*
X120617951Y-111051462D01*
X120687378Y-111044410D01*
X120687379Y-111044410D01*
X120693727Y-111043765D01*
X120774843Y-111018345D01*
X120873451Y-110987444D01*
X120873456Y-110987442D01*
X120879541Y-110985535D01*
X120986045Y-110926498D01*
X121044271Y-110894223D01*
X121044274Y-110894221D01*
X121049850Y-110891130D01*
X121054691Y-110886981D01*
X121054695Y-110886978D01*
X121192855Y-110768560D01*
X121197698Y-110764409D01*
X121317046Y-110610547D01*
X121357779Y-110527768D01*
X121400200Y-110441556D01*
X121403018Y-110435829D01*
X121421243Y-110365864D01*
X121450492Y-110253575D01*
X121450492Y-110253572D01*
X121452102Y-110247393D01*
X121460078Y-110095208D01*
X121461959Y-110059317D01*
X121461959Y-110059313D01*
X121462293Y-110052936D01*
X121448238Y-109960000D01*
X122616496Y-109960000D01*
X122617186Y-109966565D01*
X122626935Y-110059317D01*
X122636458Y-110149928D01*
X122695473Y-110331556D01*
X122698776Y-110337278D01*
X122698777Y-110337279D01*
X122703576Y-110345591D01*
X122790960Y-110496944D01*
X122918747Y-110638866D01*
X122978691Y-110682418D01*
X123066200Y-110745997D01*
X123073248Y-110751118D01*
X123079276Y-110753802D01*
X123079278Y-110753803D01*
X123238483Y-110824685D01*
X123247712Y-110828794D01*
X123341112Y-110848647D01*
X123428056Y-110867128D01*
X123428061Y-110867128D01*
X123434513Y-110868500D01*
X123625487Y-110868500D01*
X123631939Y-110867128D01*
X123631944Y-110867128D01*
X123718887Y-110848647D01*
X123812288Y-110828794D01*
X123821517Y-110824685D01*
X123980722Y-110753803D01*
X123980724Y-110753802D01*
X123986752Y-110751118D01*
X123993801Y-110745997D01*
X124081309Y-110682418D01*
X124141253Y-110638866D01*
X124269040Y-110496944D01*
X124356424Y-110345591D01*
X124361223Y-110337279D01*
X124361224Y-110337278D01*
X124364527Y-110331556D01*
X124423542Y-110149928D01*
X124433066Y-110059317D01*
X124442814Y-109966565D01*
X124443504Y-109960000D01*
X124442077Y-109946425D01*
X124424232Y-109776635D01*
X124424232Y-109776633D01*
X124423542Y-109770072D01*
X124364527Y-109588444D01*
X124269040Y-109423056D01*
X124141253Y-109281134D01*
X124139692Y-109280000D01*
X131116496Y-109280000D01*
X131117186Y-109286565D01*
X131132133Y-109428774D01*
X131136458Y-109469928D01*
X131195473Y-109651556D01*
X131290960Y-109816944D01*
X131295378Y-109821851D01*
X131295379Y-109821852D01*
X131330089Y-109860401D01*
X131418747Y-109958866D01*
X131573248Y-110071118D01*
X131579276Y-110073802D01*
X131579278Y-110073803D01*
X131729494Y-110140683D01*
X131747712Y-110148794D01*
X131841113Y-110168647D01*
X131928056Y-110187128D01*
X131928061Y-110187128D01*
X131934513Y-110188500D01*
X132125487Y-110188500D01*
X132131939Y-110187128D01*
X132131944Y-110187128D01*
X132218888Y-110168647D01*
X132312288Y-110148794D01*
X132330506Y-110140683D01*
X132480722Y-110073803D01*
X132480724Y-110073802D01*
X132486752Y-110071118D01*
X132641253Y-109958866D01*
X132729911Y-109860401D01*
X132764621Y-109821852D01*
X132764622Y-109821851D01*
X132769040Y-109816944D01*
X132864527Y-109651556D01*
X132923542Y-109469928D01*
X132927868Y-109428774D01*
X132942814Y-109286565D01*
X132943504Y-109280000D01*
X132936616Y-109214465D01*
X132924232Y-109096635D01*
X132924232Y-109096633D01*
X132923542Y-109090072D01*
X132864527Y-108908444D01*
X132769040Y-108743056D01*
X132641253Y-108601134D01*
X132486752Y-108488882D01*
X132480724Y-108486198D01*
X132480722Y-108486197D01*
X132318319Y-108413891D01*
X132318318Y-108413891D01*
X132312288Y-108411206D01*
X132218887Y-108391353D01*
X132131944Y-108372872D01*
X132131939Y-108372872D01*
X132125487Y-108371500D01*
X131934513Y-108371500D01*
X131928061Y-108372872D01*
X131928056Y-108372872D01*
X131841113Y-108391353D01*
X131747712Y-108411206D01*
X131741682Y-108413891D01*
X131741681Y-108413891D01*
X131579278Y-108486197D01*
X131579276Y-108486198D01*
X131573248Y-108488882D01*
X131418747Y-108601134D01*
X131290960Y-108743056D01*
X131195473Y-108908444D01*
X131136458Y-109090072D01*
X131135768Y-109096633D01*
X131135768Y-109096635D01*
X131123384Y-109214465D01*
X131116496Y-109280000D01*
X124139692Y-109280000D01*
X124007822Y-109184190D01*
X123992094Y-109172763D01*
X123992093Y-109172762D01*
X123986752Y-109168882D01*
X123980724Y-109166198D01*
X123980722Y-109166197D01*
X123818319Y-109093891D01*
X123818318Y-109093891D01*
X123812288Y-109091206D01*
X123718888Y-109071353D01*
X123631944Y-109052872D01*
X123631939Y-109052872D01*
X123625487Y-109051500D01*
X123434513Y-109051500D01*
X123428061Y-109052872D01*
X123428056Y-109052872D01*
X123341112Y-109071353D01*
X123247712Y-109091206D01*
X123241682Y-109093891D01*
X123241681Y-109093891D01*
X123079278Y-109166197D01*
X123079276Y-109166198D01*
X123073248Y-109168882D01*
X123067907Y-109172762D01*
X123067906Y-109172763D01*
X123052178Y-109184190D01*
X122918747Y-109281134D01*
X122790960Y-109423056D01*
X122695473Y-109588444D01*
X122636458Y-109770072D01*
X122635768Y-109776633D01*
X122635768Y-109776635D01*
X122617923Y-109946425D01*
X122616496Y-109960000D01*
X121448238Y-109960000D01*
X121433175Y-109860401D01*
X121430972Y-109854415D01*
X121430971Y-109854409D01*
X121368140Y-109683640D01*
X121368138Y-109683635D01*
X121365937Y-109677654D01*
X121263326Y-109512160D01*
X121223390Y-109469928D01*
X121133919Y-109375315D01*
X121129534Y-109370678D01*
X120970025Y-109258989D01*
X120922013Y-109238212D01*
X120797175Y-109184190D01*
X120797171Y-109184189D01*
X120791316Y-109181655D01*
X120785069Y-109180350D01*
X120785066Y-109180349D01*
X120605443Y-109142824D01*
X120605438Y-109142823D01*
X120600707Y-109141835D01*
X120594315Y-109141500D01*
X120451337Y-109141500D01*
X120382049Y-109148538D01*
X120312622Y-109155590D01*
X120312621Y-109155590D01*
X120306273Y-109156235D01*
X120274484Y-109166197D01*
X120126549Y-109212556D01*
X120126544Y-109212558D01*
X120120459Y-109214465D01*
X120044713Y-109256452D01*
X119955729Y-109305777D01*
X119955726Y-109305779D01*
X119950150Y-109308870D01*
X119945309Y-109313019D01*
X119945305Y-109313022D01*
X119807145Y-109431440D01*
X119802302Y-109435591D01*
X119682954Y-109589453D01*
X119680138Y-109595176D01*
X119680136Y-109595179D01*
X119636608Y-109683640D01*
X119596982Y-109764171D01*
X119595373Y-109770349D01*
X119595372Y-109770351D01*
X119573477Y-109854409D01*
X119547898Y-109952607D01*
X119545943Y-109989905D01*
X119539465Y-110113528D01*
X119537707Y-110147064D01*
X118011951Y-110147064D01*
X118011340Y-106270000D01*
X138026496Y-106270000D01*
X138046458Y-106459928D01*
X138105473Y-106641556D01*
X138200960Y-106806944D01*
X138328747Y-106948866D01*
X138483248Y-107061118D01*
X138489276Y-107063802D01*
X138489278Y-107063803D01*
X138651681Y-107136109D01*
X138657712Y-107138794D01*
X138751113Y-107158647D01*
X138838056Y-107177128D01*
X138838061Y-107177128D01*
X138844513Y-107178500D01*
X139035487Y-107178500D01*
X139041939Y-107177128D01*
X139041944Y-107177128D01*
X139128887Y-107158647D01*
X139222288Y-107138794D01*
X139228319Y-107136109D01*
X139390722Y-107063803D01*
X139390724Y-107063802D01*
X139396752Y-107061118D01*
X139551253Y-106948866D01*
X139679040Y-106806944D01*
X139774527Y-106641556D01*
X139833542Y-106459928D01*
X139853504Y-106270000D01*
X139833542Y-106080072D01*
X139774527Y-105898444D01*
X139765466Y-105882749D01*
X139682341Y-105738774D01*
X139679040Y-105733056D01*
X139551253Y-105591134D01*
X139396752Y-105478882D01*
X139390724Y-105476198D01*
X139390722Y-105476197D01*
X139228319Y-105403891D01*
X139228318Y-105403891D01*
X139222288Y-105401206D01*
X139128887Y-105381353D01*
X139041944Y-105362872D01*
X139041939Y-105362872D01*
X139035487Y-105361500D01*
X138844513Y-105361500D01*
X138838061Y-105362872D01*
X138838056Y-105362872D01*
X138751113Y-105381353D01*
X138657712Y-105401206D01*
X138651682Y-105403891D01*
X138651681Y-105403891D01*
X138489278Y-105476197D01*
X138489276Y-105476198D01*
X138483248Y-105478882D01*
X138328747Y-105591134D01*
X138200960Y-105733056D01*
X138197659Y-105738774D01*
X138114535Y-105882749D01*
X138105473Y-105898444D01*
X138046458Y-106080072D01*
X138026496Y-106270000D01*
X118011340Y-106270000D01*
X118011171Y-105200000D01*
X120086496Y-105200000D01*
X120106458Y-105389928D01*
X120165473Y-105571556D01*
X120168776Y-105577278D01*
X120168777Y-105577279D01*
X120176776Y-105591134D01*
X120260960Y-105736944D01*
X120388747Y-105878866D01*
X120543248Y-105991118D01*
X120549276Y-105993802D01*
X120549278Y-105993803D01*
X120711681Y-106066109D01*
X120717712Y-106068794D01*
X120801647Y-106086635D01*
X120898056Y-106107128D01*
X120898061Y-106107128D01*
X120904513Y-106108500D01*
X121095487Y-106108500D01*
X121101939Y-106107128D01*
X121101944Y-106107128D01*
X121198353Y-106086635D01*
X121282288Y-106068794D01*
X121288319Y-106066109D01*
X121450722Y-105993803D01*
X121450724Y-105993802D01*
X121456752Y-105991118D01*
X121611253Y-105878866D01*
X121739040Y-105736944D01*
X121823224Y-105591134D01*
X121831223Y-105577279D01*
X121831224Y-105577278D01*
X121834527Y-105571556D01*
X121893542Y-105389928D01*
X121913504Y-105200000D01*
X121893542Y-105010072D01*
X121834527Y-104828444D01*
X121739040Y-104663056D01*
X121611253Y-104521134D01*
X121456752Y-104408882D01*
X121450724Y-104406198D01*
X121450722Y-104406197D01*
X121288319Y-104333891D01*
X121288318Y-104333891D01*
X121282288Y-104331206D01*
X121188888Y-104311353D01*
X121101944Y-104292872D01*
X121101939Y-104292872D01*
X121095487Y-104291500D01*
X120904513Y-104291500D01*
X120898061Y-104292872D01*
X120898056Y-104292872D01*
X120811112Y-104311353D01*
X120717712Y-104331206D01*
X120711682Y-104333891D01*
X120711681Y-104333891D01*
X120549278Y-104406197D01*
X120549276Y-104406198D01*
X120543248Y-104408882D01*
X120388747Y-104521134D01*
X120260960Y-104663056D01*
X120165473Y-104828444D01*
X120106458Y-105010072D01*
X120086496Y-105200000D01*
X118011171Y-105200000D01*
X118010391Y-100250000D01*
X133086496Y-100250000D01*
X133087186Y-100256565D01*
X133101007Y-100388060D01*
X133106458Y-100439928D01*
X133165473Y-100621556D01*
X133260960Y-100786944D01*
X133388747Y-100928866D01*
X133543248Y-101041118D01*
X133549276Y-101043802D01*
X133549278Y-101043803D01*
X133711681Y-101116109D01*
X133717712Y-101118794D01*
X133811112Y-101138647D01*
X133898056Y-101157128D01*
X133898061Y-101157128D01*
X133904513Y-101158500D01*
X134095487Y-101158500D01*
X134101939Y-101157128D01*
X134101944Y-101157128D01*
X134188888Y-101138647D01*
X134282288Y-101118794D01*
X134288319Y-101116109D01*
X134450722Y-101043803D01*
X134450724Y-101043802D01*
X134456752Y-101041118D01*
X134571739Y-100957575D01*
X157111404Y-100957575D01*
X157113313Y-100978554D01*
X157129512Y-101156540D01*
X157130218Y-101164303D01*
X157131956Y-101170209D01*
X157131957Y-101170213D01*
X157175473Y-101318068D01*
X157188827Y-101363440D01*
X157284999Y-101547400D01*
X157415071Y-101709177D01*
X157419788Y-101713135D01*
X157419790Y-101713137D01*
X157500993Y-101781274D01*
X157574089Y-101842609D01*
X157579481Y-101845573D01*
X157579485Y-101845576D01*
X157706855Y-101915598D01*
X157755995Y-101942613D01*
X157953861Y-102005379D01*
X157959978Y-102006065D01*
X157959982Y-102006066D01*
X158036598Y-102014659D01*
X158115413Y-102023500D01*
X158627237Y-102023500D01*
X158630293Y-102023200D01*
X158630300Y-102023200D01*
X158775466Y-102008966D01*
X158775469Y-102008965D01*
X158781592Y-102008365D01*
X158913546Y-101968526D01*
X158974407Y-101950152D01*
X158974410Y-101950151D01*
X158980315Y-101948368D01*
X158987635Y-101944476D01*
X159158153Y-101853809D01*
X159158155Y-101853808D01*
X159163599Y-101850913D01*
X159223471Y-101802083D01*
X159319689Y-101723610D01*
X159319692Y-101723607D01*
X159324464Y-101719715D01*
X159456783Y-101559770D01*
X159460876Y-101552201D01*
X159552584Y-101382590D01*
X159552586Y-101382585D01*
X159555514Y-101377170D01*
X159616898Y-101178871D01*
X159619039Y-101158500D01*
X159637952Y-100978554D01*
X159637952Y-100978552D01*
X159638596Y-100972425D01*
X159630777Y-100886515D01*
X159620341Y-100771836D01*
X159620340Y-100771833D01*
X159619782Y-100765697D01*
X159617298Y-100757255D01*
X159562912Y-100572469D01*
X159561173Y-100566560D01*
X159465001Y-100382600D01*
X159334929Y-100220823D01*
X159322371Y-100210285D01*
X159197855Y-100105804D01*
X159175911Y-100087391D01*
X159170519Y-100084427D01*
X159170515Y-100084424D01*
X158999402Y-99990354D01*
X158994005Y-99987387D01*
X158796139Y-99924621D01*
X158790022Y-99923935D01*
X158790018Y-99923934D01*
X158713402Y-99915341D01*
X158634587Y-99906500D01*
X158122763Y-99906500D01*
X158119707Y-99906800D01*
X158119700Y-99906800D01*
X157974534Y-99921034D01*
X157974531Y-99921035D01*
X157968408Y-99921635D01*
X157836454Y-99961474D01*
X157775593Y-99979848D01*
X157775590Y-99979849D01*
X157769685Y-99981632D01*
X157764240Y-99984527D01*
X157764238Y-99984528D01*
X157591847Y-100076191D01*
X157591845Y-100076192D01*
X157586401Y-100079087D01*
X157543450Y-100114117D01*
X157430311Y-100206390D01*
X157430308Y-100206393D01*
X157425536Y-100210285D01*
X157421608Y-100215033D01*
X157421607Y-100215034D01*
X157385217Y-100259022D01*
X157293217Y-100370230D01*
X157290288Y-100375647D01*
X157290286Y-100375650D01*
X157197416Y-100547410D01*
X157197414Y-100547415D01*
X157194486Y-100552830D01*
X157133102Y-100751129D01*
X157132458Y-100757254D01*
X157132458Y-100757255D01*
X157113522Y-100937428D01*
X157111404Y-100957575D01*
X134571739Y-100957575D01*
X134611253Y-100928866D01*
X134739040Y-100786944D01*
X134834527Y-100621556D01*
X134893542Y-100439928D01*
X134898994Y-100388060D01*
X134912814Y-100256565D01*
X134913504Y-100250000D01*
X134909330Y-100210285D01*
X134894232Y-100066635D01*
X134894232Y-100066633D01*
X134893542Y-100060072D01*
X134834527Y-99878444D01*
X134739040Y-99713056D01*
X134611253Y-99571134D01*
X134456752Y-99458882D01*
X134450724Y-99456198D01*
X134450722Y-99456197D01*
X134288319Y-99383891D01*
X134288318Y-99383891D01*
X134282288Y-99381206D01*
X134188888Y-99361353D01*
X134101944Y-99342872D01*
X134101939Y-99342872D01*
X134095487Y-99341500D01*
X133904513Y-99341500D01*
X133898061Y-99342872D01*
X133898056Y-99342872D01*
X133811113Y-99361353D01*
X133717712Y-99381206D01*
X133711682Y-99383891D01*
X133711681Y-99383891D01*
X133549278Y-99456197D01*
X133549276Y-99456198D01*
X133543248Y-99458882D01*
X133388747Y-99571134D01*
X133260960Y-99713056D01*
X133165473Y-99878444D01*
X133106458Y-100060072D01*
X133105768Y-100066633D01*
X133105768Y-100066635D01*
X133090670Y-100210285D01*
X133086496Y-100250000D01*
X118010391Y-100250000D01*
X118009916Y-97240000D01*
X123706496Y-97240000D01*
X123726458Y-97429928D01*
X123785473Y-97611556D01*
X123880960Y-97776944D01*
X124008747Y-97918866D01*
X124163248Y-98031118D01*
X124169276Y-98033802D01*
X124169278Y-98033803D01*
X124331681Y-98106109D01*
X124337712Y-98108794D01*
X124431113Y-98128647D01*
X124518056Y-98147128D01*
X124518061Y-98147128D01*
X124524513Y-98148500D01*
X124715487Y-98148500D01*
X124721939Y-98147128D01*
X124721944Y-98147128D01*
X124808887Y-98128647D01*
X124902288Y-98108794D01*
X124908319Y-98106109D01*
X125070722Y-98033803D01*
X125070724Y-98033802D01*
X125076752Y-98031118D01*
X125231253Y-97918866D01*
X125359040Y-97776944D01*
X125454527Y-97611556D01*
X125513542Y-97429928D01*
X125533504Y-97240000D01*
X125519064Y-97102613D01*
X125514232Y-97056635D01*
X125514232Y-97056633D01*
X125513542Y-97050072D01*
X125454527Y-96868444D01*
X125359040Y-96703056D01*
X125335722Y-96677158D01*
X125235675Y-96566045D01*
X125235674Y-96566044D01*
X125231253Y-96561134D01*
X125076752Y-96448882D01*
X125070724Y-96446198D01*
X125070722Y-96446197D01*
X124908319Y-96373891D01*
X124908318Y-96373891D01*
X124902288Y-96371206D01*
X124786362Y-96346565D01*
X124721944Y-96332872D01*
X124721939Y-96332872D01*
X124715487Y-96331500D01*
X124524513Y-96331500D01*
X124518061Y-96332872D01*
X124518056Y-96332872D01*
X124453638Y-96346565D01*
X124337712Y-96371206D01*
X124331682Y-96373891D01*
X124331681Y-96373891D01*
X124169278Y-96446197D01*
X124169276Y-96446198D01*
X124163248Y-96448882D01*
X124008747Y-96561134D01*
X124004326Y-96566044D01*
X124004325Y-96566045D01*
X123904279Y-96677158D01*
X123880960Y-96703056D01*
X123785473Y-96868444D01*
X123726458Y-97050072D01*
X123725768Y-97056633D01*
X123725768Y-97056635D01*
X123720936Y-97102613D01*
X123706496Y-97240000D01*
X118009916Y-97240000D01*
X118009664Y-95640000D01*
X127926496Y-95640000D01*
X127927186Y-95646565D01*
X127944235Y-95808774D01*
X127946458Y-95829928D01*
X128005473Y-96011556D01*
X128100960Y-96176944D01*
X128228747Y-96318866D01*
X128383248Y-96431118D01*
X128389276Y-96433802D01*
X128389278Y-96433803D01*
X128438231Y-96455598D01*
X128557712Y-96508794D01*
X128626263Y-96523365D01*
X128738056Y-96547128D01*
X128738061Y-96547128D01*
X128744513Y-96548500D01*
X128935487Y-96548500D01*
X128941939Y-96547128D01*
X128941944Y-96547128D01*
X129053737Y-96523365D01*
X129122288Y-96508794D01*
X129241769Y-96455598D01*
X129290722Y-96433803D01*
X129290724Y-96433802D01*
X129296752Y-96431118D01*
X129422165Y-96340000D01*
X140016496Y-96340000D01*
X140017186Y-96346565D01*
X140034703Y-96513226D01*
X140036458Y-96529928D01*
X140095473Y-96711556D01*
X140098776Y-96717278D01*
X140098777Y-96717279D01*
X140132686Y-96776010D01*
X140190960Y-96876944D01*
X140195378Y-96881851D01*
X140195379Y-96881852D01*
X140233893Y-96924626D01*
X140318747Y-97018866D01*
X140417843Y-97090864D01*
X140436579Y-97104476D01*
X140473248Y-97131118D01*
X140479276Y-97133802D01*
X140479278Y-97133803D01*
X140590900Y-97183500D01*
X140647712Y-97208794D01*
X140741112Y-97228647D01*
X140828056Y-97247128D01*
X140828061Y-97247128D01*
X140834513Y-97248500D01*
X141025487Y-97248500D01*
X141031939Y-97247128D01*
X141031944Y-97247128D01*
X141118887Y-97228647D01*
X141212288Y-97208794D01*
X141269100Y-97183500D01*
X141380722Y-97133803D01*
X141380724Y-97133802D01*
X141386752Y-97131118D01*
X141423422Y-97104476D01*
X141442157Y-97090864D01*
X141541253Y-97018866D01*
X141626107Y-96924626D01*
X141664621Y-96881852D01*
X141664622Y-96881851D01*
X141669040Y-96876944D01*
X141727314Y-96776010D01*
X141761223Y-96717279D01*
X141761224Y-96717278D01*
X141764527Y-96711556D01*
X141823542Y-96529928D01*
X141825298Y-96513226D01*
X141842814Y-96346565D01*
X141843504Y-96340000D01*
X141826882Y-96181852D01*
X141824232Y-96156635D01*
X141824232Y-96156633D01*
X141823542Y-96150072D01*
X141812983Y-96117575D01*
X157111404Y-96117575D01*
X157130218Y-96324303D01*
X157131956Y-96330209D01*
X157131957Y-96330213D01*
X157143618Y-96369834D01*
X157188827Y-96523440D01*
X157284999Y-96707400D01*
X157415071Y-96869177D01*
X157419788Y-96873135D01*
X157419790Y-96873137D01*
X157483022Y-96926195D01*
X157574089Y-97002609D01*
X157579481Y-97005573D01*
X157579485Y-97005576D01*
X157750598Y-97099646D01*
X157755995Y-97102613D01*
X157953861Y-97165379D01*
X157959978Y-97166065D01*
X157959982Y-97166066D01*
X158036598Y-97174659D01*
X158115413Y-97183500D01*
X158627237Y-97183500D01*
X158630293Y-97183200D01*
X158630300Y-97183200D01*
X158775466Y-97168966D01*
X158775469Y-97168965D01*
X158781592Y-97168365D01*
X158917817Y-97127237D01*
X158974407Y-97110152D01*
X158974410Y-97110151D01*
X158980315Y-97108368D01*
X158987635Y-97104476D01*
X159158153Y-97013809D01*
X159158155Y-97013808D01*
X159163599Y-97010913D01*
X159286832Y-96910407D01*
X159319689Y-96883610D01*
X159319692Y-96883607D01*
X159324464Y-96879715D01*
X159456783Y-96719770D01*
X159460876Y-96712201D01*
X159552584Y-96542590D01*
X159552586Y-96542585D01*
X159555514Y-96537170D01*
X159616898Y-96338871D01*
X159618429Y-96324303D01*
X159637952Y-96138554D01*
X159637952Y-96138552D01*
X159638596Y-96132425D01*
X159627024Y-96005271D01*
X159620341Y-95931836D01*
X159620340Y-95931833D01*
X159619782Y-95925697D01*
X159617298Y-95917255D01*
X159562912Y-95732469D01*
X159561173Y-95726560D01*
X159465001Y-95542600D01*
X159334929Y-95380823D01*
X159322371Y-95370285D01*
X159200937Y-95268390D01*
X159175911Y-95247391D01*
X159170519Y-95244427D01*
X159170515Y-95244424D01*
X158999402Y-95150354D01*
X158994005Y-95147387D01*
X158796139Y-95084621D01*
X158790022Y-95083935D01*
X158790018Y-95083934D01*
X158713402Y-95075341D01*
X158634587Y-95066500D01*
X158122763Y-95066500D01*
X158119707Y-95066800D01*
X158119700Y-95066800D01*
X157974534Y-95081034D01*
X157974531Y-95081035D01*
X157968408Y-95081635D01*
X157841285Y-95120015D01*
X157775593Y-95139848D01*
X157775590Y-95139849D01*
X157769685Y-95141632D01*
X157764240Y-95144527D01*
X157764238Y-95144528D01*
X157591847Y-95236191D01*
X157591845Y-95236192D01*
X157586401Y-95239087D01*
X157541876Y-95275401D01*
X157430311Y-95366390D01*
X157430308Y-95366393D01*
X157425536Y-95370285D01*
X157421608Y-95375033D01*
X157421607Y-95375034D01*
X157343181Y-95469834D01*
X157293217Y-95530230D01*
X157290288Y-95535647D01*
X157290286Y-95535650D01*
X157197416Y-95707410D01*
X157197414Y-95707415D01*
X157194486Y-95712830D01*
X157133102Y-95911129D01*
X157132458Y-95917254D01*
X157132458Y-95917255D01*
X157127680Y-95962721D01*
X157111404Y-96117575D01*
X141812983Y-96117575D01*
X141764527Y-95968444D01*
X141747666Y-95939239D01*
X141688179Y-95836206D01*
X141669040Y-95803056D01*
X141595248Y-95721101D01*
X141545675Y-95666045D01*
X141545674Y-95666044D01*
X141541253Y-95661134D01*
X141386752Y-95548882D01*
X141380724Y-95546198D01*
X141380722Y-95546197D01*
X141218319Y-95473891D01*
X141218318Y-95473891D01*
X141212288Y-95471206D01*
X141112861Y-95450072D01*
X141031944Y-95432872D01*
X141031939Y-95432872D01*
X141025487Y-95431500D01*
X140834513Y-95431500D01*
X140828061Y-95432872D01*
X140828056Y-95432872D01*
X140747139Y-95450072D01*
X140647712Y-95471206D01*
X140641682Y-95473891D01*
X140641681Y-95473891D01*
X140479278Y-95546197D01*
X140479276Y-95546198D01*
X140473248Y-95548882D01*
X140318747Y-95661134D01*
X140314326Y-95666044D01*
X140314325Y-95666045D01*
X140264753Y-95721101D01*
X140190960Y-95803056D01*
X140171821Y-95836206D01*
X140112335Y-95939239D01*
X140095473Y-95968444D01*
X140036458Y-96150072D01*
X140035768Y-96156633D01*
X140035768Y-96156635D01*
X140033118Y-96181852D01*
X140016496Y-96340000D01*
X129422165Y-96340000D01*
X129451253Y-96318866D01*
X129579040Y-96176944D01*
X129674527Y-96011556D01*
X129733542Y-95829928D01*
X129735766Y-95808774D01*
X129752814Y-95646565D01*
X129753504Y-95640000D01*
X129736417Y-95477428D01*
X129734232Y-95456635D01*
X129734232Y-95456633D01*
X129733542Y-95450072D01*
X129674527Y-95268444D01*
X129674692Y-95268390D01*
X129665665Y-95201060D01*
X129695771Y-95136763D01*
X129755860Y-95098949D01*
X129764007Y-95096932D01*
X129795825Y-95090168D01*
X129795827Y-95090167D01*
X129802288Y-95088794D01*
X129813204Y-95083934D01*
X129970722Y-95013803D01*
X129970724Y-95013802D01*
X129976752Y-95011118D01*
X130131253Y-94898866D01*
X130206322Y-94815493D01*
X130254621Y-94761852D01*
X130254622Y-94761851D01*
X130259040Y-94756944D01*
X130354527Y-94591556D01*
X130413542Y-94409928D01*
X130433504Y-94220000D01*
X130413542Y-94030072D01*
X130354527Y-93848444D01*
X130259040Y-93683056D01*
X130131253Y-93541134D01*
X129976752Y-93428882D01*
X129970724Y-93426198D01*
X129970722Y-93426197D01*
X129808319Y-93353891D01*
X129808318Y-93353891D01*
X129802288Y-93351206D01*
X129708887Y-93331353D01*
X129621944Y-93312872D01*
X129621939Y-93312872D01*
X129615487Y-93311500D01*
X129424513Y-93311500D01*
X129418061Y-93312872D01*
X129418056Y-93312872D01*
X129331112Y-93331353D01*
X129237712Y-93351206D01*
X129231682Y-93353891D01*
X129231681Y-93353891D01*
X129069278Y-93426197D01*
X129069276Y-93426198D01*
X129063248Y-93428882D01*
X128908747Y-93541134D01*
X128780960Y-93683056D01*
X128685473Y-93848444D01*
X128626458Y-94030072D01*
X128606496Y-94220000D01*
X128626458Y-94409928D01*
X128685180Y-94590654D01*
X128685473Y-94591556D01*
X128685308Y-94591610D01*
X128694335Y-94658940D01*
X128664229Y-94723237D01*
X128604140Y-94761051D01*
X128595993Y-94763068D01*
X128564175Y-94769832D01*
X128564173Y-94769833D01*
X128557712Y-94771206D01*
X128551682Y-94773891D01*
X128551681Y-94773891D01*
X128389278Y-94846197D01*
X128389276Y-94846198D01*
X128383248Y-94848882D01*
X128228747Y-94961134D01*
X128224326Y-94966044D01*
X128224325Y-94966045D01*
X128113802Y-95088794D01*
X128100960Y-95103056D01*
X128005473Y-95268444D01*
X127946458Y-95450072D01*
X127945768Y-95456633D01*
X127945768Y-95456635D01*
X127943583Y-95477428D01*
X127926496Y-95640000D01*
X118009664Y-95640000D01*
X118009076Y-91909065D01*
X119877595Y-91909065D01*
X119877644Y-91909755D01*
X119881209Y-91915100D01*
X120209802Y-92171363D01*
X120214359Y-92174602D01*
X120569448Y-92403880D01*
X120574250Y-92406686D01*
X120948316Y-92603491D01*
X120953374Y-92605871D01*
X121343435Y-92768638D01*
X121348690Y-92770561D01*
X121751676Y-92898008D01*
X121757075Y-92899455D01*
X122169796Y-92990575D01*
X122175307Y-92991537D01*
X122594501Y-93045610D01*
X122600064Y-93046077D01*
X123022405Y-93062670D01*
X123027997Y-93062641D01*
X123450125Y-93041626D01*
X123455708Y-93041098D01*
X123874305Y-92982640D01*
X123879792Y-92981623D01*
X124291543Y-92886185D01*
X124296929Y-92884681D01*
X124698567Y-92753018D01*
X124703784Y-92751046D01*
X125092126Y-92584202D01*
X125097169Y-92581764D01*
X125469131Y-92381063D01*
X125473935Y-92378188D01*
X125826563Y-92145231D01*
X125831126Y-92141916D01*
X126112173Y-91917961D01*
X126120643Y-91905904D01*
X126114216Y-91894546D01*
X123012812Y-88793142D01*
X122998868Y-88785528D01*
X122997035Y-88785659D01*
X122990420Y-88789910D01*
X119885209Y-91895121D01*
X119877595Y-91909065D01*
X118009076Y-91909065D01*
X118008630Y-89081415D01*
X118028621Y-89013292D01*
X118082270Y-88966791D01*
X118152542Y-88956676D01*
X118217127Y-88986159D01*
X118255521Y-89045879D01*
X118258209Y-89056815D01*
X118325535Y-89395286D01*
X118326864Y-89400698D01*
X118445852Y-89806289D01*
X118447658Y-89811564D01*
X118602219Y-90204948D01*
X118604501Y-90210072D01*
X118793416Y-90588150D01*
X118796140Y-90593043D01*
X119017917Y-90952833D01*
X119021068Y-90957469D01*
X119273955Y-91296127D01*
X119277488Y-91300444D01*
X119332371Y-91361719D01*
X119345866Y-91370082D01*
X119355277Y-91364393D01*
X122468538Y-88251132D01*
X123535528Y-88251132D01*
X123535659Y-88252965D01*
X123539910Y-88259580D01*
X126642094Y-91361764D01*
X126655855Y-91369278D01*
X126665215Y-91362820D01*
X126746617Y-91270000D01*
X130816496Y-91270000D01*
X130817186Y-91276565D01*
X130833011Y-91427128D01*
X130836458Y-91459928D01*
X130895473Y-91641556D01*
X130898776Y-91647278D01*
X130898777Y-91647279D01*
X130909649Y-91666109D01*
X130990960Y-91806944D01*
X131118747Y-91948866D01*
X131273248Y-92061118D01*
X131279276Y-92063802D01*
X131279278Y-92063803D01*
X131441681Y-92136109D01*
X131447712Y-92138794D01*
X131541113Y-92158647D01*
X131628056Y-92177128D01*
X131628061Y-92177128D01*
X131634513Y-92178500D01*
X131825487Y-92178500D01*
X131831939Y-92177128D01*
X131831944Y-92177128D01*
X131918887Y-92158647D01*
X132012288Y-92138794D01*
X132018319Y-92136109D01*
X132180722Y-92063803D01*
X132180724Y-92063802D01*
X132186752Y-92061118D01*
X132341253Y-91948866D01*
X132469040Y-91806944D01*
X132550351Y-91666109D01*
X132561223Y-91647279D01*
X132561224Y-91647278D01*
X132564527Y-91641556D01*
X132623542Y-91459928D01*
X132626990Y-91427128D01*
X132642814Y-91276565D01*
X132643504Y-91270000D01*
X134086496Y-91270000D01*
X134087186Y-91276565D01*
X134103011Y-91427128D01*
X134106458Y-91459928D01*
X134165473Y-91641556D01*
X134168776Y-91647278D01*
X134168777Y-91647279D01*
X134179649Y-91666109D01*
X134260960Y-91806944D01*
X134388747Y-91948866D01*
X134543248Y-92061118D01*
X134549276Y-92063802D01*
X134549278Y-92063803D01*
X134711681Y-92136109D01*
X134717712Y-92138794D01*
X134811113Y-92158647D01*
X134898056Y-92177128D01*
X134898061Y-92177128D01*
X134904513Y-92178500D01*
X134980349Y-92178500D01*
X135048470Y-92198502D01*
X135094963Y-92252158D01*
X135105659Y-92317670D01*
X135092673Y-92441226D01*
X135086496Y-92500000D01*
X135106458Y-92689928D01*
X135165473Y-92871556D01*
X135168776Y-92877278D01*
X135168777Y-92877279D01*
X135202686Y-92936010D01*
X135260960Y-93036944D01*
X135265378Y-93041851D01*
X135265379Y-93041852D01*
X135284124Y-93062670D01*
X135388747Y-93178866D01*
X135543248Y-93291118D01*
X135549276Y-93293802D01*
X135549278Y-93293803D01*
X135684239Y-93353891D01*
X135717712Y-93368794D01*
X135811113Y-93388647D01*
X135898056Y-93407128D01*
X135898061Y-93407128D01*
X135904513Y-93408500D01*
X136095487Y-93408500D01*
X136101939Y-93407128D01*
X136101944Y-93407128D01*
X136188888Y-93388647D01*
X136282288Y-93368794D01*
X136315761Y-93353891D01*
X136450722Y-93293803D01*
X136450724Y-93293802D01*
X136456752Y-93291118D01*
X136611253Y-93178866D01*
X136715876Y-93062670D01*
X136734621Y-93041852D01*
X136734622Y-93041851D01*
X136739040Y-93036944D01*
X136797314Y-92936010D01*
X136831223Y-92877279D01*
X136831224Y-92877278D01*
X136834527Y-92871556D01*
X136893542Y-92689928D01*
X136913504Y-92500000D01*
X136907327Y-92441226D01*
X136894232Y-92316635D01*
X136894232Y-92316633D01*
X136893542Y-92310072D01*
X136834527Y-92128444D01*
X136739040Y-91963056D01*
X136691269Y-91910000D01*
X144506496Y-91910000D01*
X144526458Y-92099928D01*
X144585473Y-92281556D01*
X144680960Y-92446944D01*
X144685378Y-92451851D01*
X144685379Y-92451852D01*
X144728732Y-92500000D01*
X144808747Y-92588866D01*
X144963248Y-92701118D01*
X144969276Y-92703802D01*
X144969278Y-92703803D01*
X145114901Y-92768638D01*
X145137712Y-92778794D01*
X145231113Y-92798647D01*
X145318056Y-92817128D01*
X145318061Y-92817128D01*
X145324513Y-92818500D01*
X145515487Y-92818500D01*
X145521939Y-92817128D01*
X145521944Y-92817128D01*
X145608888Y-92798647D01*
X145702288Y-92778794D01*
X145725099Y-92768638D01*
X145870722Y-92703803D01*
X145870724Y-92703802D01*
X145876752Y-92701118D01*
X146031253Y-92588866D01*
X146111268Y-92500000D01*
X146154621Y-92451852D01*
X146154622Y-92451851D01*
X146159040Y-92446944D01*
X146254527Y-92281556D01*
X146313542Y-92099928D01*
X146333504Y-91910000D01*
X146333406Y-91909065D01*
X154627595Y-91909065D01*
X154627644Y-91909755D01*
X154631209Y-91915100D01*
X154959802Y-92171363D01*
X154964359Y-92174602D01*
X155319448Y-92403880D01*
X155324250Y-92406686D01*
X155698316Y-92603491D01*
X155703374Y-92605871D01*
X156093435Y-92768638D01*
X156098690Y-92770561D01*
X156501676Y-92898008D01*
X156507075Y-92899455D01*
X156919796Y-92990575D01*
X156925307Y-92991537D01*
X157344501Y-93045610D01*
X157350064Y-93046077D01*
X157772405Y-93062670D01*
X157777997Y-93062641D01*
X158200125Y-93041626D01*
X158205708Y-93041098D01*
X158624305Y-92982640D01*
X158629792Y-92981623D01*
X159041543Y-92886185D01*
X159046929Y-92884681D01*
X159448567Y-92753018D01*
X159453784Y-92751046D01*
X159842126Y-92584202D01*
X159847169Y-92581764D01*
X160219131Y-92381063D01*
X160223935Y-92378188D01*
X160576563Y-92145231D01*
X160581126Y-92141916D01*
X160862173Y-91917961D01*
X160870643Y-91905904D01*
X160864216Y-91894546D01*
X157762812Y-88793142D01*
X157748868Y-88785528D01*
X157747035Y-88785659D01*
X157740420Y-88789910D01*
X154635209Y-91895121D01*
X154627595Y-91909065D01*
X146333406Y-91909065D01*
X146313542Y-91720072D01*
X146254527Y-91538444D01*
X146242633Y-91517842D01*
X146209196Y-91459928D01*
X146159040Y-91373056D01*
X146149824Y-91362820D01*
X146035675Y-91236045D01*
X146035674Y-91236044D01*
X146031253Y-91231134D01*
X145876752Y-91118882D01*
X145870724Y-91116198D01*
X145870722Y-91116197D01*
X145708319Y-91043891D01*
X145708318Y-91043891D01*
X145702288Y-91041206D01*
X145608887Y-91021353D01*
X145521944Y-91002872D01*
X145521939Y-91002872D01*
X145515487Y-91001500D01*
X145324513Y-91001500D01*
X145318061Y-91002872D01*
X145318056Y-91002872D01*
X145231113Y-91021353D01*
X145137712Y-91041206D01*
X145131682Y-91043891D01*
X145131681Y-91043891D01*
X144969278Y-91116197D01*
X144969276Y-91116198D01*
X144963248Y-91118882D01*
X144808747Y-91231134D01*
X144804326Y-91236044D01*
X144804325Y-91236045D01*
X144690177Y-91362820D01*
X144680960Y-91373056D01*
X144630804Y-91459928D01*
X144597368Y-91517842D01*
X144585473Y-91538444D01*
X144526458Y-91720072D01*
X144506496Y-91910000D01*
X136691269Y-91910000D01*
X136662400Y-91877938D01*
X136631684Y-91813933D01*
X136640448Y-91743479D01*
X136685910Y-91688948D01*
X136753638Y-91667653D01*
X136782234Y-91670383D01*
X136908056Y-91697128D01*
X136908061Y-91697128D01*
X136914513Y-91698500D01*
X137105487Y-91698500D01*
X137111939Y-91697128D01*
X137111944Y-91697128D01*
X137198887Y-91678647D01*
X137292288Y-91658794D01*
X137298319Y-91656109D01*
X137460722Y-91583803D01*
X137460724Y-91583802D01*
X137466752Y-91581118D01*
X137514371Y-91546521D01*
X137533364Y-91532721D01*
X137621253Y-91468866D01*
X137707521Y-91373056D01*
X137744621Y-91331852D01*
X137744625Y-91331847D01*
X137749040Y-91326944D01*
X137835449Y-91177279D01*
X137841223Y-91167279D01*
X137841224Y-91167278D01*
X137844527Y-91161556D01*
X137903542Y-90979928D01*
X137923504Y-90790000D01*
X137903542Y-90600072D01*
X137877525Y-90520000D01*
X139096496Y-90520000D01*
X139097186Y-90526565D01*
X139104489Y-90596045D01*
X139116458Y-90709928D01*
X139175473Y-90891556D01*
X139178776Y-90897278D01*
X139178777Y-90897279D01*
X139189381Y-90915645D01*
X139270960Y-91056944D01*
X139275378Y-91061851D01*
X139275379Y-91061852D01*
X139365153Y-91161556D01*
X139398747Y-91198866D01*
X139469698Y-91250415D01*
X139538557Y-91300444D01*
X139553248Y-91311118D01*
X139559276Y-91313802D01*
X139559278Y-91313803D01*
X139721681Y-91386109D01*
X139727712Y-91388794D01*
X139821112Y-91408647D01*
X139908056Y-91427128D01*
X139908061Y-91427128D01*
X139914513Y-91428500D01*
X140105487Y-91428500D01*
X140111939Y-91427128D01*
X140111944Y-91427128D01*
X140198888Y-91408647D01*
X140292288Y-91388794D01*
X140298319Y-91386109D01*
X140460722Y-91313803D01*
X140460724Y-91313802D01*
X140466752Y-91311118D01*
X140481444Y-91300444D01*
X140550302Y-91250415D01*
X140617169Y-91226557D01*
X140686321Y-91242637D01*
X140733482Y-91289351D01*
X140760960Y-91336944D01*
X140765378Y-91341851D01*
X140765379Y-91341852D01*
X140793475Y-91373056D01*
X140888747Y-91478866D01*
X140942393Y-91517842D01*
X141024143Y-91577237D01*
X141043248Y-91591118D01*
X141049276Y-91593802D01*
X141049278Y-91593803D01*
X141198333Y-91660166D01*
X141217712Y-91668794D01*
X141311112Y-91688647D01*
X141398056Y-91707128D01*
X141398061Y-91707128D01*
X141404513Y-91708500D01*
X141595487Y-91708500D01*
X141601939Y-91707128D01*
X141601944Y-91707128D01*
X141688888Y-91688647D01*
X141782288Y-91668794D01*
X141801667Y-91660166D01*
X141950722Y-91593803D01*
X141950724Y-91593802D01*
X141956752Y-91591118D01*
X141975858Y-91577237D01*
X142057607Y-91517842D01*
X142111253Y-91478866D01*
X142206525Y-91373056D01*
X142234621Y-91341852D01*
X142234622Y-91341851D01*
X142239040Y-91336944D01*
X142334527Y-91171556D01*
X142393542Y-90989928D01*
X142413504Y-90800000D01*
X142393542Y-90610072D01*
X142334527Y-90428444D01*
X142328754Y-90418444D01*
X142242341Y-90268774D01*
X142239040Y-90263056D01*
X142186720Y-90204948D01*
X142115675Y-90126045D01*
X142115674Y-90126044D01*
X142111253Y-90121134D01*
X141956752Y-90008882D01*
X141950724Y-90006198D01*
X141950722Y-90006197D01*
X141788319Y-89933891D01*
X141788318Y-89933891D01*
X141782288Y-89931206D01*
X141688888Y-89911353D01*
X141601944Y-89892872D01*
X141601939Y-89892872D01*
X141595487Y-89891500D01*
X141404513Y-89891500D01*
X141398061Y-89892872D01*
X141398056Y-89892872D01*
X141311112Y-89911353D01*
X141217712Y-89931206D01*
X141211682Y-89933891D01*
X141211681Y-89933891D01*
X141049278Y-90006197D01*
X141049276Y-90006198D01*
X141043248Y-90008882D01*
X141037907Y-90012762D01*
X141037906Y-90012763D01*
X140959698Y-90069585D01*
X140892831Y-90093443D01*
X140823679Y-90077363D01*
X140776518Y-90030649D01*
X140752341Y-89988774D01*
X140749040Y-89983056D01*
X140636890Y-89858500D01*
X140625675Y-89846045D01*
X140625674Y-89846044D01*
X140621253Y-89841134D01*
X140486690Y-89743368D01*
X140472094Y-89732763D01*
X140472093Y-89732762D01*
X140466752Y-89728882D01*
X140460724Y-89726198D01*
X140460722Y-89726197D01*
X140298319Y-89653891D01*
X140298318Y-89653891D01*
X140292288Y-89651206D01*
X140187187Y-89628866D01*
X140111944Y-89612872D01*
X140111939Y-89612872D01*
X140105487Y-89611500D01*
X139914513Y-89611500D01*
X139908061Y-89612872D01*
X139908056Y-89612872D01*
X139832813Y-89628866D01*
X139727712Y-89651206D01*
X139721682Y-89653891D01*
X139721681Y-89653891D01*
X139559278Y-89726197D01*
X139559276Y-89726198D01*
X139553248Y-89728882D01*
X139547907Y-89732762D01*
X139547906Y-89732763D01*
X139533310Y-89743368D01*
X139398747Y-89841134D01*
X139394326Y-89846044D01*
X139394325Y-89846045D01*
X139383111Y-89858500D01*
X139270960Y-89983056D01*
X139175473Y-90148444D01*
X139116458Y-90330072D01*
X139115768Y-90336633D01*
X139115768Y-90336635D01*
X139108699Y-90403891D01*
X139096496Y-90520000D01*
X137877525Y-90520000D01*
X137844527Y-90418444D01*
X137833783Y-90399834D01*
X137758115Y-90268774D01*
X137749040Y-90253056D01*
X137705724Y-90204948D01*
X137625675Y-90116045D01*
X137625674Y-90116044D01*
X137621253Y-90111134D01*
X137510475Y-90030649D01*
X137472094Y-90002763D01*
X137472093Y-90002762D01*
X137466752Y-89998882D01*
X137460724Y-89996198D01*
X137460722Y-89996197D01*
X137298319Y-89923891D01*
X137298318Y-89923891D01*
X137292288Y-89921206D01*
X137198887Y-89901353D01*
X137111944Y-89882872D01*
X137111939Y-89882872D01*
X137105487Y-89881500D01*
X136914513Y-89881500D01*
X136908061Y-89882872D01*
X136908056Y-89882872D01*
X136821113Y-89901353D01*
X136727712Y-89921206D01*
X136721682Y-89923891D01*
X136721681Y-89923891D01*
X136559278Y-89996197D01*
X136559276Y-89996198D01*
X136553248Y-89998882D01*
X136547907Y-90002762D01*
X136547906Y-90002763D01*
X136509525Y-90030649D01*
X136398747Y-90111134D01*
X136394326Y-90116044D01*
X136394325Y-90116045D01*
X136314277Y-90204948D01*
X136270960Y-90253056D01*
X136261885Y-90268774D01*
X136186218Y-90399834D01*
X136175473Y-90418444D01*
X136116458Y-90600072D01*
X136096496Y-90790000D01*
X136113294Y-90949821D01*
X136103202Y-91005004D01*
X136138539Y-91049069D01*
X136141849Y-91058073D01*
X136175473Y-91161556D01*
X136178776Y-91167278D01*
X136178777Y-91167279D01*
X136184551Y-91177279D01*
X136270960Y-91326944D01*
X136347600Y-91412062D01*
X136378316Y-91476067D01*
X136369552Y-91546521D01*
X136324090Y-91601052D01*
X136256362Y-91622347D01*
X136227766Y-91619617D01*
X136101944Y-91592872D01*
X136101939Y-91592872D01*
X136095487Y-91591500D01*
X136019651Y-91591500D01*
X135951530Y-91571498D01*
X135905037Y-91517842D01*
X135894341Y-91452330D01*
X135912814Y-91276565D01*
X135913504Y-91270000D01*
X135896706Y-91110179D01*
X135906798Y-91054996D01*
X135871461Y-91010931D01*
X135868151Y-91001927D01*
X135840116Y-90915645D01*
X135834527Y-90898444D01*
X135739040Y-90733056D01*
X135718216Y-90709928D01*
X135615675Y-90596045D01*
X135615674Y-90596044D01*
X135611253Y-90591134D01*
X135456752Y-90478882D01*
X135450724Y-90476198D01*
X135450722Y-90476197D01*
X135288319Y-90403891D01*
X135288318Y-90403891D01*
X135282288Y-90401206D01*
X135188888Y-90381353D01*
X135101944Y-90362872D01*
X135101939Y-90362872D01*
X135095487Y-90361500D01*
X134904513Y-90361500D01*
X134898061Y-90362872D01*
X134898056Y-90362872D01*
X134811112Y-90381353D01*
X134717712Y-90401206D01*
X134711682Y-90403891D01*
X134711681Y-90403891D01*
X134549278Y-90476197D01*
X134549276Y-90476198D01*
X134543248Y-90478882D01*
X134388747Y-90591134D01*
X134384326Y-90596044D01*
X134384325Y-90596045D01*
X134281785Y-90709928D01*
X134260960Y-90733056D01*
X134165473Y-90898444D01*
X134106458Y-91080072D01*
X134105768Y-91086633D01*
X134105768Y-91086635D01*
X134093972Y-91198866D01*
X134086496Y-91270000D01*
X132643504Y-91270000D01*
X132636028Y-91198866D01*
X132624232Y-91086635D01*
X132624232Y-91086633D01*
X132623542Y-91080072D01*
X132564527Y-90898444D01*
X132469040Y-90733056D01*
X132448216Y-90709928D01*
X132345675Y-90596045D01*
X132345674Y-90596044D01*
X132341253Y-90591134D01*
X132186752Y-90478882D01*
X132180724Y-90476198D01*
X132180722Y-90476197D01*
X132018319Y-90403891D01*
X132018318Y-90403891D01*
X132012288Y-90401206D01*
X131918888Y-90381353D01*
X131831944Y-90362872D01*
X131831939Y-90362872D01*
X131825487Y-90361500D01*
X131634513Y-90361500D01*
X131628061Y-90362872D01*
X131628056Y-90362872D01*
X131541112Y-90381353D01*
X131447712Y-90401206D01*
X131441682Y-90403891D01*
X131441681Y-90403891D01*
X131279278Y-90476197D01*
X131279276Y-90476198D01*
X131273248Y-90478882D01*
X131118747Y-90591134D01*
X131114326Y-90596044D01*
X131114325Y-90596045D01*
X131011785Y-90709928D01*
X130990960Y-90733056D01*
X130895473Y-90898444D01*
X130836458Y-91080072D01*
X130835768Y-91086633D01*
X130835768Y-91086635D01*
X130823972Y-91198866D01*
X130816496Y-91270000D01*
X126746617Y-91270000D01*
X126754244Y-91261303D01*
X126757744Y-91256935D01*
X127007073Y-90915645D01*
X127010168Y-90910987D01*
X127228160Y-90548903D01*
X127230841Y-90543964D01*
X127415779Y-90163946D01*
X127418014Y-90158780D01*
X127568442Y-89763815D01*
X127570201Y-89758496D01*
X127684920Y-89351730D01*
X127686204Y-89346259D01*
X127734055Y-89091798D01*
X130476901Y-89091798D01*
X130481259Y-89133261D01*
X130483989Y-89146102D01*
X130538889Y-89315066D01*
X130544235Y-89327074D01*
X130633062Y-89480927D01*
X130640786Y-89491558D01*
X130759663Y-89623585D01*
X130769426Y-89632376D01*
X130913157Y-89736802D01*
X130924529Y-89743368D01*
X130983450Y-89769601D01*
X130997427Y-89771475D01*
X131000000Y-89767387D01*
X131000000Y-89093115D01*
X130995525Y-89077876D01*
X130994135Y-89076671D01*
X130986452Y-89075000D01*
X130493251Y-89075000D01*
X130478959Y-89079197D01*
X130476901Y-89091798D01*
X127734055Y-89091798D01*
X127751767Y-88997610D01*
X131716500Y-88997610D01*
X131731458Y-89139928D01*
X131733498Y-89146206D01*
X131743833Y-89178014D01*
X131750000Y-89216950D01*
X131750000Y-89758855D01*
X131753973Y-89772386D01*
X131758753Y-89773073D01*
X131825471Y-89743368D01*
X131836843Y-89736802D01*
X131925515Y-89672378D01*
X131992383Y-89648519D01*
X132061534Y-89664600D01*
X132073620Y-89672366D01*
X132168248Y-89741118D01*
X132174276Y-89743802D01*
X132174278Y-89743803D01*
X132306663Y-89802744D01*
X132342712Y-89818794D01*
X132429545Y-89837251D01*
X132523056Y-89857128D01*
X132523061Y-89857128D01*
X132529513Y-89858500D01*
X132720487Y-89858500D01*
X132726939Y-89857128D01*
X132726944Y-89857128D01*
X132820455Y-89837251D01*
X132907288Y-89818794D01*
X132943337Y-89802744D01*
X133075722Y-89743803D01*
X133075724Y-89743802D01*
X133081752Y-89741118D01*
X133087693Y-89736802D01*
X133175939Y-89672687D01*
X133242807Y-89648828D01*
X133311958Y-89664909D01*
X133324061Y-89672687D01*
X133412308Y-89736802D01*
X133418248Y-89741118D01*
X133424276Y-89743802D01*
X133424278Y-89743803D01*
X133556663Y-89802744D01*
X133592712Y-89818794D01*
X133679545Y-89837251D01*
X133773056Y-89857128D01*
X133773061Y-89857128D01*
X133779513Y-89858500D01*
X133970487Y-89858500D01*
X133976939Y-89857128D01*
X133976944Y-89857128D01*
X134070455Y-89837251D01*
X134157288Y-89818794D01*
X134193337Y-89802744D01*
X134325722Y-89743803D01*
X134325724Y-89743802D01*
X134331752Y-89741118D01*
X134337693Y-89736802D01*
X134355650Y-89723755D01*
X134422518Y-89699897D01*
X134494982Y-89717915D01*
X134631301Y-89800472D01*
X134638548Y-89802743D01*
X134638550Y-89802744D01*
X134666695Y-89811564D01*
X134794938Y-89851753D01*
X134868365Y-89858500D01*
X134871263Y-89858500D01*
X135125665Y-89858499D01*
X135381634Y-89858499D01*
X135384492Y-89858236D01*
X135384501Y-89858236D01*
X135420004Y-89854974D01*
X135455062Y-89851753D01*
X135583305Y-89811564D01*
X135611450Y-89802744D01*
X135611452Y-89802743D01*
X135618699Y-89800472D01*
X135765381Y-89711639D01*
X135886639Y-89590381D01*
X135975472Y-89443699D01*
X136026753Y-89280062D01*
X136033500Y-89206635D01*
X136033499Y-88193366D01*
X136032552Y-88183050D01*
X136029974Y-88154996D01*
X136026753Y-88119938D01*
X136023639Y-88110000D01*
X139106496Y-88110000D01*
X139107186Y-88116565D01*
X139125697Y-88292684D01*
X139126458Y-88299928D01*
X139185473Y-88481556D01*
X139280960Y-88646944D01*
X139408747Y-88788866D01*
X139563248Y-88901118D01*
X139569276Y-88903802D01*
X139569278Y-88903803D01*
X139731681Y-88976109D01*
X139737712Y-88978794D01*
X139810756Y-88994320D01*
X139918056Y-89017128D01*
X139918061Y-89017128D01*
X139924513Y-89018500D01*
X140115487Y-89018500D01*
X140121939Y-89017128D01*
X140121944Y-89017128D01*
X140229244Y-88994320D01*
X140302288Y-88978794D01*
X140308319Y-88976109D01*
X140470722Y-88903803D01*
X140470724Y-88903802D01*
X140476752Y-88901118D01*
X140631253Y-88788866D01*
X140759040Y-88646944D01*
X140854527Y-88481556D01*
X140913542Y-88299928D01*
X140914304Y-88292684D01*
X140932814Y-88116565D01*
X140933504Y-88110000D01*
X140932814Y-88103435D01*
X140914232Y-87926635D01*
X140914232Y-87926633D01*
X140913542Y-87920072D01*
X140854527Y-87738444D01*
X140823339Y-87684424D01*
X140790142Y-87626927D01*
X140759040Y-87573056D01*
X140730867Y-87541766D01*
X140635675Y-87436045D01*
X140635674Y-87436044D01*
X140631253Y-87431134D01*
X140476752Y-87318882D01*
X140470724Y-87316198D01*
X140470722Y-87316197D01*
X140308319Y-87243891D01*
X140308318Y-87243891D01*
X140302288Y-87241206D01*
X140208887Y-87221353D01*
X140121944Y-87202872D01*
X140121939Y-87202872D01*
X140115487Y-87201500D01*
X139924513Y-87201500D01*
X139918061Y-87202872D01*
X139918056Y-87202872D01*
X139831112Y-87221353D01*
X139737712Y-87241206D01*
X139731682Y-87243891D01*
X139731681Y-87243891D01*
X139569278Y-87316197D01*
X139569276Y-87316198D01*
X139563248Y-87318882D01*
X139408747Y-87431134D01*
X139404326Y-87436044D01*
X139404325Y-87436045D01*
X139309134Y-87541766D01*
X139280960Y-87573056D01*
X139249858Y-87626927D01*
X139216662Y-87684424D01*
X139185473Y-87738444D01*
X139126458Y-87920072D01*
X139125768Y-87926633D01*
X139125768Y-87926635D01*
X139107186Y-88103435D01*
X139106496Y-88110000D01*
X136023639Y-88110000D01*
X136015783Y-88084934D01*
X135977744Y-87963550D01*
X135977743Y-87963548D01*
X135975472Y-87956301D01*
X135886639Y-87809619D01*
X135765381Y-87688361D01*
X135618699Y-87599528D01*
X135611452Y-87597257D01*
X135611450Y-87597256D01*
X135534227Y-87573056D01*
X135455062Y-87548247D01*
X135381635Y-87541500D01*
X135378737Y-87541500D01*
X135124335Y-87541501D01*
X134868366Y-87541501D01*
X134865508Y-87541764D01*
X134865499Y-87541764D01*
X134829996Y-87545026D01*
X134794938Y-87548247D01*
X134788560Y-87550246D01*
X134788559Y-87550246D01*
X134638550Y-87597256D01*
X134638548Y-87597257D01*
X134631301Y-87599528D01*
X134504625Y-87676245D01*
X134494982Y-87682085D01*
X134426352Y-87700264D01*
X134355650Y-87676245D01*
X134337094Y-87662763D01*
X134337092Y-87662762D01*
X134331752Y-87658882D01*
X134325724Y-87656198D01*
X134325722Y-87656197D01*
X134163319Y-87583891D01*
X134163318Y-87583891D01*
X134157288Y-87581206D01*
X134063888Y-87561353D01*
X133976944Y-87542872D01*
X133976939Y-87542872D01*
X133970487Y-87541500D01*
X133779513Y-87541500D01*
X133773061Y-87542872D01*
X133773056Y-87542872D01*
X133686112Y-87561353D01*
X133592712Y-87581206D01*
X133586682Y-87583891D01*
X133586681Y-87583891D01*
X133424278Y-87656197D01*
X133424276Y-87656198D01*
X133418248Y-87658882D01*
X133412907Y-87662762D01*
X133412906Y-87662763D01*
X133324061Y-87727313D01*
X133257193Y-87751172D01*
X133188042Y-87735091D01*
X133175939Y-87727313D01*
X133087094Y-87662763D01*
X133087093Y-87662762D01*
X133081752Y-87658882D01*
X133075724Y-87656198D01*
X133075722Y-87656197D01*
X132913319Y-87583891D01*
X132913318Y-87583891D01*
X132907288Y-87581206D01*
X132813888Y-87561353D01*
X132726944Y-87542872D01*
X132726939Y-87542872D01*
X132720487Y-87541500D01*
X132529513Y-87541500D01*
X132523061Y-87542872D01*
X132523056Y-87542872D01*
X132436112Y-87561353D01*
X132342712Y-87581206D01*
X132336682Y-87583891D01*
X132336681Y-87583891D01*
X132174278Y-87656197D01*
X132174276Y-87656198D01*
X132168248Y-87658882D01*
X132073634Y-87727623D01*
X132006770Y-87751480D01*
X131937618Y-87735400D01*
X131925515Y-87727622D01*
X131836843Y-87663198D01*
X131825471Y-87656632D01*
X131766550Y-87630399D01*
X131752573Y-87628525D01*
X131750000Y-87632613D01*
X131750000Y-88183050D01*
X131743833Y-88221986D01*
X131731458Y-88260072D01*
X131716500Y-88402390D01*
X131716500Y-88997610D01*
X127751767Y-88997610D01*
X127764315Y-88930883D01*
X127765102Y-88925346D01*
X127806035Y-88504102D01*
X127806308Y-88499665D01*
X127811354Y-88306985D01*
X130477029Y-88306985D01*
X130479709Y-88321636D01*
X130492029Y-88325000D01*
X130981885Y-88325000D01*
X130997124Y-88320525D01*
X130998329Y-88319135D01*
X131000000Y-88311452D01*
X131000000Y-87641145D01*
X130996027Y-87627614D01*
X130991247Y-87626927D01*
X130924529Y-87656632D01*
X130913157Y-87663198D01*
X130769426Y-87767624D01*
X130759663Y-87776415D01*
X130640786Y-87908442D01*
X130633062Y-87919073D01*
X130544235Y-88072926D01*
X130538889Y-88084934D01*
X130483989Y-88253898D01*
X130481259Y-88266739D01*
X130477029Y-88306985D01*
X127811354Y-88306985D01*
X127812788Y-88252233D01*
X127812746Y-88247762D01*
X127793917Y-87824973D01*
X127793419Y-87819386D01*
X127737155Y-87400499D01*
X127736162Y-87394976D01*
X127642883Y-86982748D01*
X127641410Y-86977361D01*
X127511847Y-86575025D01*
X127509910Y-86569815D01*
X127345098Y-86180599D01*
X127342683Y-86175536D01*
X127143936Y-85802535D01*
X127141085Y-85797713D01*
X126909974Y-85443865D01*
X126906692Y-85439297D01*
X126668554Y-85137220D01*
X126656629Y-85128749D01*
X126645095Y-85135235D01*
X123543142Y-88237188D01*
X123535528Y-88251132D01*
X122468538Y-88251132D01*
X125798181Y-84921489D01*
X138901227Y-84921489D01*
X138903096Y-84950000D01*
X138914263Y-85120380D01*
X138915684Y-85125976D01*
X138915685Y-85125981D01*
X138961905Y-85307969D01*
X138963326Y-85313564D01*
X138965743Y-85318807D01*
X139021594Y-85439958D01*
X139046772Y-85494573D01*
X139161807Y-85657344D01*
X139304578Y-85796425D01*
X139309382Y-85799635D01*
X139345552Y-85823803D01*
X139470304Y-85907160D01*
X139475607Y-85909438D01*
X139475610Y-85909440D01*
X139591989Y-85959440D01*
X139653435Y-85985839D01*
X139725516Y-86002149D01*
X139842201Y-86028553D01*
X139842207Y-86028554D01*
X139847838Y-86029828D01*
X139853609Y-86030055D01*
X139853611Y-86030055D01*
X139914556Y-86032449D01*
X140047001Y-86037653D01*
X140146959Y-86023160D01*
X140238535Y-86009883D01*
X140238540Y-86009882D01*
X140244256Y-86009053D01*
X140249728Y-86007195D01*
X140249730Y-86007195D01*
X140427532Y-85946839D01*
X140427534Y-85946838D01*
X140432996Y-85944984D01*
X140606899Y-85847594D01*
X140760143Y-85720143D01*
X140887594Y-85566899D01*
X140984984Y-85392996D01*
X141049053Y-85204256D01*
X141049882Y-85198540D01*
X141049883Y-85198535D01*
X141070134Y-85058857D01*
X141074318Y-85030000D01*
X148416496Y-85030000D01*
X148417186Y-85036565D01*
X148434210Y-85198535D01*
X148436458Y-85219928D01*
X148495473Y-85401556D01*
X148590960Y-85566944D01*
X148595378Y-85571851D01*
X148595379Y-85571852D01*
X148713127Y-85702624D01*
X148718747Y-85708866D01*
X148873248Y-85821118D01*
X148879276Y-85823802D01*
X148879278Y-85823803D01*
X149041681Y-85896109D01*
X149047712Y-85898794D01*
X149141113Y-85918647D01*
X149228056Y-85937128D01*
X149228061Y-85937128D01*
X149234513Y-85938500D01*
X149425487Y-85938500D01*
X149431939Y-85937128D01*
X149431944Y-85937128D01*
X149518887Y-85918647D01*
X149612288Y-85898794D01*
X149618319Y-85896109D01*
X149780722Y-85823803D01*
X149780724Y-85823802D01*
X149786752Y-85821118D01*
X149941253Y-85708866D01*
X149946873Y-85702624D01*
X150064621Y-85571852D01*
X150064622Y-85571851D01*
X150069040Y-85566944D01*
X150164527Y-85401556D01*
X150223542Y-85219928D01*
X150225791Y-85198535D01*
X150242814Y-85036565D01*
X150243504Y-85030000D01*
X150234707Y-84946305D01*
X150224232Y-84846635D01*
X150224232Y-84846633D01*
X150223542Y-84840072D01*
X150164527Y-84658444D01*
X150069040Y-84493056D01*
X149950968Y-84361923D01*
X149945675Y-84356045D01*
X149945674Y-84356044D01*
X149941253Y-84351134D01*
X149807314Y-84253821D01*
X149792094Y-84242763D01*
X149792093Y-84242762D01*
X149786752Y-84238882D01*
X149780724Y-84236198D01*
X149780722Y-84236197D01*
X149618319Y-84163891D01*
X149618318Y-84163891D01*
X149612288Y-84161206D01*
X149493337Y-84135922D01*
X149431944Y-84122872D01*
X149431939Y-84122872D01*
X149425487Y-84121500D01*
X149234513Y-84121500D01*
X149228061Y-84122872D01*
X149228056Y-84122872D01*
X149166663Y-84135922D01*
X149047712Y-84161206D01*
X149041682Y-84163891D01*
X149041681Y-84163891D01*
X148879278Y-84236197D01*
X148879276Y-84236198D01*
X148873248Y-84238882D01*
X148867907Y-84242762D01*
X148867906Y-84242763D01*
X148852686Y-84253821D01*
X148718747Y-84351134D01*
X148714326Y-84356044D01*
X148714325Y-84356045D01*
X148709033Y-84361923D01*
X148590960Y-84493056D01*
X148495473Y-84658444D01*
X148436458Y-84840072D01*
X148435768Y-84846633D01*
X148435768Y-84846635D01*
X148425293Y-84946305D01*
X148416496Y-85030000D01*
X141074318Y-85030000D01*
X141077653Y-85007001D01*
X141079146Y-84950000D01*
X141062426Y-84768039D01*
X141061437Y-84757273D01*
X141061436Y-84757270D01*
X141060908Y-84751519D01*
X141050769Y-84715567D01*
X141008373Y-84565244D01*
X141008372Y-84565242D01*
X141006805Y-84559685D01*
X140993746Y-84533202D01*
X140921205Y-84386104D01*
X140918650Y-84380923D01*
X140799393Y-84221219D01*
X140653030Y-84085922D01*
X140648147Y-84082841D01*
X140648143Y-84082838D01*
X140489346Y-83982645D01*
X140489341Y-83982643D01*
X140484462Y-83979564D01*
X140299334Y-83905705D01*
X140103847Y-83866820D01*
X140098072Y-83866744D01*
X140098068Y-83866744D01*
X139998588Y-83865442D01*
X139904547Y-83864211D01*
X139898850Y-83865190D01*
X139898849Y-83865190D01*
X139882805Y-83867947D01*
X139708108Y-83897966D01*
X139521111Y-83966953D01*
X139516149Y-83969905D01*
X139408539Y-84033926D01*
X139349816Y-84068862D01*
X139199961Y-84200281D01*
X139076565Y-84356809D01*
X139073876Y-84361920D01*
X139073874Y-84361923D01*
X139047568Y-84411923D01*
X138983760Y-84533202D01*
X138924654Y-84723554D01*
X138901227Y-84921489D01*
X125798181Y-84921489D01*
X126112036Y-84607634D01*
X126119599Y-84593784D01*
X126113272Y-84584562D01*
X126030922Y-84511577D01*
X126026560Y-84508045D01*
X125686600Y-84256948D01*
X125681947Y-84253821D01*
X125320995Y-84033926D01*
X125316094Y-84031232D01*
X124937027Y-83844297D01*
X124931904Y-83842048D01*
X124537707Y-83689545D01*
X124532417Y-83687765D01*
X124126218Y-83570904D01*
X124120794Y-83569602D01*
X123803456Y-83508206D01*
X123740375Y-83475629D01*
X123704921Y-83414118D01*
X123708349Y-83343205D01*
X123749573Y-83285402D01*
X123815502Y-83259062D01*
X123827390Y-83258500D01*
X156930151Y-83258500D01*
X156998272Y-83278502D01*
G37*
%TD.AperFunction*%
%TA.AperFunction,Conductor*%
G36*
X159633923Y-125619695D02*
G01*
X159678986Y-125648656D01*
X160912182Y-126881852D01*
X160946208Y-126944164D01*
X160941143Y-127014979D01*
X160912182Y-127060042D01*
X160560042Y-127412182D01*
X160497730Y-127446208D01*
X160426915Y-127441143D01*
X160381852Y-127412182D01*
X159148656Y-126178986D01*
X159114630Y-126116674D01*
X159119695Y-126045859D01*
X159148656Y-126000796D01*
X159500796Y-125648656D01*
X159563108Y-125614630D01*
X159633923Y-125619695D01*
G37*
%TD.AperFunction*%
%TA.AperFunction,Conductor*%
G36*
X121204141Y-125619695D02*
G01*
X121249204Y-125648656D01*
X121601344Y-126000796D01*
X121635370Y-126063108D01*
X121630305Y-126133923D01*
X121601344Y-126178986D01*
X120368148Y-127412182D01*
X120305836Y-127446208D01*
X120235021Y-127441143D01*
X120189958Y-127412182D01*
X119837818Y-127060042D01*
X119803792Y-126997730D01*
X119808857Y-126926915D01*
X119837818Y-126881852D01*
X121071014Y-125648656D01*
X121133326Y-125614630D01*
X121204141Y-125619695D01*
G37*
%TD.AperFunction*%
%TA.AperFunction,Conductor*%
G36*
X155073085Y-85058857D02*
G01*
X155118148Y-85087818D01*
X156351344Y-86321014D01*
X156385370Y-86383326D01*
X156380305Y-86454141D01*
X156351344Y-86499204D01*
X155999204Y-86851344D01*
X155936892Y-86885370D01*
X155866077Y-86880305D01*
X155821014Y-86851344D01*
X154587818Y-85618148D01*
X154553792Y-85555836D01*
X154558857Y-85485021D01*
X154587818Y-85439958D01*
X154939958Y-85087818D01*
X155002270Y-85053792D01*
X155073085Y-85058857D01*
G37*
%TD.AperFunction*%
%TA.AperFunction,Conductor*%
G36*
X120323085Y-85058857D02*
G01*
X120368148Y-85087818D01*
X121601344Y-86321014D01*
X121635370Y-86383326D01*
X121630305Y-86454141D01*
X121601344Y-86499204D01*
X121249204Y-86851344D01*
X121186892Y-86885370D01*
X121116077Y-86880305D01*
X121071014Y-86851344D01*
X119837818Y-85618148D01*
X119803792Y-85555836D01*
X119808857Y-85485021D01*
X119837818Y-85439958D01*
X120189958Y-85087818D01*
X120252270Y-85053792D01*
X120323085Y-85058857D01*
G37*
%TD.AperFunction*%
%TA.AperFunction,Conductor*%
G36*
X160514979Y-85058857D02*
G01*
X160560042Y-85087818D01*
X160912182Y-85439958D01*
X160946208Y-85502270D01*
X160941143Y-85573085D01*
X160912182Y-85618148D01*
X159678986Y-86851344D01*
X159616674Y-86885370D01*
X159545859Y-86880305D01*
X159500796Y-86851344D01*
X159148656Y-86499204D01*
X159114630Y-86436892D01*
X159119695Y-86366077D01*
X159148656Y-86321014D01*
X160381852Y-85087818D01*
X160444164Y-85053792D01*
X160514979Y-85058857D01*
G37*
%TD.AperFunction*%
%TD*%
M02*
