M48
; DRILL file {KiCad (6.0.6)} date Tue Jan 10 19:01:33 2023
; FORMAT={-:-/ absolute / metric / decimal}
; #@! TF.CreationDate,2023-01-10T19:01:33-05:00
; #@! TF.GenerationSoftware,Kicad,Pcbnew,(6.0.6)
; #@! TF.FileFunction,MixedPlating,1,4
FMAT,2
METRIC
; #@! TA.AperFunction,Plated,PTH,ViaDrill
T1C0.400
; #@! TA.AperFunction,Plated,PTH,ComponentDrill
T2C0.500
; #@! TA.AperFunction,Plated,PTH,ComponentDrill
T3C0.600
; #@! TA.AperFunction,Plated,PTH,ComponentDrill
T4C0.650
; #@! TA.AperFunction,Plated,PTH,ComponentDrill
T5C0.700
; #@! TA.AperFunction,Plated,PTH,ComponentDrill
T6C1.200
; #@! TA.AperFunction,Plated,PTH,ComponentDrill
T7C4.300
; #@! TA.AperFunction,NonPlated,NPTH,ComponentDrill
T8C0.900
%
G90
G05
T1
X120.78Y-103.22
X121.0Y-105.2
X122.37Y-105.43
X123.17Y-96.51
X123.53Y-109.96
X123.53Y-112.04
X124.28Y-102.53
X124.62Y-95.31
X124.62Y-97.24
X124.9Y-115.97
X128.3Y-94.36
X128.84Y-95.64
X129.52Y-94.22
X130.52Y-109.47
X130.74Y-96.72
X131.73Y-91.27
X132.03Y-109.28
X132.08Y-121.92
X134.0Y-100.25
X135.0Y-91.27
X135.89Y-121.92
X136.0Y-92.5
X137.01Y-90.79
X138.94Y-106.27
X140.01Y-90.52
X140.02Y-88.11
X140.03Y-117.46
X140.04Y-120.23
X140.65Y-109.27
X140.93Y-96.34
X141.5Y-90.8
X141.61Y-114.97
X142.68Y-85.05
X143.017Y-91.028
X143.4Y-95.8
X143.94Y-116.18
X143.97Y-121.56
X144.89Y-111.06
X145.42Y-91.91
X145.5Y-113.0
X145.59Y-122.98
X145.59Y-124.98
X146.86Y-116.75
X146.87Y-114.74
X147.28Y-86.65
X147.82Y-120.51
X148.31Y-123.03
X148.32Y-124.97
X148.4Y-108.59
X149.33Y-85.03
X153.96Y-96.51
X154.73Y-114.04
X155.25Y-113.0
X155.41Y-96.52
X156.49Y-96.52
X157.05Y-104.57
X157.22Y-97.23
T2
X131.375Y-88.7
X132.125Y-123.3
X132.625Y-88.7
X133.375Y-123.3
X133.875Y-88.7
X134.625Y-123.3
X135.125Y-88.7
X135.875Y-123.3
T3
X119.775Y-88.25
X119.775Y-124.25
X120.72Y-85.97
X120.72Y-90.53
X120.72Y-121.97
X120.72Y-126.53
X123.0Y-85.025
X123.0Y-91.475
X123.0Y-121.025
X123.0Y-127.475
X125.28Y-85.97
X125.28Y-90.53
X125.28Y-121.97
X125.28Y-126.53
X126.225Y-88.25
X126.225Y-124.25
X154.525Y-88.25
X154.525Y-124.25
X155.47Y-85.97
X155.47Y-90.53
X155.47Y-121.97
X155.47Y-126.53
X157.75Y-85.025
X157.75Y-91.475
X157.75Y-121.025
X157.75Y-127.475
X160.03Y-85.97
X160.03Y-90.53
X160.03Y-121.97
X160.03Y-126.53
X160.975Y-88.25
X160.975Y-124.25
T6
X158.28Y-111.7
X158.28Y-115.2
T7
X123.0Y-88.25
X123.0Y-124.25
X157.75Y-88.25
X157.75Y-124.25
T8
X120.5Y-110.1
X120.5Y-116.9
T4
G00X158.575Y-96.125
M15
G01X158.175Y-96.125
M16
G05
G00X158.575Y-100.965
M15
G01X158.175Y-100.965
M16
G05
T5
G00X161.625Y-95.815
M15
G01X161.125Y-95.815
M16
G05
G00X161.625Y-101.275
M15
G01X161.125Y-101.275
M16
G05
T0
M30
