%TF.GenerationSoftware,KiCad,Pcbnew,(6.0.6)*%
%TF.CreationDate,2023-01-10T19:01:41-05:00*%
%TF.ProjectId,STM32F4_REV1,53544d33-3246-4345-9f52-4556312e6b69,rev?*%
%TF.SameCoordinates,Original*%
%TF.FileFunction,Copper,L4,Bot*%
%TF.FilePolarity,Positive*%
%FSLAX46Y46*%
G04 Gerber Fmt 4.6, Leading zero omitted, Abs format (unit mm)*
G04 Created by KiCad (PCBNEW (6.0.6)) date 2023-01-10 19:01:41*
%MOMM*%
%LPD*%
G01*
G04 APERTURE LIST*
G04 Aperture macros list*
%AMRoundRect*
0 Rectangle with rounded corners*
0 $1 Rounding radius*
0 $2 $3 $4 $5 $6 $7 $8 $9 X,Y pos of 4 corners*
0 Add a 4 corners polygon primitive as box body*
4,1,4,$2,$3,$4,$5,$6,$7,$8,$9,$2,$3,0*
0 Add four circle primitives for the rounded corners*
1,1,$1+$1,$2,$3*
1,1,$1+$1,$4,$5*
1,1,$1+$1,$6,$7*
1,1,$1+$1,$8,$9*
0 Add four rect primitives between the rounded corners*
20,1,$1+$1,$2,$3,$4,$5,0*
20,1,$1+$1,$4,$5,$6,$7,0*
20,1,$1+$1,$6,$7,$8,$9,0*
20,1,$1+$1,$8,$9,$2,$3,0*%
G04 Aperture macros list end*
%TA.AperFunction,ComponentPad*%
%ADD10RoundRect,0.200000X-0.200000X-0.450000X0.200000X-0.450000X0.200000X0.450000X-0.200000X0.450000X0*%
%TD*%
%TA.AperFunction,ComponentPad*%
%ADD11O,0.800000X1.300000*%
%TD*%
%TA.AperFunction,ComponentPad*%
%ADD12RoundRect,0.200000X0.200000X0.450000X-0.200000X0.450000X-0.200000X-0.450000X0.200000X-0.450000X0*%
%TD*%
%TA.AperFunction,ComponentPad*%
%ADD13C,0.900000*%
%TD*%
%TA.AperFunction,ComponentPad*%
%ADD14C,8.600000*%
%TD*%
%TA.AperFunction,ComponentPad*%
%ADD15R,2.400000X2.400000*%
%TD*%
%TA.AperFunction,ComponentPad*%
%ADD16C,2.400000*%
%TD*%
%TA.AperFunction,ComponentPad*%
%ADD17O,1.700000X1.350000*%
%TD*%
%TA.AperFunction,ComponentPad*%
%ADD18O,1.500000X1.100000*%
%TD*%
%TA.AperFunction,ViaPad*%
%ADD19C,0.800000*%
%TD*%
%TA.AperFunction,Conductor*%
%ADD20C,0.300000*%
%TD*%
%TA.AperFunction,Conductor*%
%ADD21C,0.750000*%
%TD*%
%TA.AperFunction,Conductor*%
%ADD22C,0.250000*%
%TD*%
G04 APERTURE END LIST*
D10*
%TO.P,J3,1,Pin_1*%
%TO.N,+3V3*%
X132125000Y-123300000D03*
D11*
%TO.P,J3,2,Pin_2*%
%TO.N,USART3_TX*%
X133375000Y-123300000D03*
%TO.P,J3,3,Pin_3*%
%TO.N,USART3_RX*%
X134625000Y-123300000D03*
%TO.P,J3,4,Pin_4*%
%TO.N,GND*%
X135875000Y-123300000D03*
%TD*%
D12*
%TO.P,J4,1,Pin_1*%
%TO.N,+3V3*%
X135125000Y-88700000D03*
D11*
%TO.P,J4,2,Pin_2*%
%TO.N,I2C1_SCL*%
X133875000Y-88700000D03*
%TO.P,J4,3,Pin_3*%
%TO.N,I2C1_SDA*%
X132625000Y-88700000D03*
%TO.P,J4,4,Pin_4*%
%TO.N,GND*%
X131375000Y-88700000D03*
%TD*%
D13*
%TO.P,H3,1,1*%
%TO.N,GND*%
X120719581Y-121969581D03*
X120719581Y-126530419D03*
X125280419Y-121969581D03*
X125280419Y-126530419D03*
D14*
X123000000Y-124250000D03*
D13*
X126225000Y-124250000D03*
X123000000Y-127475000D03*
X119775000Y-124250000D03*
X123000000Y-121025000D03*
%TD*%
%TO.P,H4,1,1*%
%TO.N,GND*%
X123000000Y-85025000D03*
X125280419Y-85969581D03*
X125280419Y-90530419D03*
X126225000Y-88250000D03*
X119775000Y-88250000D03*
X123000000Y-91475000D03*
X120719581Y-90530419D03*
X120719581Y-85969581D03*
D14*
X123000000Y-88250000D03*
%TD*%
D15*
%TO.P,J1,1,Pin_1*%
%TO.N,GND*%
X158280000Y-115200000D03*
D16*
%TO.P,J1,2,Pin_2*%
%TO.N,+12V*%
X158280000Y-111700000D03*
%TD*%
D17*
%TO.P,J5,6,Shield*%
%TO.N,unconnected-(J5-Pad6)*%
X161375000Y-101275000D03*
X161375000Y-95815000D03*
D18*
X158375000Y-96125000D03*
X158375000Y-100965000D03*
%TD*%
D14*
%TO.P,H1,1,1*%
%TO.N,GND*%
X157750000Y-88250000D03*
D13*
X154525000Y-88250000D03*
X155469581Y-85969581D03*
X160975000Y-88250000D03*
X155469581Y-90530419D03*
X157750000Y-91475000D03*
X160030419Y-85969581D03*
X160030419Y-90530419D03*
X157750000Y-85025000D03*
%TD*%
%TO.P,H2,1,1*%
%TO.N,GND*%
X160975000Y-124250000D03*
X155469581Y-121969581D03*
D14*
X157750000Y-124250000D03*
D13*
X160030419Y-121969581D03*
X155469581Y-126530419D03*
X154525000Y-124250000D03*
X160030419Y-126530419D03*
X157750000Y-121025000D03*
X157750000Y-127475000D03*
%TD*%
D19*
%TO.N,GND*%
X143400000Y-95800000D03*
X143017341Y-91028381D03*
X144890000Y-111060000D03*
X157220000Y-97230000D03*
X147280000Y-86650000D03*
X123170000Y-96510000D03*
X143940000Y-116180000D03*
X130520000Y-109470000D03*
X157050000Y-104570000D03*
X153960000Y-96510000D03*
X155410000Y-96520000D03*
X142680000Y-85050000D03*
X130740000Y-96720000D03*
X135890000Y-121920000D03*
X140650000Y-109270000D03*
X154730000Y-114040000D03*
X124620000Y-95310000D03*
X146870000Y-114740000D03*
X122370000Y-105430000D03*
X124900000Y-115970000D03*
X148400000Y-108590000D03*
X156490000Y-96520000D03*
X124280000Y-102530000D03*
X128300000Y-94360000D03*
X143970000Y-121560000D03*
X147820000Y-120510000D03*
X120780000Y-103220000D03*
%TO.N,+3V3*%
X140930000Y-96340000D03*
X145420000Y-91910000D03*
X132030000Y-109280000D03*
X123530000Y-112040000D03*
X124620000Y-97240000D03*
X145590000Y-122980000D03*
X140040000Y-120230000D03*
X148320000Y-124970000D03*
X137010000Y-90790000D03*
X141500000Y-90800000D03*
X121000000Y-105200000D03*
X148310000Y-123030000D03*
X149330000Y-85030000D03*
X132080000Y-121920000D03*
X129520000Y-94220000D03*
X131730000Y-91270000D03*
X141610000Y-114970000D03*
X145590000Y-124980000D03*
X128840000Y-95640000D03*
X135000000Y-91270000D03*
X146860000Y-116750000D03*
X138940000Y-106270000D03*
X140030000Y-117460000D03*
X123530000Y-109960000D03*
%TO.N,Net-(J2-Pad6)*%
X140020000Y-88110000D03*
X140010000Y-90520000D03*
%TO.N,BUCK_FB*%
X155250000Y-113000000D03*
X145500000Y-113000000D03*
%TO.N,NRST*%
X136000000Y-92500000D03*
X134000000Y-100250000D03*
%TD*%
D20*
%TO.N,Net-(J2-Pad6)*%
X140010000Y-88120000D02*
X140020000Y-88110000D01*
X140010000Y-88660000D02*
X140010000Y-88120000D01*
X140010000Y-90520000D02*
X140010000Y-88660000D01*
D21*
%TO.N,BUCK_FB*%
X155250000Y-113000000D02*
X145500000Y-113000000D01*
D22*
%TO.N,NRST*%
X136000000Y-92500000D02*
X136000000Y-97750000D01*
X136000000Y-97750000D02*
X136000000Y-98250000D01*
X136000000Y-98250000D02*
X134000000Y-100250000D01*
%TD*%
M02*
